<svg width="2516" height="2959" viewBox="0 0 2516 2959" fill="none" xmlns="http://www.w3.org/2000/svg">
<path d="M1889.17 1203.83C1884.61 1299.56 1779.08 1328.96 1726.89 1331.69C1879.94 1356.17 1989.57 1256.65 2025.25 1203.83H2515.5V705.5H1596.5L1610.73 1197.82L1889.17 1203.83Z" fill="black"/>
<path d="M1827.7 920.3C1821.96 920.3 1816.8 919.133 1812.2 916.8C1807.66 914.4 1804.1 911.1 1801.5 906.9C1798.96 902.7 1797.7 897.933 1797.7 892.6C1797.7 887.267 1798.96 882.5 1801.5 878.3C1804.1 874.1 1807.66 870.833 1812.2 868.5C1816.8 866.1 1821.96 864.9 1827.7 864.9C1833.36 864.9 1838.3 866.1 1842.5 868.5C1846.76 870.833 1849.86 874.2 1851.8 878.6L1839.7 885.1C1836.9 880.167 1832.86 877.7 1827.6 877.7C1823.53 877.7 1820.16 879.033 1817.5 881.7C1814.83 884.367 1813.5 888 1813.5 892.6C1813.5 897.2 1814.83 900.833 1817.5 903.5C1820.16 906.167 1823.53 907.5 1827.6 907.5C1832.93 907.5 1836.96 905.033 1839.7 900.1L1851.8 906.7C1849.86 910.967 1846.76 914.3 1842.5 916.7C1838.3 919.1 1833.36 920.3 1827.7 920.3Z" fill="white"/>
<path d="M1875.68 872.8C1877.55 870.2 1880.05 868.233 1883.18 866.9C1886.38 865.567 1890.05 864.9 1894.18 864.9V879.3C1892.45 879.167 1891.28 879.1 1890.68 879.1C1886.21 879.1 1882.71 880.367 1880.18 882.9C1877.65 885.367 1876.38 889.1 1876.38 894.1V919.5H1860.78V865.7H1875.68V872.8Z" fill="white"/>
<path d="M1955.67 892.8C1955.67 893 1955.57 894.4 1955.37 897H1914.67C1915.4 900.333 1917.13 902.967 1919.87 904.9C1922.6 906.833 1926 907.8 1930.07 907.8C1932.87 907.8 1935.33 907.4 1937.47 906.6C1939.67 905.733 1941.7 904.4 1943.57 902.6L1951.87 911.6C1946.8 917.4 1939.4 920.3 1929.67 920.3C1923.6 920.3 1918.23 919.133 1913.57 916.8C1908.9 914.4 1905.3 911.1 1902.77 906.9C1900.23 902.7 1898.97 897.933 1898.97 892.6C1898.97 887.333 1900.2 882.6 1902.67 878.4C1905.2 874.133 1908.63 870.833 1912.97 868.5C1917.37 866.1 1922.27 864.9 1927.67 864.9C1932.93 864.9 1937.7 866.033 1941.97 868.3C1946.23 870.567 1949.57 873.833 1951.97 878.1C1954.43 882.3 1955.67 887.2 1955.67 892.8ZM1927.77 876.7C1924.23 876.7 1921.27 877.7 1918.87 879.7C1916.47 881.7 1915 884.433 1914.47 887.9H1940.97C1940.43 884.5 1938.97 881.8 1936.57 879.8C1934.17 877.733 1931.23 876.7 1927.77 876.7Z" fill="white"/>
<path d="M1986.29 864.9C1994.62 864.9 2001.02 866.9 2005.49 870.9C2009.95 874.833 2012.19 880.8 2012.19 888.8V919.5H1997.59V912.8C1994.65 917.8 1989.19 920.3 1981.19 920.3C1977.05 920.3 1973.45 919.6 1970.39 918.2C1967.39 916.8 1965.09 914.867 1963.49 912.4C1961.89 909.933 1961.09 907.133 1961.09 904C1961.09 899 1962.95 895.067 1966.69 892.2C1970.49 889.333 1976.32 887.9 1984.19 887.9H1996.59C1996.59 884.5 1995.55 881.9 1993.49 880.1C1991.42 878.233 1988.32 877.3 1984.19 877.3C1981.32 877.3 1978.49 877.767 1975.69 878.7C1972.95 879.567 1970.62 880.767 1968.69 882.3L1963.09 871.4C1966.02 869.333 1969.52 867.733 1973.59 866.6C1977.72 865.467 1981.95 864.9 1986.29 864.9ZM1985.09 909.8C1987.75 909.8 1990.12 909.2 1992.19 908C1994.25 906.733 1995.72 904.9 1996.59 902.5V897H1985.89C1979.49 897 1976.29 899.1 1976.29 903.3C1976.29 905.3 1977.05 906.9 1978.59 908.1C1980.19 909.233 1982.35 909.8 1985.09 909.8Z" fill="white"/>
<path d="M2061.01 916.9C2059.47 918.033 2057.57 918.9 2055.31 919.5C2053.11 920.033 2050.77 920.3 2048.31 920.3C2041.91 920.3 2036.94 918.667 2033.41 915.4C2029.94 912.133 2028.21 907.333 2028.21 901V878.9H2019.91V866.9H2028.21V853.8H2043.81V866.9H2057.21V878.9H2043.81V900.8C2043.81 903.067 2044.37 904.833 2045.51 906.1C2046.71 907.3 2048.37 907.9 2050.51 907.9C2052.97 907.9 2055.07 907.233 2056.81 905.9L2061.01 916.9Z" fill="white"/>
<path d="M2120.8 892.8C2120.8 893 2120.7 894.4 2120.5 897H2079.8C2080.54 900.333 2082.27 902.967 2085 904.9C2087.74 906.833 2091.14 907.8 2095.2 907.8C2098 907.8 2100.47 907.4 2102.6 906.6C2104.8 905.733 2106.84 904.4 2108.7 902.6L2117 911.6C2111.94 917.4 2104.54 920.3 2094.8 920.3C2088.74 920.3 2083.37 919.133 2078.7 916.8C2074.04 914.4 2070.44 911.1 2067.9 906.9C2065.37 902.7 2064.1 897.933 2064.1 892.6C2064.1 887.333 2065.34 882.6 2067.8 878.4C2070.34 874.133 2073.77 870.833 2078.1 868.5C2082.5 866.1 2087.4 864.9 2092.8 864.9C2098.07 864.9 2102.84 866.033 2107.1 868.3C2111.37 870.567 2114.7 873.833 2117.1 878.1C2119.57 882.3 2120.8 887.2 2120.8 892.8ZM2092.9 876.7C2089.37 876.7 2086.4 877.7 2084 879.7C2081.6 881.7 2080.14 884.433 2079.6 887.9H2106.1C2105.57 884.5 2104.1 881.8 2101.7 879.8C2099.3 877.733 2096.37 876.7 2092.9 876.7Z" fill="white"/>
<path d="M2212.91 865.7L2188.61 922.8C2186.14 929 2183.08 933.367 2179.41 935.9C2175.81 938.433 2171.44 939.7 2166.31 939.7C2163.51 939.7 2160.74 939.267 2158.01 938.4C2155.28 937.533 2153.04 936.333 2151.31 934.8L2157.01 923.7C2158.21 924.767 2159.58 925.6 2161.11 926.2C2162.71 926.8 2164.28 927.1 2165.81 927.1C2167.94 927.1 2169.68 926.567 2171.01 925.5C2172.34 924.5 2173.54 922.8 2174.61 920.4L2174.81 919.9L2151.51 865.7H2167.61L2182.71 902.2L2197.91 865.7H2212.91Z" fill="white"/>
<path d="M2243.41 920.3C2237.74 920.3 2232.64 919.133 2228.11 916.8C2223.64 914.4 2220.14 911.1 2217.61 906.9C2215.08 902.7 2213.81 897.933 2213.81 892.6C2213.81 887.267 2215.08 882.5 2217.61 878.3C2220.14 874.1 2223.64 870.833 2228.11 868.5C2232.64 866.1 2237.74 864.9 2243.41 864.9C2249.08 864.9 2254.14 866.1 2258.61 868.5C2263.08 870.833 2266.58 874.1 2269.11 878.3C2271.64 882.5 2272.91 887.267 2272.91 892.6C2272.91 897.933 2271.64 902.7 2269.11 906.9C2266.58 911.1 2263.08 914.4 2258.61 916.8C2254.14 919.133 2249.08 920.3 2243.41 920.3ZM2243.41 907.5C2247.41 907.5 2250.68 906.167 2253.21 903.5C2255.81 900.767 2257.11 897.133 2257.11 892.6C2257.11 888.067 2255.81 884.467 2253.21 881.8C2250.68 879.067 2247.41 877.7 2243.41 877.7C2239.41 877.7 2236.11 879.067 2233.51 881.8C2230.91 884.467 2229.61 888.067 2229.61 892.6C2229.61 897.133 2230.91 900.767 2233.51 903.5C2236.11 906.167 2239.41 907.5 2243.41 907.5Z" fill="white"/>
<path d="M2337.54 865.7V919.5H2322.74V913.1C2320.67 915.433 2318.2 917.233 2315.34 918.5C2312.47 919.7 2309.37 920.3 2306.04 920.3C2298.97 920.3 2293.37 918.267 2289.24 914.2C2285.1 910.133 2283.04 904.1 2283.04 896.1V865.7H2298.64V893.8C2298.64 902.467 2302.27 906.8 2309.54 906.8C2313.27 906.8 2316.27 905.6 2318.54 903.2C2320.8 900.733 2321.94 897.1 2321.94 892.3V865.7H2337.54Z" fill="white"/>
<path d="M2366.89 872.8C2368.76 870.2 2371.26 868.233 2374.39 866.9C2377.59 865.567 2381.26 864.9 2385.39 864.9V879.3C2383.66 879.167 2382.49 879.1 2381.89 879.1C2377.42 879.1 2373.92 880.367 2371.39 882.9C2368.86 885.367 2367.59 889.1 2367.59 894.1V919.5H2351.99V865.7H2366.89V872.8Z" fill="white"/>
<path d="M1818.8 988.9H1832.6V1000.9H1819.2V1041.5H1803.6V1000.9H1795.3V988.9H1803.6V986.5C1803.6 980.367 1805.4 975.5 1809 971.9C1812.66 968.3 1817.8 966.5 1824.4 966.5C1826.73 966.5 1828.93 966.767 1831 967.3C1833.13 967.767 1834.9 968.467 1836.3 969.4L1832.2 980.7C1830.4 979.433 1828.3 978.8 1825.9 978.8C1821.16 978.8 1818.8 981.4 1818.8 986.6V988.9ZM1848.4 987.7H1864V1041.5H1848.4V987.7ZM1856.2 980.2C1853.33 980.2 1851 979.367 1849.2 977.7C1847.4 976.033 1846.5 973.967 1846.5 971.5C1846.5 969.033 1847.4 966.967 1849.2 965.3C1851 963.633 1853.33 962.8 1856.2 962.8C1859.06 962.8 1861.4 963.6 1863.2 965.2C1865 966.8 1865.9 968.8 1865.9 971.2C1865.9 973.8 1865 975.967 1863.2 977.7C1861.4 979.367 1859.06 980.2 1856.2 980.2Z" fill="white"/>
<path d="M1893.36 994.8C1895.22 992.2 1897.72 990.233 1900.86 988.9C1904.06 987.567 1907.72 986.9 1911.86 986.9V1001.3C1910.12 1001.17 1908.96 1001.1 1908.36 1001.1C1903.89 1001.1 1900.39 1002.37 1897.86 1004.9C1895.32 1007.37 1894.06 1011.1 1894.06 1016.1V1041.5H1878.46V987.7H1893.36V994.8Z" fill="white"/>
<path d="M1939.43 1042.3C1934.96 1042.3 1930.59 1041.77 1926.33 1040.7C1922.06 1039.57 1918.66 1038.17 1916.13 1036.5L1921.33 1025.3C1923.73 1026.83 1926.63 1028.1 1930.03 1029.1C1933.43 1030.03 1936.76 1030.5 1940.03 1030.5C1946.63 1030.5 1949.93 1028.87 1949.93 1025.6C1949.93 1024.07 1949.03 1022.97 1947.23 1022.3C1945.43 1021.63 1942.66 1021.07 1938.93 1020.6C1934.53 1019.93 1930.89 1019.17 1928.03 1018.3C1925.16 1017.43 1922.66 1015.9 1920.53 1013.7C1918.46 1011.5 1917.43 1008.37 1917.43 1004.3C1917.43 1000.9 1918.39 997.9 1920.33 995.3C1922.33 992.633 1925.19 990.567 1928.93 989.1C1932.73 987.633 1937.19 986.9 1942.33 986.9C1946.13 986.9 1949.89 987.333 1953.63 988.2C1957.43 989 1960.56 990.133 1963.03 991.6L1957.83 1002.7C1953.09 1000.03 1947.93 998.7 1942.33 998.7C1938.99 998.7 1936.49 999.167 1934.83 1000.1C1933.16 1001.03 1932.33 1002.23 1932.33 1003.7C1932.33 1005.37 1933.23 1006.53 1935.03 1007.2C1936.83 1007.87 1939.69 1008.5 1943.63 1009.1C1948.03 1009.83 1951.63 1010.63 1954.43 1011.5C1957.23 1012.3 1959.66 1013.8 1961.73 1016C1963.79 1018.2 1964.83 1021.27 1964.83 1025.2C1964.83 1028.53 1963.83 1031.5 1961.83 1034.1C1959.83 1036.7 1956.89 1038.73 1953.03 1040.2C1949.23 1041.6 1944.69 1042.3 1939.43 1042.3Z" fill="white"/>
<path d="M2009.15 1038.9C2007.62 1040.03 2005.72 1040.9 2003.45 1041.5C2001.25 1042.03 1998.92 1042.3 1996.45 1042.3C1990.05 1042.3 1985.08 1040.67 1981.55 1037.4C1978.08 1034.13 1976.35 1029.33 1976.35 1023V1000.9H1968.05V988.9H1976.35V975.8H1991.95V988.9H2005.35V1000.9H1991.95V1022.8C1991.95 1025.07 1992.52 1026.83 1993.65 1028.1C1994.85 1029.3 1996.52 1029.9 1998.65 1029.9C2001.12 1029.9 2003.22 1029.23 2004.95 1027.9L2009.15 1038.9Z" fill="white"/>
<path d="M2078.03 986.9C2083.03 986.9 2087.56 988.067 2091.63 990.4C2095.76 992.667 2099 995.9 2101.33 1000.1C2103.66 1004.23 2104.83 1009.07 2104.83 1014.6C2104.83 1020.13 2103.66 1025 2101.33 1029.2C2099 1033.33 2095.76 1036.57 2091.63 1038.9C2087.56 1041.17 2083.03 1042.3 2078.03 1042.3C2071.16 1042.3 2065.76 1040.13 2061.83 1035.8V1060.9H2046.23V987.7H2061.13V993.9C2065 989.233 2070.63 986.9 2078.03 986.9ZM2075.33 1029.5C2079.33 1029.5 2082.6 1028.17 2085.13 1025.5C2087.73 1022.77 2089.03 1019.13 2089.03 1014.6C2089.03 1010.07 2087.73 1006.47 2085.13 1003.8C2082.6 1001.07 2079.33 999.7 2075.33 999.7C2071.33 999.7 2068.03 1001.07 2065.43 1003.8C2062.9 1006.47 2061.63 1010.07 2061.63 1014.6C2061.63 1019.13 2062.9 1022.77 2065.43 1025.5C2068.03 1028.17 2071.33 1029.5 2075.33 1029.5Z" fill="white"/>
<path d="M2140.87 1042.3C2135.2 1042.3 2130.1 1041.13 2125.57 1038.8C2121.1 1036.4 2117.6 1033.1 2115.07 1028.9C2112.54 1024.7 2111.27 1019.93 2111.27 1014.6C2111.27 1009.27 2112.54 1004.5 2115.07 1000.3C2117.6 996.1 2121.1 992.833 2125.57 990.5C2130.1 988.1 2135.2 986.9 2140.87 986.9C2146.54 986.9 2151.6 988.1 2156.07 990.5C2160.54 992.833 2164.04 996.1 2166.57 1000.3C2169.1 1004.5 2170.37 1009.27 2170.37 1014.6C2170.37 1019.93 2169.1 1024.7 2166.57 1028.9C2164.04 1033.1 2160.54 1036.4 2156.07 1038.8C2151.6 1041.13 2146.54 1042.3 2140.87 1042.3ZM2140.87 1029.5C2144.87 1029.5 2148.14 1028.17 2150.67 1025.5C2153.27 1022.77 2154.57 1019.13 2154.57 1014.6C2154.57 1010.07 2153.27 1006.47 2150.67 1003.8C2148.14 1001.07 2144.87 999.7 2140.87 999.7C2136.87 999.7 2133.57 1001.07 2130.97 1003.8C2128.37 1006.47 2127.07 1010.07 2127.07 1014.6C2127.07 1019.13 2128.37 1022.77 2130.97 1025.5C2133.57 1028.17 2136.87 1029.5 2140.87 1029.5Z" fill="white"/>
<path d="M2198.9 1042.3C2194.43 1042.3 2190.07 1041.77 2185.8 1040.7C2181.53 1039.57 2178.13 1038.17 2175.6 1036.5L2180.8 1025.3C2183.2 1026.83 2186.1 1028.1 2189.5 1029.1C2192.9 1030.03 2196.23 1030.5 2199.5 1030.5C2206.1 1030.5 2209.4 1028.87 2209.4 1025.6C2209.4 1024.07 2208.5 1022.97 2206.7 1022.3C2204.9 1021.63 2202.13 1021.07 2198.4 1020.6C2194 1019.93 2190.37 1019.17 2187.5 1018.3C2184.63 1017.43 2182.13 1015.9 2180 1013.7C2177.93 1011.5 2176.9 1008.37 2176.9 1004.3C2176.9 1000.9 2177.87 997.9 2179.8 995.3C2181.8 992.633 2184.67 990.567 2188.4 989.1C2192.2 987.633 2196.67 986.9 2201.8 986.9C2205.6 986.9 2209.37 987.333 2213.1 988.2C2216.9 989 2220.03 990.133 2222.5 991.6L2217.3 1002.7C2212.57 1000.03 2207.4 998.7 2201.8 998.7C2198.47 998.7 2195.97 999.167 2194.3 1000.1C2192.63 1001.03 2191.8 1002.23 2191.8 1003.7C2191.8 1005.37 2192.7 1006.53 2194.5 1007.2C2196.3 1007.87 2199.17 1008.5 2203.1 1009.1C2207.5 1009.83 2211.1 1010.63 2213.9 1011.5C2216.7 1012.3 2219.13 1013.8 2221.2 1016C2223.27 1018.2 2224.3 1021.27 2224.3 1025.2C2224.3 1028.53 2223.3 1031.5 2221.3 1034.1C2219.3 1036.7 2216.37 1038.73 2212.5 1040.2C2208.7 1041.6 2204.17 1042.3 2198.9 1042.3Z" fill="white"/>
<path d="M2268.62 1038.9C2267.09 1040.03 2265.19 1040.9 2262.92 1041.5C2260.72 1042.03 2258.39 1042.3 2255.92 1042.3C2249.52 1042.3 2244.56 1040.67 2241.02 1037.4C2237.56 1034.13 2235.82 1029.33 2235.82 1023V1000.9H2227.52V988.9H2235.82V975.8H2251.42V988.9H2264.82V1000.9H2251.42V1022.8C2251.42 1025.07 2251.99 1026.83 2253.12 1028.1C2254.32 1029.3 2255.99 1029.9 2258.12 1029.9C2260.59 1029.9 2262.69 1029.23 2264.42 1027.9L2268.62 1038.9Z" fill="white"/>
<path d="M2284.26 1042.3C2281.52 1042.3 2279.22 1041.37 2277.36 1039.5C2275.49 1037.63 2274.56 1035.3 2274.56 1032.5C2274.56 1029.63 2275.49 1027.33 2277.36 1025.6C2279.22 1023.8 2281.52 1022.9 2284.26 1022.9C2286.99 1022.9 2289.29 1023.8 2291.16 1025.6C2293.02 1027.33 2293.96 1029.63 2293.96 1032.5C2293.96 1035.3 2293.02 1037.63 2291.16 1039.5C2289.29 1041.37 2286.99 1042.3 2284.26 1042.3Z" fill="white"/>
<path fill-rule="evenodd" clip-rule="evenodd" d="M1111.32 53.8726C1033.39 23.1975 949.695 10.1809 846.577 16.5964C670.626 27.5431 574.311 91.5878 431.756 198.623C294.591 301.61 223.448 379.02 148.231 532.681C141.481 546.472 134.703 560.15 127.977 573.726C86.2382 657.969 46.4587 738.258 27.1146 816.939C4.79608 907.719 9.90628 995.618 71.3222 1083.84C110.739 1140.46 157.567 1166.89 210.49 1187.82C226.086 1193.99 242.372 1199.73 259.197 1205.65C299.129 1219.72 342.102 1234.85 386.12 1259.41C441.338 1290.23 485.712 1327.08 527.052 1361.42C544.544 1375.94 561.492 1390.02 578.49 1403C635.959 1446.87 695.395 1479.61 782.471 1480.45C855.696 1481.15 916.08 1471.06 970.827 1447.99C1025.59 1424.92 1075.17 1388.66 1126.52 1336.38C1175.06 1286.97 1194.22 1236.39 1208.91 1181.65C1212.16 1169.55 1215.19 1157.2 1218.29 1144.59C1229.18 1100.28 1240.85 1052.8 1265.15 1002.26C1284.25 962.524 1311.27 931.292 1336.06 902.632C1344.35 893.053 1352.39 883.761 1359.8 874.535C1389.63 837.396 1410.56 800.291 1403.87 745.976C1399.44 709.947 1385.55 684.48 1365.48 664.999C1345.22 645.325 1318.3 631.406 1287.23 619.254C1268.65 611.982 1249.19 605.553 1229.04 598.893C1215.16 594.309 1200.96 589.615 1186.48 584.463C1151.45 571.995 1115.92 557.171 1083.56 535.627C1053.12 515.362 1027.62 491.517 1004.4 467.587C994.801 457.702 985.717 447.943 976.845 438.412C963.958 424.567 951.519 411.203 938.61 398.632C895.716 356.862 851.241 327.628 783.074 333.789C709.837 340.409 663.17 376.707 625.559 428.399C606.652 454.385 590.091 484.199 573.65 516.115C567.665 527.733 561.672 539.679 555.589 551.805C545.071 572.772 534.283 594.277 522.797 615.559C517.133 626.053 511.491 636.405 505.915 646.635C469.926 712.665 436.705 773.616 418.416 834.848C397.449 905.042 396.292 975.148 433.997 1052.68C468.668 1123.98 516.258 1176.98 574.678 1211.37C633.106 1245.77 702.804 1261.81 782.083 1258.47C850.026 1255.61 906.183 1240.24 954.566 1211.67C1002.97 1183.08 1044.06 1141 1081.44 1084.01C1118.1 1028.13 1141.37 974.653 1149.33 920.038C1157.28 865.506 1150.05 809.333 1124.93 747.899C1112.29 716.992 1088.7 688.229 1059.88 662.354C1031.12 636.522 997.513 613.897 965.371 595.182C933.252 576.48 902.745 561.771 880.262 551.736C869.026 546.722 859.808 542.881 853.411 540.299C850.213 539.007 847.722 538.031 846.037 537.381C845.195 537.055 844.554 536.811 844.128 536.65C843.915 536.57 843.755 536.51 843.651 536.471L843.505 536.416C843.504 536.416 843.505 536.416 846.111 529.384C848.717 522.351 848.719 522.352 848.723 522.353L848.771 522.371L848.909 522.423C849.029 522.467 849.204 522.533 849.433 522.62C849.891 522.793 850.565 523.05 851.441 523.388C853.192 524.064 855.755 525.068 859.027 526.389C865.57 529.031 874.956 532.942 886.375 538.039C909.203 548.227 940.214 563.176 972.919 582.219C1005.6 601.249 1040.13 624.456 1069.9 651.194C1099.63 677.889 1124.99 708.434 1138.81 742.221C1164.82 805.82 1172.56 864.7 1164.17 922.203C1155.8 979.623 1131.42 1035.16 1093.98 1092.24C1055.69 1150.62 1013.06 1194.55 962.194 1224.59C911.307 1254.64 852.644 1270.51 782.715 1273.46C700.999 1276.9 628.351 1260.38 567.068 1224.3C505.777 1188.21 456.292 1132.83 420.508 1059.24C380.878 977.752 382.2 903.683 404.043 830.555C422.82 767.691 456.902 705.184 492.82 639.309C498.385 629.103 503.994 618.816 509.597 608.435C521.001 587.304 531.578 566.217 542.008 545.423C548.115 533.247 554.172 521.171 560.315 509.246C576.843 477.162 593.826 446.518 613.43 419.574C652.842 365.407 703.065 325.96 781.724 318.85C856.183 312.12 904.767 344.739 949.074 387.885C962.118 400.587 975.118 414.544 988.297 428.694C997.148 438.196 1006.08 447.785 1015.16 457.14C1038.07 480.738 1062.71 503.727 1091.87 523.141C1122.72 543.679 1156.91 558.017 1191.51 570.331C1205.23 575.213 1219.19 579.832 1233.03 584.409C1253.62 591.221 1273.92 597.938 1292.7 605.284C1324.42 617.693 1353.53 632.492 1375.93 654.236C1398.53 676.172 1413.92 704.82 1418.76 744.144C1426.17 804.325 1402.39 845.459 1371.49 883.929C1363.43 893.962 1354.97 903.748 1346.43 913.627C1321.95 941.931 1296.83 970.991 1278.67 1008.76C1255.11 1057.75 1243.91 1103.28 1233.07 1147.37C1229.91 1160.2 1226.79 1172.9 1223.4 1185.53C1208.39 1241.45 1188.34 1294.85 1137.22 1346.9C1084.9 1400.16 1033.72 1437.76 976.652 1461.81C919.571 1485.87 857.055 1496.16 782.327 1495.45C690.769 1494.57 628.23 1459.84 569.387 1414.92C551.479 1401.25 534.04 1386.76 516.279 1372C475.381 1338.03 432.776 1302.63 378.81 1272.51C335.953 1248.6 294.969 1234.17 255.527 1220.29C238.394 1214.26 221.551 1208.33 204.972 1201.77C150.544 1180.24 100.742 1152.35 59.0114 1092.41C-5.409 999.872 -10.5491 907.306 12.5483 813.358C32.3205 732.936 72.9519 650.957 114.634 566.859C121.342 553.324 128.078 539.734 134.759 526.086C211.194 369.937 284.04 290.775 422.749 186.628C565.8 79.2204 665.099 12.858 845.645 1.62535C950.678 -4.90923 1036.6 8.34079 1116.81 39.915C1196.91 71.4438 1270.94 121.097 1352.32 186.789C1469.54 281.412 1548.14 348.642 1590.11 495.795C1605.75 550.616 1605.72 595.134 1601.84 639.736C1600.68 653.168 1599.18 666.495 1597.66 680.064C1594.1 711.75 1590.4 744.759 1590.4 783.529C1590.4 813.717 1592.21 839.211 1593.95 863.621C1594.69 874.049 1595.42 884.28 1595.98 894.594C1597.86 928.926 1597.88 963.359 1590.29 1006.8C1576.33 1086.72 1554.94 1149.24 1522.74 1206.39C1490.57 1263.47 1447.79 1314.87 1391.46 1372.73C1332.99 1432.78 1277.28 1467.42 1217.6 1496.14C1190.51 1509.17 1162.56 1521.01 1133.28 1533.41C1130.42 1534.62 1127.55 1535.84 1124.66 1537.06C1092.19 1550.83 1057.96 1565.52 1020.99 1583.6C986.995 1600.23 956.967 1619.22 928.527 1638.19C921.367 1642.96 914.287 1647.75 907.263 1652.5C886.517 1666.52 866.25 1680.22 845.793 1692.34C790.613 1725.02 732.812 1746.94 654.593 1736.28C577.58 1725.79 499.887 1665.52 442.227 1609.32C413.205 1581.03 388.89 1553.4 371.833 1532.85C363.301 1522.57 356.575 1514.05 351.975 1508.08C349.674 1505.1 347.905 1502.76 346.706 1501.16C346.328 1500.65 346.006 1500.22 345.743 1499.87C345.589 1499.66 345.454 1499.47 345.34 1499.32C345.185 1499.11 345.067 1498.95 344.987 1498.84L344.894 1498.71L344.862 1498.67C344.86 1498.67 344.859 1498.66 350.924 1494.25C356.99 1489.84 356.989 1489.84 356.99 1489.84L356.993 1489.85L357.011 1489.87L357.089 1489.98C357.16 1490.07 357.268 1490.22 357.412 1490.42C357.702 1490.81 358.138 1491.4 358.717 1492.17C359.873 1493.72 361.598 1496 363.85 1498.92C368.355 1504.76 374.97 1513.14 383.376 1523.27C400.195 1543.53 424.149 1570.75 452.697 1598.58C510.175 1654.6 584.822 1711.63 656.619 1721.42C730.356 1731.47 784.716 1711.08 838.15 1679.43C858.186 1667.57 877.919 1654.23 898.555 1640.28C905.649 1635.48 912.849 1630.61 920.206 1625.71C948.828 1606.62 979.507 1587.19 1014.4 1570.13C1051.76 1551.86 1086.31 1537.03 1118.81 1523.25C1121.68 1522.03 1124.54 1520.82 1127.39 1519.61C1156.73 1507.19 1184.34 1495.49 1211.1 1482.62C1269.59 1454.47 1323.75 1420.77 1380.71 1362.26C1436.64 1304.82 1478.42 1254.48 1509.67 1199.02C1540.89 1143.63 1561.78 1082.8 1575.51 1004.22C1582.84 962.268 1582.85 929.054 1581 895.416C1580.46 885.531 1579.75 875.536 1579.02 865.237C1577.27 840.622 1575.4 814.271 1575.4 783.529C1575.4 743.886 1579.25 709.527 1582.84 677.515C1584.34 664.152 1585.79 651.198 1586.9 638.438C1590.68 594.915 1590.65 552.376 1575.69 499.909C1535.11 357.619 1459.91 292.919 1342.9 198.461C1262.01 133.172 1189.37 84.5932 1111.32 53.8726Z" fill="#FF5858"/>
<path d="M1030.31 847.459C1030.31 987.511 916.774 1101.05 776.722 1101.05C636.671 1101.05 523.136 987.511 523.136 847.459C523.136 707.408 636.671 593.873 776.722 593.873C916.774 593.873 1030.31 707.408 1030.31 847.459Z" fill="#FF5858"/>
<path fill-rule="evenodd" clip-rule="evenodd" d="M776.722 750.43C783.626 750.43 789.222 756.027 789.222 762.93V931.988C789.222 938.891 783.626 944.488 776.722 944.488C769.819 944.488 764.222 938.891 764.222 931.988V762.93C764.222 756.027 769.819 750.43 776.722 750.43Z" fill="#FFDFDF"/>
<path fill-rule="evenodd" clip-rule="evenodd" d="M679.697 847.459C679.697 840.556 685.294 834.959 692.197 834.959H861.255C868.158 834.959 873.755 840.556 873.755 847.459C873.755 854.363 868.158 859.959 861.255 859.959H692.197C685.294 859.959 679.697 854.363 679.697 847.459Z" fill="#FFDFDF"/>
<path d="M1646.83 1698.66V2109.71C1646.83 2109.71 1475.76 2189.7 1363.77 2205.7C1251.78 2221.7 1169.33 2109.71 1169.33 2109.71V1664.2H1046.58L1208.71 1381.14C1208.71 1381.14 1252.32 1213.83 1363.77 1201.46C1493.91 1187.03 1602.6 1257.91 1646.83 1381.14C1671.18 1449 1646.83 1565.75 1646.83 1565.75C1662.42 1559.18 1745.28 1555.71 1745.28 1612.51C1745.28 1677.74 1688.67 1687.17 1646.83 1698.66Z" fill="white"/>
<path fill-rule="evenodd" clip-rule="evenodd" d="M1651.07 2118.77C1654.58 2117.12 1656.83 2113.59 1656.83 2109.71V1706.34C1657.55 1706.15 1658.27 1705.96 1659 1705.77C1677.4 1700.94 1699.23 1695.2 1716.99 1684.25C1727.76 1677.62 1737.46 1668.86 1744.43 1656.91C1751.4 1644.93 1755.28 1630.32 1755.28 1612.51C1755.28 1595.56 1748.97 1582.5 1738.95 1573.05C1729.22 1563.87 1716.54 1558.58 1704.22 1555.64C1691.83 1552.68 1679.08 1551.92 1668.43 1552.3C1665.3 1552.42 1662.23 1552.63 1659.33 1552.95C1659.59 1551.4 1659.85 1549.75 1660.13 1548.01C1662.06 1535.82 1664.38 1518.84 1665.93 1499.7C1668.99 1461.83 1669.19 1413.84 1656.24 1377.77C1610.51 1250.36 1497.59 1176.56 1362.67 1191.53C1301.96 1198.26 1260.99 1246.92 1235.77 1290.97C1222.99 1313.28 1213.84 1335.13 1207.88 1351.36C1204.89 1359.49 1202.69 1366.25 1201.24 1371C1200.51 1373.37 1199.97 1375.25 1199.6 1376.55C1199.52 1376.82 1199.45 1377.06 1199.39 1377.29L1037.9 1659.23C1036.13 1662.33 1036.13 1666.13 1037.92 1669.22C1039.71 1672.3 1043.01 1674.2 1046.58 1674.2H1159.33V2109.71C1159.33 2111.84 1160.01 2113.92 1161.27 2115.64L1169.33 2109.71V1664.2H1046.58L1208.71 1381.14C1208.71 1381.14 1252.32 1213.83 1363.77 1201.46C1493.91 1187.03 1602.6 1257.91 1646.83 1381.14C1666.65 1436.36 1654.21 1523.95 1648.89 1554.67C1647.67 1561.7 1646.83 1565.75 1646.83 1565.75C1649.11 1564.79 1652.82 1563.89 1657.51 1563.25C1684.87 1559.46 1745.28 1564.02 1745.28 1612.51C1745.28 1672.68 1697.11 1685.38 1656.79 1696C1653.41 1696.89 1650.07 1697.77 1646.83 1698.66V2109.71L1651.07 2118.77ZM1646.83 2109.71C1646.83 2109.71 1475.76 2189.7 1363.77 2205.7C1251.78 2221.7 1169.33 2109.71 1169.33 2109.71C1161.27 2115.64 1161.27 2115.64 1161.28 2115.64L1161.28 2115.65L1161.3 2115.68L1161.37 2115.76C1161.42 2115.83 1161.49 2115.93 1161.58 2116.05C1161.73 2116.24 1161.93 2116.5 1162.17 2116.83C1162.23 2116.91 1162.3 2116.99 1162.37 2117.08C1163.05 2117.96 1164.04 2119.22 1165.34 2120.81C1167.93 2123.98 1171.72 2128.45 1176.62 2133.75C1186.4 2144.32 1200.64 2158.25 1218.55 2171.7C1254.18 2198.46 1305.46 2224.13 1365.19 2215.6C1422.39 2207.43 1494.06 2183.06 1550.91 2161.03C1579.45 2149.97 1604.46 2139.41 1622.34 2131.62C1631.29 2127.73 1638.45 2124.52 1643.39 2122.28C1645.86 2121.17 1647.77 2120.29 1649.07 2119.69C1649.71 2119.39 1650.21 2119.16 1650.55 2119.01L1650.93 2118.83L1651.05 2118.77L1651.06 2118.77C1651.06 2118.77 1651.07 2118.77 1646.83 2109.71Z" fill="black"/>
<path d="M1616.06 1596.51L1643.14 1571.9L1670.21 1563.28C1670.21 1563.28 1774.66 1317.01 1670.21 1270.38C1650.31 1261.5 1636.81 1263.53 1616.06 1256.85C1541.92 1232.96 1522.49 1168.12 1446.23 1152.24C1303.96 1122.61 1042.62 1178.16 1099.18 1317.15C1146.61 1433.7 1296.09 1393.45 1415.46 1378.68C1484.47 1370.15 1591.45 1351.61 1591.45 1351.61L1586.53 1623.59L1616.06 1596.51Z" fill="black"/>
<path fill-rule="evenodd" clip-rule="evenodd" d="M1693.61 1612.59C1696.29 1613.28 1697.9 1616.01 1697.21 1618.68C1696.51 1621.36 1693.79 1622.97 1691.12 1622.28L1691.11 1622.28" fill="black"/>
<path d="M1689.9 2050.63C1674.64 2050.69 1664.07 2056.5 1655.44 2069.09C1644.85 2084.56 1655.44 2108.48 1655.44 2108.48C1655.44 2108.48 1483.15 2214.64 1326.85 2214.64C1248.28 2214.64 1160.71 2117.09 1160.71 2117.09C1160.71 2117.09 1172.1 2086.96 1160.71 2075.25C1151.18 2065.45 1139.85 2067.71 1126.25 2069.09C1112.31 2070.51 1103.7 2073.55 1093.02 2082.63C1067.03 2104.74 1093.02 2170.01 1093.02 2170.01C1093.02 2170.01 1120.14 2236.01 1149.63 2269.7C1201.33 2328.74 1249.48 2351.32 1326.85 2364.46C1421.79 2380.58 1479.85 2349.14 1566.84 2307.85C1633.32 2276.29 1692.61 2268.29 1721.9 2200.78C1741.44 2155.75 1761.11 2111.53 1728.05 2075.25C1716.11 2062.14 1707.63 2050.57 1689.9 2050.63Z" fill="white"/>
<path fill-rule="evenodd" clip-rule="evenodd" d="M1728.39 2068.14C1718.28 2056.79 1708.28 2045.57 1689.89 2045.63C1681.6 2045.66 1674.3 2047.26 1667.81 2050.76C1661.33 2054.25 1655.97 2059.47 1651.32 2066.27C1644.92 2075.61 1645.14 2087.07 1646.54 2095.41C1647.26 2099.69 1648.32 2103.42 1649.21 2106.08C1649.24 2106.16 1649.27 2106.25 1649.3 2106.33C1648.19 2106.99 1646.83 2107.78 1645.23 2108.71C1640.26 2111.59 1632.97 2115.71 1623.72 2120.66C1605.23 2130.55 1578.95 2143.75 1547.81 2156.95C1485.43 2183.4 1404.01 2209.64 1326.85 2209.64C1289.34 2209.64 1248.96 2186.19 1217.37 2161.9C1201.7 2149.85 1188.44 2137.79 1179.1 2128.74C1174.43 2124.22 1170.75 2120.45 1168.24 2117.83C1167.54 2117.09 1166.92 2116.44 1166.41 2115.89C1166.62 2115.23 1166.86 2114.46 1167.11 2113.62C1168.04 2110.47 1169.17 2106.12 1169.92 2101.34C1170.67 2096.6 1171.09 2091.24 1170.48 2086.14C1169.88 2081.07 1168.19 2075.77 1164.3 2071.76C1153.8 2060.97 1141.05 2062.41 1129.32 2063.73C1128.12 2063.87 1126.92 2064 1125.75 2064.12C1118.53 2064.85 1112.39 2066.04 1106.57 2068.34C1100.72 2070.66 1095.43 2074.02 1089.78 2078.82C1081.99 2085.45 1078.41 2095.05 1077.1 2104.96C1075.79 2114.88 1076.68 2125.66 1078.35 2135.45C1080.02 2145.28 1082.52 2154.36 1084.6 2160.97C1085.64 2164.27 1086.57 2166.98 1087.25 2168.86C1087.59 2169.8 1087.87 2170.54 1088.07 2171.05C1088.16 2171.31 1088.24 2171.5 1088.29 2171.64C1088.32 2171.71 1088.34 2171.76 1088.35 2171.8L1088.37 2171.84L1088.38 2171.85L1088.38 2171.86C1088.38 2171.86 1088.38 2171.86 1093.02 2170.01C1088.4 2171.91 1088.4 2171.91 1088.4 2171.91L1088.4 2171.92L1088.41 2171.93L1088.42 2171.97L1088.48 2172.12C1088.54 2172.25 1088.62 2172.44 1088.72 2172.69C1088.93 2173.19 1089.24 2173.93 1089.65 2174.88C1090.46 2176.77 1091.64 2179.51 1093.16 2182.89C1096.18 2189.66 1100.53 2199.04 1105.81 2209.48C1116.31 2230.25 1130.69 2255.65 1145.87 2272.99C1172.04 2302.87 1197.47 2323.71 1226.31 2338.73C1255.11 2353.72 1287.04 2362.77 1326.02 2369.39C1417.11 2384.85 1475.17 2357.13 1554.09 2319.46C1558.97 2317.13 1563.93 2314.76 1568.98 2312.36C1583.71 2305.37 1598.07 2299.55 1611.98 2293.92C1613.62 2293.25 1615.25 2292.59 1616.87 2291.93C1632.23 2285.69 1647.02 2279.53 1660.68 2272.2C1688.2 2257.43 1711.29 2237.8 1726.49 2202.77C1726.72 2202.22 1726.96 2201.68 1727.2 2201.14C1736.66 2179.32 1746.38 2156.95 1749.64 2135.49C1753.04 2113.14 1749.52 2091.39 1731.75 2071.88C1730.62 2070.64 1729.51 2069.39 1728.39 2068.14ZM1093.02 2170.01L1088.4 2171.91L1088.39 2171.89L1088.38 2171.86L1093.02 2170.01ZM1097.67 2168.16L1097.67 2168.16L1097.66 2168.15L1097.66 2168.13L1097.65 2168.12L1097.65 2168.11L1097.61 2168.01C1097.56 2167.89 1097.5 2167.72 1097.41 2167.49C1097.24 2167.04 1096.98 2166.35 1096.66 2165.46C1096.02 2163.69 1095.13 2161.12 1094.14 2157.97C1092.15 2151.64 1089.78 2143.02 1088.21 2133.77C1086.62 2124.48 1085.89 2114.8 1087.02 2106.27C1088.14 2097.72 1091.06 2090.87 1096.26 2086.44C1101.29 2082.17 1105.64 2079.47 1110.25 2077.64C1114.89 2075.8 1120.03 2074.75 1126.76 2074.07C1127.83 2073.96 1128.86 2073.85 1129.87 2073.74C1142.51 2072.41 1150.19 2071.6 1157.13 2078.73C1158.92 2080.58 1160.09 2083.45 1160.55 2087.32C1161.01 2091.17 1160.72 2095.53 1160.04 2099.78C1159.38 2104 1158.37 2107.91 1157.52 2110.78C1157.1 2112.21 1156.72 2113.37 1156.45 2114.16C1156.31 2114.55 1156.2 2114.85 1156.13 2115.05C1156.1 2115.15 1156.07 2115.23 1156.05 2115.27L1156.04 2115.32L1156.03 2115.32L1156.03 2115.32L1156.03 2115.33L1154.96 2118.17L1156.99 2120.43L1160.71 2117.09C1156.99 2120.43 1156.99 2120.43 1156.99 2120.43L1157 2120.44L1157.07 2120.52C1157.11 2120.57 1157.18 2120.64 1157.27 2120.74C1157.44 2120.93 1157.7 2121.21 1158.04 2121.58C1158.72 2122.31 1159.72 2123.38 1161.01 2124.74C1163.6 2127.44 1167.37 2131.3 1172.14 2135.92C1181.68 2145.16 1195.22 2157.49 1211.27 2169.83C1243.11 2194.31 1285.79 2219.64 1326.85 2219.64C1405.99 2219.64 1488.87 2192.8 1551.71 2166.16C1583.18 2152.82 1609.74 2139.48 1628.44 2129.47C1637.79 2124.47 1645.18 2120.29 1650.24 2117.37C1652.77 2115.9 1654.72 2114.75 1656.04 2113.96C1656.7 2113.57 1657.2 2113.26 1657.54 2113.05C1657.71 2112.95 1657.84 2112.87 1657.93 2112.82L1658.03 2112.76L1658.06 2112.74C1658.07 2112.73 1658.07 2112.73 1655.44 2108.48L1658.07 2112.73L1661.78 2110.44L1660.02 2106.46L1660.02 2106.46L1660.02 2106.45L1660.01 2106.43C1659.99 2106.4 1659.97 2106.34 1659.94 2106.27C1659.88 2106.12 1659.78 2105.89 1659.66 2105.59C1659.42 2104.98 1659.08 2104.07 1658.7 2102.92C1657.93 2100.61 1657.01 2097.4 1656.4 2093.76C1655.15 2086.28 1655.38 2078.04 1659.57 2071.92C1663.54 2066.12 1667.78 2062.14 1672.56 2059.56C1677.32 2056.99 1682.94 2055.66 1689.92 2055.63C1703.61 2055.59 1710.54 2063.29 1721.12 2075.04C1722.16 2076.19 1723.24 2077.39 1724.36 2078.62C1739.64 2095.39 1742.81 2113.89 1739.76 2133.98C1736.69 2154.14 1727.43 2175.48 1717.73 2197.83L1717.31 2198.79C1703.22 2231.26 1682.02 2249.39 1655.95 2263.39C1642.82 2270.44 1628.49 2276.42 1613.11 2282.67C1611.49 2283.32 1609.86 2283.98 1608.22 2284.65C1594.34 2290.27 1579.7 2296.21 1564.69 2303.33C1559.79 2305.66 1554.99 2307.95 1550.27 2310.2C1470.98 2348.03 1415.59 2374.45 1327.69 2359.53C1289.29 2353.01 1258.47 2344.2 1230.92 2329.86C1203.42 2315.54 1178.93 2295.56 1153.4 2266.4C1139.09 2250.06 1125.17 2225.61 1114.73 2204.97C1109.54 2194.7 1105.27 2185.47 1102.29 2178.81C1100.8 2175.48 1099.63 2172.8 1098.84 2170.95C1098.45 2170.02 1098.15 2169.31 1097.95 2168.83C1097.89 2168.69 1097.84 2168.58 1097.8 2168.48C1097.77 2168.4 1097.74 2168.34 1097.72 2168.29" fill="black"/>
<path fill-rule="evenodd" clip-rule="evenodd" d="M1657.72 2104.08C1657.72 2104.09 1657.72 2104.09 1661.41 2107.09L1657.72 2104.09C1655.98 2106.23 1656.3 2109.38 1658.44 2111.12C1660.58 2112.86 1663.73 2112.55 1665.47 2110.41C1665.47 2110.41 1665.47 2110.41 1665.47 2110.4L1665.49 2110.38C1665.51 2110.36 1665.54 2110.32 1665.59 2110.26C1665.68 2110.15 1665.82 2109.99 1666.01 2109.77C1666.39 2109.33 1666.96 2108.69 1667.68 2107.92C1669.14 2106.38 1671.18 2104.33 1673.58 2102.31C1675.99 2100.28 1678.65 2098.37 1681.33 2097C1684.04 2095.62 1686.46 2094.96 1688.49 2095.02C1688.7 2095.03 1688.82 2095.05 1688.88 2095.07C1689.74 2097.53 1692.38 2098.94 1694.93 2098.23C1697.59 2097.5 1699.15 2094.74 1698.41 2092.08L1693.59 2093.41C1698.41 2092.08 1698.41 2092.08 1698.41 2092.07L1698.41 2092.07L1698.41 2092.06L1698.4 2092.03L1698.39 2091.98C1698.38 2091.95 1698.36 2091.91 1698.35 2091.86C1698.32 2091.78 1698.29 2091.67 1698.25 2091.56C1698.16 2091.33 1698.05 2091.05 1697.9 2090.73C1697.6 2090.11 1697.12 2089.29 1696.39 2088.46C1694.84 2086.7 1692.34 2085.13 1688.79 2085.02C1684.47 2084.89 1680.34 2086.29 1676.79 2088.1C1673.21 2089.92 1669.9 2092.34 1667.14 2094.66C1664.36 2097 1662.03 2099.33 1660.39 2101.08C1659.57 2101.95 1658.92 2102.69 1658.46 2103.21C1658.24 2103.47 1658.06 2103.68 1657.93 2103.83C1657.87 2103.91 1657.82 2103.97 1657.79 2104.01L1657.74 2104.06L1657.73 2104.08L1657.73 2104.08L1657.72 2104.08ZM1688.93 2095.1C1688.93 2095.1 1688.92 2095.09 1688.9 2095.08C1688.92 2095.1 1688.93 2095.11 1688.93 2095.1Z" fill="black"/>
<path fill-rule="evenodd" clip-rule="evenodd" d="M1163.59 2116.71C1163.6 2116.71 1163.6 2116.71 1159.48 2119.55L1163.6 2116.71C1165.16 2118.99 1164.59 2122.1 1162.32 2123.67C1160.05 2125.24 1156.93 2124.66 1155.37 2122.39C1155.37 2122.39 1155.37 2122.39 1155.37 2122.39C1155.37 2122.39 1155.37 2122.39 1155.37 2122.39C1155.37 2122.39 1155.37 2122.39 1155.37 2122.39L1155.36 2122.39L1155.35 2122.37C1155.33 2122.34 1155.3 2122.31 1155.27 2122.25C1155.19 2122.14 1155.07 2121.97 1154.91 2121.76C1154.59 2121.32 1154.11 2120.68 1153.5 2119.92C1152.27 2118.37 1150.55 2116.34 1148.54 2114.34C1146.51 2112.32 1144.3 2110.45 1142.12 2109.14C1140.09 2107.91 1138.42 2107.38 1137.14 2107.33C1136.32 2109.74 1133.8 2111.18 1131.27 2110.59C1128.58 2109.96 1126.91 2107.27 1127.54 2104.58L1132.35 2105.71C1127.54 2104.58 1127.54 2104.58 1127.54 2104.58L1127.54 2104.57L1127.54 2104.56L1127.55 2104.54L1127.56 2104.49C1127.57 2104.46 1127.57 2104.42 1127.59 2104.39C1127.61 2104.31 1127.63 2104.21 1127.67 2104.11C1127.73 2103.89 1127.82 2103.63 1127.95 2103.32C1128.19 2102.73 1128.58 2101.92 1129.21 2101.08C1130.52 2099.32 1132.87 2097.46 1136.42 2097.33C1140.46 2097.19 1144.22 2098.73 1147.28 2100.57C1150.4 2102.45 1153.24 2104.92 1155.59 2107.25C1157.96 2109.6 1159.94 2111.95 1161.33 2113.7C1162.03 2114.57 1162.58 2115.31 1162.97 2115.84C1163.16 2116.1 1163.31 2116.31 1163.42 2116.46C1163.47 2116.53 1163.51 2116.59 1163.54 2116.63L1163.58 2116.69L1163.59 2116.7L1163.59 2116.71Z" fill="black"/>
<path d="M2036.95 2339.84C1948.43 2237.49 1739.13 2173.7 1739.13 2173.7C1739.13 2173.7 1710.3 2229.48 1682.52 2256.16C1645.43 2291.77 1607.49 2284.6 1559.45 2302.92C1495.49 2327.32 1467.66 2360.98 1399.46 2366.92C1319.57 2373.87 1265.79 2363.68 1200.09 2317.69C1132.71 2270.53 1084.41 2141.7 1084.41 2141.7C1084.41 2141.7 876.967 2230.47 793.967 2339.84C650.127 2529.4 753.355 2947.8 753.355 2947.8H2077.57C2077.57 2947.8 2192.61 2519.82 2036.95 2339.84Z" fill="white"/>
<path fill-rule="evenodd" clip-rule="evenodd" d="M1742.05 2164.14L1739.13 2173.7ZM1730.25 2169.11L1730.24 2169.11L1730.23 2169.14L1730.18 2169.24C1730.13 2169.34 1730.05 2169.49 1729.95 2169.69C1729.74 2170.08 1729.43 2170.67 1729.02 2171.44C1728.2 2172.97 1726.99 2175.21 1725.45 2177.98C1722.37 2183.52 1717.98 2191.19 1712.74 2199.67C1702.12 2216.84 1688.52 2236.54 1675.59 2248.94C1658.78 2265.09 1641.88 2271.6 1622.7 2276.31C1617.35 2277.63 1611.64 2278.83 1605.63 2280.09C1590.54 2283.26 1573.59 2286.83 1555.89 2293.58C1531.62 2302.84 1512.09 2313.56 1494.37 2323.3C1488.21 2326.68 1482.27 2329.94 1476.43 2332.97C1453.64 2344.83 1430.94 2354.14 1398.6 2356.96C1359.24 2360.38 1326.98 2359.52 1296.74 2352.42C1266.58 2345.35 1237.86 2331.93 1205.83 2309.5C1174.19 2287.36 1146.19 2245.2 1125.79 2207.27C1115.7 2188.52 1107.68 2171.21 1102.18 2158.58C1099.43 2152.27 1097.31 2147.14 1095.89 2143.6C1095.18 2141.84 1094.65 2140.47 1094.29 2139.55C1094.11 2139.09 1093.98 2138.74 1093.89 2138.51L1093.8 2138.26L1093.77 2138.19C1093.77 2138.19 1093.77 2138.19 1093.77 2138.19C1092.81 2135.64 1090.85 2133.58 1088.34 2132.51C1085.83 2131.44 1082.98 2131.44 1080.47 2132.51L1084.41 2141.7C1084.41 2141.7 1085.68 2145.1 1088.11 2151C1100.6 2181.4 1143.66 2278.19 1200.09 2317.69C1265.79 2363.68 1319.57 2373.87 1399.46 2366.92C1442.54 2363.17 1469.51 2348.36 1499.65 2331.81C1517.23 2322.16 1535.89 2311.91 1559.45 2302.92C1576.38 2296.47 1592.05 2293.17 1606.88 2290.06C1634.12 2284.34 1658.5 2279.22 1682.52 2256.16C1710.3 2229.48 1739.13 2173.7 1739.13 2173.7C1739.13 2173.7 1948.43 2237.49 2036.95 2339.84C2192.61 2519.82 2077.57 2947.8 2077.57 2947.8C2087.22 2950.4 2087.23 2950.39 2087.23 2950.39L2087.25 2950.3L2087.32 2950.05C2087.37 2949.83 2087.46 2949.51 2087.57 2949.09C2087.79 2948.26 2088.11 2947.02 2088.52 2945.4C2089.33 2942.18 2090.51 2937.44 2091.94 2931.35C2094.81 2919.19 2098.72 2901.64 2102.93 2880.03C2111.33 2836.82 2120.92 2777.29 2125.61 2712.03C2130.29 2646.82 2130.11 2575.59 2118.83 2509.09C2107.56 2442.68 2085.07 2380.2 2044.52 2333.3C1998.75 2280.38 1922.58 2238.12 1858.97 2209.28C1826.98 2194.78 1797.8 2183.51 1776.61 2175.86C1766.01 2172.04 1757.4 2169.12 1751.43 2167.15C1748.44 2166.16 1746.11 2165.41 1744.52 2164.91C1743.73 2164.66 1743.11 2164.47 1742.7 2164.34C1742.49 2164.27 1742.33 2164.22 1742.22 2164.19L1742.1 2164.15L1742.05 2164.14C1742.05 2164.14 1742.05 2164.14 1739.13 2173.7M753.355 2947.8C753.355 2947.8 650.127 2529.4 793.967 2339.84C866.546 2244.2 1034.28 2164.32 1075.25 2145.77C1081.14 2143.1 1084.41 2141.7 1084.41 2141.7C1080.47 2132.51 1080.47 2132.51 1080.47 2132.51L1080.46 2132.52L1080.3 2132.59C1080.19 2132.63 1080.04 2132.7 1079.83 2132.79C1079.42 2132.97 1078.82 2133.23 1078.03 2133.57C1076.46 2134.26 1074.16 2135.29 1071.21 2136.62C1065.31 2139.29 1056.8 2143.22 1046.35 2148.28C1025.44 2158.39 996.695 2173.01 965.32 2191.09C902.916 2227.05 828.79 2277.41 786.001 2333.8C748.677 2382.99 727.756 2446.46 717.065 2513.22C706.36 2580.07 705.799 2650.93 709.74 2715.51C713.682 2780.14 722.149 2838.75 729.625 2881.2C733.364 2902.43 736.859 2919.64 739.424 2931.56C740.706 2937.52 741.757 2942.15 742.489 2945.31C742.855 2946.89 743.141 2948.1 743.338 2948.92C743.436 2949.33 743.512 2949.65 743.563 2949.86L743.623 2950.1L743.644 2950.19C743.645 2950.19 743.646 2950.2 753.355 2947.8ZM753.355 2947.8H2077.57L2087.22 2950.4C2086.05 2954.76 2082.09 2957.8 2077.57 2957.8H753.355C748.755 2957.8 744.748 2954.66 743.646 2950.2L753.355 2947.8Z" fill="black"/>
<path fill-rule="evenodd" clip-rule="evenodd" d="M1756.28 2621.69L1757.51 2949.05L1767.51 2949.01L1766.28 2621.65L1756.28 2621.69Z" fill="black"/>
<path fill-rule="evenodd" clip-rule="evenodd" d="M917.024 2628.24L864.105 2950.68L873.973 2952.3L926.892 2629.86L917.024 2628.24Z" fill="black"/>
<path fill-rule="evenodd" clip-rule="evenodd" d="M939.393 2599.09C939.393 2599.09 939.393 2599.09 939.393 2599.09L939.383 2599.12L939.347 2599.22C939.315 2599.31 939.265 2599.45 939.198 2599.63C939.066 2600 938.869 2600.53 938.616 2601.2C938.109 2602.53 937.382 2604.39 936.501 2606.47C934.702 2610.71 932.4 2615.55 930.143 2618.84C928.188 2621.69 925.06 2625.12 922.266 2627.97C922.134 2628.11 922.004 2628.24 921.875 2628.37L910.3 2608.11C908.93 2605.72 905.876 2604.88 903.478 2606.25C901.081 2607.62 900.248 2610.68 901.618 2613.07L919.486 2644.34L924.099 2640.13L920.727 2636.44C924.099 2640.13 924.099 2640.13 924.099 2640.13L924.101 2640.13L924.103 2640.13L924.134 2640.1L924.22 2640.02C924.294 2639.95 924.4 2639.85 924.535 2639.73C924.806 2639.47 925.194 2639.11 925.671 2638.66C926.624 2637.75 927.942 2636.46 929.405 2634.97C932.272 2632.05 935.913 2628.1 938.386 2624.5C941.242 2620.34 943.863 2614.72 945.708 2610.37C946.65 2608.15 947.425 2606.17 947.965 2604.74C948.236 2604.03 948.449 2603.45 948.595 2603.05C948.669 2602.85 948.725 2602.69 948.764 2602.58L948.81 2602.46L948.822 2602.42L948.827 2602.41C948.828 2602.41 948.828 2602.41 944.11 2600.75L948.827 2602.41C949.742 2599.8 948.372 2596.95 945.767 2596.03C943.162 2595.12 940.308 2596.49 939.393 2599.09Z" fill="black"/>
<path fill-rule="evenodd" clip-rule="evenodd" d="M1715.41 2559.08C1712.79 2559.95 1711.36 2562.78 1712.23 2565.4L1716.98 2563.83C1712.23 2565.4 1712.23 2565.4 1712.23 2565.4L1712.24 2565.42L1712.26 2565.48C1712.27 2565.52 1712.3 2565.59 1712.33 2565.68C1712.39 2565.86 1712.47 2566.11 1712.59 2566.44C1712.81 2567.1 1713.14 2568.05 1713.57 2569.21C1714.41 2571.55 1715.63 2574.79 1717.13 2578.43C1720.08 2585.59 1724.25 2594.65 1728.9 2601.19C1733.69 2607.92 1741.15 2615.01 1747.17 2620.27C1750.22 2622.93 1752.98 2625.19 1754.99 2626.79C1755.99 2627.59 1756.81 2628.23 1757.37 2628.67C1757.66 2628.89 1757.88 2629.06 1758.03 2629.17C1758.11 2629.23 1758.17 2629.28 1758.21 2629.31L1758.28 2629.36C1758.28 2629.36 1758.28 2629.36 1761.28 2625.36L1758.28 2629.36L1764.58 2634.1L1773.56 2590.69C1774.12 2587.98 1772.38 2585.34 1769.68 2584.78C1766.98 2584.22 1764.33 2585.96 1763.77 2588.66L1758.03 2616.38C1756.72 2615.29 1755.27 2614.06 1753.74 2612.73C1747.83 2607.57 1741.13 2601.12 1737.05 2595.39C1733.1 2589.83 1729.28 2581.66 1726.38 2574.62C1724.95 2571.15 1723.78 2568.04 1722.97 2565.81C1722.57 2564.69 1722.25 2563.8 1722.04 2563.18C1721.93 2562.88 1721.85 2562.64 1721.8 2562.48C1721.77 2562.4 1721.75 2562.35 1721.74 2562.31L1721.73 2562.27L1721.73 2562.26C1721.73 2562.26 1721.72 2562.26 1721.72 2562.26M1715.41 2559.08C1718.03 2558.21 1720.86 2559.64 1721.72 2562.26Z" fill="black"/>
<path fill-rule="evenodd" clip-rule="evenodd" d="M753.355 2958.95H2077.57V2948.95H753.355V2958.95Z" fill="white"/>
<path d="M1367.78 1502.63C1367.78 1523.7 1376.05 1540.78 1386.24 1540.78C1396.44 1540.78 1404.7 1523.7 1404.7 1502.63C1404.7 1481.56 1396.44 1464.48 1386.24 1464.48C1376.05 1464.48 1367.78 1481.56 1367.78 1502.63Z" fill="black"/>
<path d="M1261.94 1502.63C1261.94 1523.7 1270.21 1540.78 1280.4 1540.78C1290.6 1540.78 1298.86 1523.7 1298.86 1502.63C1298.86 1481.56 1290.6 1464.48 1280.4 1464.48C1270.21 1464.48 1261.94 1481.56 1261.94 1502.63Z" fill="black"/>
<path fill-rule="evenodd" clip-rule="evenodd" d="M1386.24 1560.32C1354.38 1560.32 1328.56 1534.49 1328.56 1502.63C1328.56 1470.77 1354.38 1444.94 1386.24 1444.94C1418.1 1444.94 1443.93 1470.77 1443.93 1502.63C1443.93 1534.49 1418.1 1560.32 1386.24 1560.32ZM1386.24 1570.32C1348.86 1570.32 1318.56 1540.01 1318.56 1502.63C1318.56 1465.25 1348.86 1434.94 1386.24 1434.94C1423.63 1434.94 1453.93 1465.25 1453.93 1502.63C1453.93 1540.01 1423.63 1570.32 1386.24 1570.32Z" fill="black"/>
<path d="M1451.47 1455.86L1436.7 1468.17L1425.62 1455.86L1436.7 1441.09L1451.47 1455.86Z" fill="black"/>
<path fill-rule="evenodd" clip-rule="evenodd" d="M1436.16 1433.48L1419.16 1456.15L1436.2 1475.09L1458.88 1456.2L1436.16 1433.48ZM1444.06 1455.53L1437.2 1461.25L1432.09 1455.57L1437.24 1448.71L1444.06 1455.53Z" fill="black"/>
<path d="M1276.71 1669.84C1298.37 1688.55 1357.94 1698.14 1385.01 1700.61C1328.4 1759.68 1254.15 1719.07 1201.64 1706.76C1180.96 1732.36 1060.11 1742.45 999.809 1700.61C1021.96 1704.3 1076.36 1705.04 1116.72 1678.45C1157.09 1651.87 1190.15 1667.38 1201.64 1678.45C1217.64 1667.79 1255.05 1651.13 1276.71 1669.84Z" fill="black"/>
<path fill-rule="evenodd" clip-rule="evenodd" d="M1238.15 1668.01C1251.58 1664.99 1264.38 1665.8 1273.44 1673.62C1279.48 1678.83 1287.85 1683.19 1297.13 1686.84C1306.47 1690.53 1317.03 1693.62 1327.66 1696.18C1343.97 1700.1 1360.66 1702.81 1373.75 1704.42C1348.74 1725.94 1320.7 1729.27 1292.45 1725.49C1276.77 1723.4 1261.11 1719.11 1245.93 1714.51C1242.14 1713.36 1238.35 1712.19 1234.6 1711.02C1223.52 1707.58 1212.75 1704.23 1202.78 1701.89L1199.72 1701.17L1197.75 1703.62C1195.81 1706.02 1192.38 1708.59 1187.31 1711.07C1182.29 1713.52 1175.98 1715.75 1168.62 1717.64C1153.9 1721.41 1135.37 1723.73 1115.52 1723.97C1083.92 1724.36 1049.69 1719.48 1022.45 1707.45C1031.34 1707.59 1041.43 1707.17 1052.06 1705.84C1073.94 1703.11 1098.44 1696.48 1119.47 1682.63C1157.62 1657.51 1188.13 1672.37 1198.17 1682.05L1201.07 1684.85L1204.41 1682.61C1212.03 1677.53 1224.82 1671 1238.15 1668.01ZM1202.11 1672.23C1210.59 1667.05 1222.93 1661.18 1235.96 1658.25C1250.64 1654.95 1267.38 1655.17 1279.98 1666.06C1284.78 1670.2 1291.97 1674.06 1300.8 1677.54C1309.57 1681 1319.65 1683.96 1330 1686.45C1350.71 1691.43 1372.12 1694.41 1385.46 1695.63L1395.81 1696.57L1388.62 1704.07C1358.88 1735.1 1324.36 1739.85 1291.12 1735.41C1274.61 1733.2 1258.32 1728.71 1243.03 1724.08C1239.05 1722.88 1235.15 1721.66 1231.34 1720.48C1221.43 1717.4 1212.09 1714.5 1203.31 1712.31C1200.24 1715.26 1196.24 1717.83 1191.7 1720.05C1185.91 1722.89 1178.92 1725.32 1171.1 1727.32C1155.47 1731.33 1136.13 1733.72 1115.65 1733.97C1074.86 1734.47 1028.35 1726.49 996.958 1704.71L1000.63 1695.67C1011.22 1697.44 1029.88 1698.54 1050.82 1695.92C1071.76 1693.3 1094.64 1687.01 1113.97 1674.28C1153.61 1648.17 1187.22 1660.36 1202.11 1672.23Z" fill="black"/>
</svg>
