<svg width="2500" height="2500" viewBox="0 0 2500 2500" fill="none" xmlns="http://www.w3.org/2000/svg">
<g clip-path="url(#clip0)">
<rect x="5" y="5" width="2490" height="2490" rx="1245" fill="white"/>
<path d="M636 517C636 517 820.555 585.412 862.5 688C903.032 787.132 886.23 870.441 827.5 960C767.52 1051.47 694.781 1096.4 585.5 1101C457.891 1106.38 359.845 1049.37 304 934.5C242.702 808.416 307.93 705.881 374.5 582.5C431.902 476.11 465.103 366.885 585.5 356C698.55 345.779 733.022 454.082 827.5 517C927.702 583.73 1069.3 568.512 1084 688C1095.17 778.779 1013.12 812.064 973.5 894.5C924.661 996.114 941.494 1080.56 862.5 1161C780.327 1244.68 702.772 1278.12 585.5 1277C443.91 1275.64 392.137 1170.02 268.5 1101C170.182 1046.12 81.3203 1052.42 17.0001 960C-82.7416 816.683 0.750618 673.836 77.5001 517C137.602 394.183 194.667 332.114 304 250C417.19 164.989 494.715 113.292 636 104.5C800.987 94.2325 904.886 146.151 1033.5 250C1126.33 324.957 1187.29 377.257 1220 492C1244.25 577.064 1220 630.046 1220 718.5C1220 787.232 1231.82 826.792 1220 894.5C1198.05 1020.17 1152.98 1090.09 1064 1181.5C972.508 1275.5 889.83 1289.86 772 1347.5C662.806 1400.91 605.445 1484.42 485 1468C367.049 1451.92 243.5 1282 243.5 1282" stroke="#FFDFDF" stroke-width="15"/>
<path d="M1775.67 885.331C1771.11 981.063 1665.59 1010.46 1613.39 1013.19C1766.44 1037.67 1876.07 938.151 1911.75 885.331H2402V387H1483L1497.23 879.32L1775.67 885.331Z" fill="black"/>
<path d="M1714.2 601.8C1708.47 601.8 1703.3 600.633 1698.7 598.3C1694.17 595.9 1690.6 592.6 1688 588.4C1685.47 584.2 1684.2 579.433 1684.2 574.1C1684.2 568.767 1685.47 564 1688 559.8C1690.6 555.6 1694.17 552.333 1698.7 550C1703.3 547.6 1708.47 546.4 1714.2 546.4C1719.87 546.4 1724.8 547.6 1729 550C1733.27 552.333 1736.37 555.7 1738.3 560.1L1726.2 566.6C1723.4 561.667 1719.37 559.2 1714.1 559.2C1710.03 559.2 1706.67 560.533 1704 563.2C1701.33 565.867 1700 569.5 1700 574.1C1700 578.7 1701.33 582.333 1704 585C1706.67 587.667 1710.03 589 1714.1 589C1719.43 589 1723.47 586.533 1726.2 581.6L1738.3 588.2C1736.37 592.467 1733.27 595.8 1729 598.2C1724.8 600.6 1719.87 601.8 1714.2 601.8ZM1762.18 554.3C1764.05 551.7 1766.55 549.733 1769.68 548.4C1772.88 547.067 1776.55 546.4 1780.68 546.4V560.8C1778.95 560.667 1777.78 560.6 1777.18 560.6C1772.72 560.6 1769.22 561.867 1766.68 564.4C1764.15 566.867 1762.88 570.6 1762.88 575.6V601H1747.28V547.2H1762.18V554.3ZM1842.17 574.3C1842.17 574.5 1842.07 575.9 1841.87 578.5H1801.17C1801.9 581.833 1803.64 584.467 1806.37 586.4C1809.1 588.333 1812.5 589.3 1816.57 589.3C1819.37 589.3 1821.84 588.9 1823.97 588.1C1826.17 587.233 1828.2 585.9 1830.07 584.1L1838.37 593.1C1833.3 598.9 1825.9 601.8 1816.17 601.8C1810.1 601.8 1804.74 600.633 1800.07 598.3C1795.4 595.9 1791.8 592.6 1789.27 588.4C1786.74 584.2 1785.47 579.433 1785.47 574.1C1785.47 568.833 1786.7 564.1 1789.17 559.9C1791.7 555.633 1795.14 552.333 1799.47 550C1803.87 547.6 1808.77 546.4 1814.17 546.4C1819.44 546.4 1824.2 547.533 1828.47 549.8C1832.74 552.067 1836.07 555.333 1838.47 559.6C1840.94 563.8 1842.17 568.7 1842.17 574.3ZM1814.27 558.2C1810.74 558.2 1807.77 559.2 1805.37 561.2C1802.97 563.2 1801.5 565.933 1800.97 569.4H1827.47C1826.94 566 1825.47 563.3 1823.07 561.3C1820.67 559.233 1817.74 558.2 1814.27 558.2ZM1872.79 546.4C1881.12 546.4 1887.52 548.4 1891.99 552.4C1896.46 556.333 1898.69 562.3 1898.69 570.3V601H1884.09V594.3C1881.16 599.3 1875.69 601.8 1867.69 601.8C1863.56 601.8 1859.96 601.1 1856.89 599.7C1853.89 598.3 1851.59 596.367 1849.99 593.9C1848.39 591.433 1847.59 588.633 1847.59 585.5C1847.59 580.5 1849.46 576.567 1853.19 573.7C1856.99 570.833 1862.82 569.4 1870.69 569.4H1883.09C1883.09 566 1882.06 563.4 1879.99 561.6C1877.92 559.733 1874.82 558.8 1870.69 558.8C1867.82 558.8 1864.99 559.267 1862.19 560.2C1859.46 561.067 1857.12 562.267 1855.19 563.8L1849.59 552.9C1852.52 550.833 1856.02 549.233 1860.09 548.1C1864.22 546.967 1868.46 546.4 1872.79 546.4ZM1871.59 591.3C1874.26 591.3 1876.62 590.7 1878.69 589.5C1880.76 588.233 1882.22 586.4 1883.09 584V578.5H1872.39C1865.99 578.5 1862.79 580.6 1862.79 584.8C1862.79 586.8 1863.56 588.4 1865.09 589.6C1866.69 590.733 1868.86 591.3 1871.59 591.3ZM1947.51 598.4C1945.98 599.533 1944.08 600.4 1941.81 601C1939.61 601.533 1937.28 601.8 1934.81 601.8C1928.41 601.8 1923.44 600.167 1919.91 596.9C1916.44 593.633 1914.71 588.833 1914.71 582.5V560.4H1906.41V548.4H1914.71V535.3H1930.31V548.4H1943.71V560.4H1930.31V582.3C1930.31 584.567 1930.88 586.333 1932.01 587.6C1933.21 588.8 1934.88 589.4 1937.01 589.4C1939.48 589.4 1941.58 588.733 1943.31 587.4L1947.51 598.4ZM2007.31 574.3C2007.31 574.5 2007.21 575.9 2007.01 578.5H1966.31C1967.04 581.833 1968.77 584.467 1971.51 586.4C1974.24 588.333 1977.64 589.3 1981.71 589.3C1984.51 589.3 1986.97 588.9 1989.11 588.1C1991.31 587.233 1993.34 585.9 1995.21 584.1L2003.51 593.1C1998.44 598.9 1991.04 601.8 1981.31 601.8C1975.24 601.8 1969.87 600.633 1965.21 598.3C1960.54 595.9 1956.94 592.6 1954.41 588.4C1951.87 584.2 1950.61 579.433 1950.61 574.1C1950.61 568.833 1951.84 564.1 1954.31 559.9C1956.84 555.633 1960.27 552.333 1964.61 550C1969.01 547.6 1973.91 546.4 1979.31 546.4C1984.57 546.4 1989.34 547.533 1993.61 549.8C1997.87 552.067 2001.21 555.333 2003.61 559.6C2006.07 563.8 2007.31 568.7 2007.31 574.3ZM1979.41 558.2C1975.87 558.2 1972.91 559.2 1970.51 561.2C1968.11 563.2 1966.64 565.933 1966.11 569.4H1992.61C1992.07 566 1990.61 563.3 1988.21 561.3C1985.81 559.233 1982.87 558.2 1979.41 558.2ZM2099.41 547.2L2075.11 604.3C2072.65 610.5 2069.58 614.867 2065.91 617.4C2062.31 619.933 2057.95 621.2 2052.81 621.2C2050.01 621.2 2047.25 620.767 2044.51 619.9C2041.78 619.033 2039.55 617.833 2037.81 616.3L2043.51 605.2C2044.71 606.267 2046.08 607.1 2047.61 607.7C2049.21 608.3 2050.78 608.6 2052.31 608.6C2054.45 608.6 2056.18 608.067 2057.51 607C2058.85 606 2060.05 604.3 2061.11 601.9L2061.31 601.4L2038.01 547.2H2054.11L2069.21 583.7L2084.41 547.2H2099.41ZM2129.91 601.8C2124.25 601.8 2119.15 600.633 2114.61 598.3C2110.15 595.9 2106.65 592.6 2104.11 588.4C2101.58 584.2 2100.31 579.433 2100.31 574.1C2100.31 568.767 2101.58 564 2104.11 559.8C2106.65 555.6 2110.15 552.333 2114.61 550C2119.15 547.6 2124.25 546.4 2129.91 546.4C2135.58 546.4 2140.65 547.6 2145.11 550C2149.58 552.333 2153.08 555.6 2155.61 559.8C2158.15 564 2159.41 568.767 2159.41 574.1C2159.41 579.433 2158.15 584.2 2155.61 588.4C2153.08 592.6 2149.58 595.9 2145.11 598.3C2140.65 600.633 2135.58 601.8 2129.91 601.8ZM2129.91 589C2133.91 589 2137.18 587.667 2139.71 585C2142.31 582.267 2143.61 578.633 2143.61 574.1C2143.61 569.567 2142.31 565.967 2139.71 563.3C2137.18 560.567 2133.91 559.2 2129.91 559.2C2125.91 559.2 2122.61 560.567 2120.01 563.3C2117.41 565.967 2116.11 569.567 2116.11 574.1C2116.11 578.633 2117.41 582.267 2120.01 585C2122.61 587.667 2125.91 589 2129.91 589ZM2224.04 547.2V601H2209.24V594.6C2207.17 596.933 2204.71 598.733 2201.84 600C2198.97 601.2 2195.87 601.8 2192.54 601.8C2185.47 601.8 2179.87 599.767 2175.74 595.7C2171.61 591.633 2169.54 585.6 2169.54 577.6V547.2H2185.14V575.3C2185.14 583.967 2188.77 588.3 2196.04 588.3C2199.77 588.3 2202.77 587.1 2205.04 584.7C2207.31 582.233 2208.44 578.6 2208.44 573.8V547.2H2224.04ZM2253.39 554.3C2255.26 551.7 2257.76 549.733 2260.89 548.4C2264.09 547.067 2267.76 546.4 2271.89 546.4V560.8C2270.16 560.667 2268.99 560.6 2268.39 560.6C2263.93 560.6 2260.43 561.867 2257.89 564.4C2255.36 566.867 2254.09 570.6 2254.09 575.6V601H2238.49V547.2H2253.39V554.3ZM1705.3 670.4H1719.1V682.4H1705.7V723H1690.1V682.4H1681.8V670.4H1690.1V668C1690.1 661.867 1691.9 657 1695.5 653.4C1699.17 649.8 1704.3 648 1710.9 648C1713.23 648 1715.43 648.267 1717.5 648.8C1719.63 649.267 1721.4 649.967 1722.8 650.9L1718.7 662.2C1716.9 660.933 1714.8 660.3 1712.4 660.3C1707.67 660.3 1705.3 662.9 1705.3 668.1V670.4ZM1734.9 669.2H1750.5V723H1734.9V669.2ZM1742.7 661.7C1739.83 661.7 1737.5 660.867 1735.7 659.2C1733.9 657.533 1733 655.467 1733 653C1733 650.533 1733.9 648.467 1735.7 646.8C1737.5 645.133 1739.83 644.3 1742.7 644.3C1745.57 644.3 1747.9 645.1 1749.7 646.7C1751.5 648.3 1752.4 650.3 1752.4 652.7C1752.4 655.3 1751.5 657.467 1749.7 659.2C1747.9 660.867 1745.57 661.7 1742.7 661.7ZM1779.86 676.3C1781.72 673.7 1784.22 671.733 1787.36 670.4C1790.56 669.067 1794.22 668.4 1798.36 668.4V682.8C1796.62 682.667 1795.46 682.6 1794.86 682.6C1790.39 682.6 1786.89 683.867 1784.36 686.4C1781.82 688.867 1780.56 692.6 1780.56 697.6V723H1764.96V669.2H1779.86V676.3ZM1825.93 723.8C1821.46 723.8 1817.1 723.267 1812.83 722.2C1808.56 721.067 1805.16 719.667 1802.63 718L1807.83 706.8C1810.23 708.333 1813.13 709.6 1816.53 710.6C1819.93 711.533 1823.26 712 1826.53 712C1833.13 712 1836.43 710.367 1836.43 707.1C1836.43 705.567 1835.53 704.467 1833.73 703.8C1831.93 703.133 1829.16 702.567 1825.43 702.1C1821.03 701.433 1817.4 700.667 1814.53 699.8C1811.66 698.933 1809.16 697.4 1807.03 695.2C1804.96 693 1803.93 689.867 1803.93 685.8C1803.93 682.4 1804.9 679.4 1806.83 676.8C1808.83 674.133 1811.7 672.067 1815.43 670.6C1819.23 669.133 1823.7 668.4 1828.83 668.4C1832.63 668.4 1836.4 668.833 1840.13 669.7C1843.93 670.5 1847.06 671.633 1849.53 673.1L1844.33 684.2C1839.6 681.533 1834.43 680.2 1828.83 680.2C1825.5 680.2 1823 680.667 1821.33 681.6C1819.66 682.533 1818.83 683.733 1818.83 685.2C1818.83 686.867 1819.73 688.033 1821.53 688.7C1823.33 689.367 1826.2 690 1830.13 690.6C1834.53 691.333 1838.13 692.133 1840.93 693C1843.73 693.8 1846.16 695.3 1848.23 697.5C1850.3 699.7 1851.33 702.767 1851.33 706.7C1851.33 710.033 1850.33 713 1848.33 715.6C1846.33 718.2 1843.4 720.233 1839.53 721.7C1835.73 723.1 1831.2 723.8 1825.93 723.8ZM1895.65 720.4C1894.12 721.533 1892.22 722.4 1889.95 723C1887.75 723.533 1885.42 723.8 1882.95 723.8C1876.55 723.8 1871.59 722.167 1868.05 718.9C1864.59 715.633 1862.85 710.833 1862.85 704.5V682.4H1854.55V670.4H1862.85V657.3H1878.45V670.4H1891.85V682.4H1878.45V704.3C1878.45 706.567 1879.02 708.333 1880.15 709.6C1881.35 710.8 1883.02 711.4 1885.15 711.4C1887.62 711.4 1889.72 710.733 1891.45 709.4L1895.65 720.4ZM1964.53 668.4C1969.53 668.4 1974.06 669.567 1978.13 671.9C1982.26 674.167 1985.5 677.4 1987.83 681.6C1990.16 685.733 1991.33 690.567 1991.33 696.1C1991.33 701.633 1990.16 706.5 1987.83 710.7C1985.5 714.833 1982.26 718.067 1978.13 720.4C1974.06 722.667 1969.53 723.8 1964.53 723.8C1957.66 723.8 1952.26 721.633 1948.33 717.3V742.4H1932.73V669.2H1947.63V675.4C1951.5 670.733 1957.13 668.4 1964.53 668.4ZM1961.83 711C1965.83 711 1969.1 709.667 1971.63 707C1974.23 704.267 1975.53 700.633 1975.53 696.1C1975.53 691.567 1974.23 687.967 1971.63 685.3C1969.1 682.567 1965.83 681.2 1961.83 681.2C1957.83 681.2 1954.53 682.567 1951.93 685.3C1949.4 687.967 1948.13 691.567 1948.13 696.1C1948.13 700.633 1949.4 704.267 1951.93 707C1954.53 709.667 1957.83 711 1961.83 711ZM2027.37 723.8C2021.71 723.8 2016.61 722.633 2012.07 720.3C2007.61 717.9 2004.11 714.6 2001.57 710.4C1999.04 706.2 1997.77 701.433 1997.77 696.1C1997.77 690.767 1999.04 686 2001.57 681.8C2004.11 677.6 2007.61 674.333 2012.07 672C2016.61 669.6 2021.71 668.4 2027.37 668.4C2033.04 668.4 2038.11 669.6 2042.57 672C2047.04 674.333 2050.54 677.6 2053.07 681.8C2055.61 686 2056.87 690.767 2056.87 696.1C2056.87 701.433 2055.61 706.2 2053.07 710.4C2050.54 714.6 2047.04 717.9 2042.57 720.3C2038.11 722.633 2033.04 723.8 2027.37 723.8ZM2027.37 711C2031.37 711 2034.64 709.667 2037.17 707C2039.77 704.267 2041.07 700.633 2041.07 696.1C2041.07 691.567 2039.77 687.967 2037.17 685.3C2034.64 682.567 2031.37 681.2 2027.37 681.2C2023.37 681.2 2020.07 682.567 2017.47 685.3C2014.87 687.967 2013.57 691.567 2013.57 696.1C2013.57 700.633 2014.87 704.267 2017.47 707C2020.07 709.667 2023.37 711 2027.37 711ZM2085.4 723.8C2080.93 723.8 2076.57 723.267 2072.3 722.2C2068.03 721.067 2064.63 719.667 2062.1 718L2067.3 706.8C2069.7 708.333 2072.6 709.6 2076 710.6C2079.4 711.533 2082.73 712 2086 712C2092.6 712 2095.9 710.367 2095.9 707.1C2095.9 705.567 2095 704.467 2093.2 703.8C2091.4 703.133 2088.63 702.567 2084.9 702.1C2080.5 701.433 2076.87 700.667 2074 699.8C2071.13 698.933 2068.63 697.4 2066.5 695.2C2064.43 693 2063.4 689.867 2063.4 685.8C2063.4 682.4 2064.37 679.4 2066.3 676.8C2068.3 674.133 2071.17 672.067 2074.9 670.6C2078.7 669.133 2083.17 668.4 2088.3 668.4C2092.1 668.4 2095.87 668.833 2099.6 669.7C2103.4 670.5 2106.53 671.633 2109 673.1L2103.8 684.2C2099.07 681.533 2093.9 680.2 2088.3 680.2C2084.97 680.2 2082.47 680.667 2080.8 681.6C2079.13 682.533 2078.3 683.733 2078.3 685.2C2078.3 686.867 2079.2 688.033 2081 688.7C2082.8 689.367 2085.67 690 2089.6 690.6C2094 691.333 2097.6 692.133 2100.4 693C2103.2 693.8 2105.63 695.3 2107.7 697.5C2109.77 699.7 2110.8 702.767 2110.8 706.7C2110.8 710.033 2109.8 713 2107.8 715.6C2105.8 718.2 2102.87 720.233 2099 721.7C2095.2 723.1 2090.67 723.8 2085.4 723.8ZM2155.13 720.4C2153.59 721.533 2151.69 722.4 2149.43 723C2147.23 723.533 2144.89 723.8 2142.43 723.8C2136.03 723.8 2131.06 722.167 2127.53 718.9C2124.06 715.633 2122.33 710.833 2122.33 704.5V682.4H2114.03V670.4H2122.33V657.3H2137.93V670.4H2151.33V682.4H2137.93V704.3C2137.93 706.567 2138.49 708.333 2139.63 709.6C2140.83 710.8 2142.49 711.4 2144.63 711.4C2147.09 711.4 2149.19 710.733 2150.93 709.4L2155.13 720.4ZM2170.76 723.8C2168.03 723.8 2165.73 722.867 2163.86 721C2161.99 719.133 2161.06 716.8 2161.06 714C2161.06 711.133 2161.99 708.833 2163.86 707.1C2165.73 705.3 2168.03 704.4 2170.76 704.4C2173.49 704.4 2175.79 705.3 2177.66 707.1C2179.53 708.833 2180.46 711.133 2180.46 714C2180.46 716.8 2179.53 719.133 2177.66 721C2175.79 722.867 2173.49 723.8 2170.76 723.8Z" fill="white"/>
<path d="M1538.33 1791.21C1538.33 1793.15 1537.21 1794.91 1535.45 1795.74L1533.33 1791.21C1535.45 1795.74 1535.45 1795.74 1535.45 1795.74L1535.44 1795.74L1535.42 1795.75L1535.32 1795.8C1535.23 1795.84 1535.11 1795.9 1534.94 1795.97C1534.61 1796.13 1534.12 1796.35 1533.48 1796.65C1532.19 1797.24 1530.28 1798.12 1527.83 1799.23C1522.91 1801.46 1515.77 1804.65 1506.85 1808.54C1489.02 1816.31 1464.07 1826.84 1435.61 1837.87C1378.8 1859.88 1307.58 1884.06 1250.98 1892.15C1193.12 1900.42 1143.17 1875.58 1108.05 1849.2C1090.45 1835.98 1076.42 1822.26 1066.79 1811.85C1061.97 1806.64 1058.25 1802.25 1055.72 1799.15C1054.45 1797.6 1053.48 1796.37 1052.83 1795.52C1052.5 1795.09 1052.25 1794.77 1052.08 1794.54C1051.99 1794.42 1051.92 1794.34 1051.88 1794.28L1051.82 1794.2L1051.81 1794.18L1051.8 1794.18C1051.8 1794.17 1051.8 1794.17 1055.83 1791.21L1051.8 1794.17C1051.17 1793.31 1050.83 1792.27 1050.83 1791.21V1350.7H933.078C931.294 1350.7 929.646 1349.75 928.752 1348.21C927.857 1346.67 927.853 1344.76 928.739 1343.22L1090.55 1060.72C1090.64 1060.4 1090.76 1059.96 1090.91 1059.4C1091.27 1058.14 1091.8 1056.3 1092.52 1053.96C1093.95 1049.29 1096.12 1042.62 1099.07 1034.58C1104.97 1018.53 1114.01 996.955 1126.61 974.956C1151.64 931.243 1191.51 884.453 1249.72 877.995C1382.25 863.294 1493.05 935.634 1538.04 1060.96C1550.6 1095.95 1550.5 1143.02 1547.45 1180.79C1545.91 1199.78 1543.61 1216.63 1541.7 1228.73C1540.96 1233.34 1540.29 1237.27 1539.73 1240.37C1544.12 1239.56 1549.41 1239.01 1555.11 1238.8C1565.42 1238.43 1577.7 1239.17 1589.57 1242.01C1601.39 1244.83 1613.15 1249.81 1622.03 1258.18C1631.04 1266.69 1636.79 1278.44 1636.79 1294.01C1636.79 1311.07 1633.08 1324.78 1626.61 1335.89C1620.15 1346.99 1611.1 1355.19 1600.87 1361.49C1583.8 1372.02 1562.83 1377.53 1544.4 1382.38C1542.34 1382.92 1540.32 1383.46 1538.33 1383.99V1791.21ZM933.078 1340.7H935.941L1050.83 1345.7H938.84L937.416 1348.19L933.078 1345.7V1340.7Z" fill="white" stroke="black" stroke-width="10" stroke-linecap="round" stroke-linejoin="round"/>
<path d="M1502.56 1278.01L1529.64 1253.4L1556.71 1244.79C1556.71 1244.79 1661.16 998.512 1556.71 951.883C1536.81 942.997 1523.31 945.029 1502.56 938.346C1428.42 914.46 1408.99 849.618 1332.73 833.738C1190.46 804.111 929.118 859.662 985.679 998.649C1033.11 1115.2 1182.59 1074.95 1301.96 1060.18C1370.97 1051.65 1477.95 1033.11 1477.95 1033.11L1473.03 1305.09L1502.56 1278.01Z" fill="black"/>
<path d="M1578.87 1298.93C1578.87 1298.93 1558.96 1293.79 1548.1 1298.93C1536.97 1304.2 1528.41 1323.55 1528.41 1323.55" stroke="black" stroke-width="10" stroke-linecap="round" stroke-linejoin="round"/>
<path d="M1576.41 1732.13C1561.14 1732.19 1550.57 1738 1541.95 1750.59C1531.35 1766.06 1541.95 1789.98 1541.95 1789.98C1541.95 1789.98 1369.65 1896.14 1213.35 1896.14C1134.79 1896.14 1047.21 1798.59 1047.21 1798.59C1047.21 1798.59 1058.61 1768.46 1047.21 1756.75C1037.68 1746.95 1026.35 1749.21 1012.75 1750.59C998.814 1752.01 990.198 1755.05 979.526 1764.13C953.536 1786.24 979.526 1851.51 979.526 1851.51C979.526 1851.51 1006.65 1917.51 1036.14 1951.2C1087.84 2010.24 1135.98 2032.82 1213.35 2045.96C1308.29 2062.08 1366.35 2030.64 1453.34 1989.35C1519.82 1957.79 1579.11 1949.79 1608.4 1882.28C1627.94 1837.25 1647.61 1793.03 1614.56 1756.75C1602.62 1743.64 1594.14 1732.07 1576.41 1732.13Z" fill="white" stroke="black" stroke-width="10"/>
<path d="M1548.1 1788.75C1548.1 1788.75 1562.45 1771.14 1575.14 1771.52C1579.19 1771.65 1580.1 1774.91 1580.1 1774.91" stroke="black" stroke-width="10" stroke-linecap="round" stroke-linejoin="round"/>
<path d="M1045.98 1801.05C1045.98 1801.05 1033.84 1783.44 1023.1 1783.83C1019.67 1783.95 1018.91 1787.22 1018.91 1787.22" stroke="black" stroke-width="10" stroke-linecap="round" stroke-linejoin="round"/>
<path d="M1621.19 1852.91C1622.3 1850.76 1624.78 1849.72 1627.09 1850.42L1625.63 1855.2C1627.09 1850.42 1627.09 1850.42 1627.09 1850.42L1627.1 1850.42L1627.13 1850.43L1627.25 1850.47C1627.36 1850.5 1627.51 1850.55 1627.72 1850.61C1628.13 1850.74 1628.73 1850.93 1629.51 1851.18C1631.09 1851.67 1633.4 1852.42 1636.36 1853.39C1642.3 1855.35 1650.87 1858.26 1661.42 1862.06C1682.51 1869.68 1711.57 1880.9 1743.41 1895.34C1806.91 1924.12 1882.22 1966.02 1927.24 2018.07C1966.97 2064.02 1989.21 2125.51 2000.4 2191.43C2011.59 2257.39 2011.79 2328.19 2007.12 2393.17C2002.45 2458.17 1992.9 2517.5 1984.52 2560.57C1980.33 2582.11 1976.43 2599.6 1973.58 2611.71C1972.15 2617.76 1970.98 2622.47 1970.17 2625.68C1969.77 2627.28 1969.45 2628.5 1969.23 2629.33C1969.12 2629.74 1969.04 2630.06 1968.99 2630.27L1968.92 2630.51L1968.9 2630.57L1968.9 2630.59C1968.9 2630.6 1968.9 2630.6 1964.07 2629.3L1968.9 2630.6C1968.31 2632.78 1966.33 2634.3 1964.07 2634.3H639.857C637.557 2634.3 635.554 2632.73 635.003 2630.5L639.857 2629.3C635.003 2630.5 635.002 2630.5 635.001 2630.49L634.997 2630.47L634.982 2630.41L634.925 2630.18C634.874 2629.97 634.8 2629.66 634.703 2629.26C634.509 2628.45 634.225 2627.25 633.862 2625.68C633.136 2622.55 632.091 2617.94 630.815 2612C628.261 2600.14 624.778 2582.99 621.051 2561.83C613.599 2519.51 605.161 2461.1 601.233 2396.71C597.306 2332.34 597.877 2261.88 608.505 2195.51C619.125 2129.19 639.845 2066.61 676.487 2018.32C718.631 1962.78 791.999 1912.84 854.319 1876.93C885.565 1858.92 914.2 1844.35 935.024 1834.28C945.438 1829.25 953.904 1825.33 959.773 1822.68C962.708 1821.35 964.993 1820.33 966.548 1819.65C967.326 1819.31 967.921 1819.05 968.324 1818.88C968.525 1818.79 968.678 1818.72 968.782 1818.68L968.9 1818.63L968.931 1818.61L968.94 1818.61C968.942 1818.61 968.943 1818.61 970.91 1823.2L968.943 1818.61C970.199 1818.07 971.62 1818.07 972.875 1818.61C974.131 1819.14 975.113 1820.17 975.592 1821.45L975.593 1821.45L975.599 1821.47L975.623 1821.53C975.645 1821.59 975.678 1821.68 975.723 1821.79C975.813 1822.03 975.95 1822.39 976.131 1822.86C976.495 1823.79 977.039 1825.18 977.757 1826.97C979.194 1830.54 981.325 1835.71 984.095 1842.07C989.636 1854.8 997.72 1872.24 1007.89 1891.14C1028.34 1929.15 1056.8 1972.23 1089.46 1995.1C1121.91 2017.81 1151.2 2031.54 1182.1 2038.79C1213.04 2046.05 1245.88 2046.89 1285.53 2043.44C1318.75 2040.55 1342.11 2030.94 1365.24 2018.91C1371.25 2015.79 1377.29 2012.47 1383.51 2009.05C1401.16 1999.36 1420.26 1988.88 1444.17 1979.75C1461.49 1973.15 1477.79 1969.72 1492.76 1966.58C1498.87 1965.29 1504.76 1964.05 1510.4 1962.67C1530.05 1957.83 1547.88 1951.03 1565.56 1934.05C1578.96 1921.18 1592.84 1901.02 1603.49 1883.8C1608.78 1875.24 1613.21 1867.5 1616.32 1861.91C1617.88 1859.11 1619.1 1856.85 1619.93 1855.3C1620.34 1854.52 1620.66 1853.92 1620.88 1853.51C1620.98 1853.31 1621.06 1853.15 1621.11 1853.05L1621.17 1852.94L1621.19 1852.91L1621.19 1852.91L1621.19 1852.91Z" fill="white" stroke="black" stroke-width="10" stroke-linecap="round" stroke-linejoin="round"/>
<path d="M1649.02 2630.53L1647.78 2303.17" stroke="black" stroke-width="10"/>
<path d="M755.541 2632.99L808.46 2310.55" stroke="black" stroke-width="10"/>
<path d="M807.23 2317.94L810.602 2321.63L805.988 2325.84L802.889 2320.42L807.23 2317.94ZM788.12 2294.57C786.75 2292.18 787.583 2289.12 789.981 2287.75C792.379 2286.38 795.433 2287.22 796.803 2289.61L788.12 2294.57ZM820.767 2303.17L816.646 2300.34L820.767 2303.17ZM825.895 2280.59C826.81 2277.99 829.664 2276.62 832.27 2277.53C834.875 2278.45 836.245 2281.3 835.33 2283.91L825.895 2280.59ZM802.889 2320.42L788.12 2294.57L796.803 2289.61L811.571 2315.46L802.889 2320.42ZM807.23 2317.94C803.858 2314.25 803.858 2314.25 803.858 2314.25C803.858 2314.25 803.857 2314.25 803.857 2314.25C803.857 2314.25 803.857 2314.25 803.858 2314.25C803.858 2314.25 803.859 2314.25 803.86 2314.24C803.863 2314.24 803.868 2314.24 803.876 2314.23C803.89 2314.22 803.913 2314.2 803.944 2314.17C804.006 2314.11 804.1 2314.02 804.222 2313.91C804.466 2313.68 804.825 2313.35 805.271 2312.92C806.164 2312.07 807.4 2310.87 808.768 2309.47C811.563 2306.62 814.69 2303.19 816.646 2300.34L824.889 2306C822.415 2309.6 818.774 2313.55 815.907 2316.47C814.445 2317.96 813.127 2319.25 812.174 2320.16C811.696 2320.61 811.309 2320.97 811.038 2321.23C810.903 2321.35 810.796 2321.45 810.722 2321.52C810.686 2321.55 810.657 2321.58 810.637 2321.6C810.626 2321.61 810.618 2321.61 810.613 2321.62C810.61 2321.62 810.607 2321.63 810.606 2321.63C810.605 2321.63 810.604 2321.63 810.603 2321.63C810.603 2321.63 810.603 2321.63 810.602 2321.63C810.602 2321.63 810.602 2321.63 807.23 2317.94ZM816.646 2300.34C818.902 2297.05 821.204 2292.21 823.003 2287.97C823.884 2285.89 824.612 2284.03 825.119 2282.7C825.372 2282.03 825.568 2281.5 825.701 2281.13C825.767 2280.95 825.817 2280.81 825.85 2280.72C825.866 2280.67 825.878 2280.64 825.886 2280.62C825.89 2280.61 825.892 2280.6 825.894 2280.6C825.895 2280.59 825.895 2280.59 825.895 2280.59C825.896 2280.59 825.896 2280.59 825.896 2280.59C825.896 2280.59 825.895 2280.59 825.895 2280.59C825.895 2280.59 825.895 2280.59 830.613 2282.25C835.33 2283.91 835.33 2283.91 835.33 2283.91C835.33 2283.91 835.33 2283.91 835.33 2283.91C835.329 2283.91 835.329 2283.91 835.328 2283.91C835.327 2283.91 835.326 2283.92 835.325 2283.92C835.322 2283.93 835.318 2283.94 835.312 2283.96C835.302 2283.99 835.286 2284.03 835.267 2284.08C835.228 2284.19 835.171 2284.35 835.098 2284.55C834.952 2284.95 834.739 2285.53 834.468 2286.24C833.927 2287.67 833.152 2289.65 832.211 2291.87C830.365 2296.22 827.745 2301.84 824.889 2306L816.646 2300.34Z" fill="black"/>
<path d="M1647.78 2306.86L1652.68 2307.88L1651.08 2315.6L1644.78 2310.86L1647.78 2306.86ZM1650.27 2270.16C1650.83 2267.46 1653.48 2265.72 1656.18 2266.28C1658.89 2266.84 1660.62 2269.48 1660.07 2272.19L1650.27 2270.16ZM1619.48 2279.79L1623.55 2276.89L1623.55 2276.89L1619.48 2279.79ZM1598.73 2246.9C1597.87 2244.28 1599.29 2241.45 1601.91 2240.58C1604.53 2239.71 1607.36 2241.14 1608.23 2243.76L1598.73 2246.9ZM1642.89 2305.85L1650.27 2270.16L1660.07 2272.19L1652.68 2307.88L1642.89 2305.85ZM1647.78 2306.86C1644.78 2310.86 1644.78 2310.86 1644.78 2310.86C1644.78 2310.86 1644.78 2310.86 1644.78 2310.86C1644.78 2310.86 1644.78 2310.86 1644.77 2310.85C1644.77 2310.85 1644.77 2310.85 1644.76 2310.84C1644.75 2310.84 1644.73 2310.82 1644.71 2310.81C1644.67 2310.78 1644.61 2310.73 1644.54 2310.67C1644.38 2310.56 1644.16 2310.39 1643.88 2310.17C1643.31 2309.73 1642.49 2309.09 1641.49 2308.29C1639.49 2306.69 1636.72 2304.43 1633.67 2301.77C1627.65 2296.51 1620.2 2289.42 1615.4 2282.69L1623.55 2276.89C1627.63 2282.62 1634.33 2289.07 1640.25 2294.23C1643.16 2296.78 1645.81 2298.95 1647.73 2300.48C1648.68 2301.24 1649.46 2301.84 1649.99 2302.25C1650.25 2302.46 1650.46 2302.61 1650.59 2302.72C1650.66 2302.77 1650.71 2302.81 1650.74 2302.83C1650.76 2302.84 1650.77 2302.85 1650.78 2302.86C1650.78 2302.86 1650.79 2302.86 1650.79 2302.86C1650.79 2302.87 1650.79 2302.87 1650.79 2302.87C1650.79 2302.87 1650.79 2302.87 1650.79 2302.87C1650.79 2302.87 1650.79 2302.87 1647.78 2306.86ZM1615.4 2282.69C1610.76 2276.15 1606.58 2267.09 1603.63 2259.93C1602.14 2256.29 1600.92 2253.05 1600.07 2250.72C1599.65 2249.55 1599.31 2248.6 1599.09 2247.94C1598.98 2247.61 1598.89 2247.36 1598.83 2247.18C1598.8 2247.09 1598.78 2247.02 1598.76 2246.98C1598.75 2246.95 1598.75 2246.93 1598.74 2246.92C1598.74 2246.91 1598.74 2246.91 1598.74 2246.91C1598.74 2246.9 1598.73 2246.9 1598.73 2246.9C1598.73 2246.9 1598.73 2246.9 1598.73 2246.9C1598.73 2246.9 1598.73 2246.9 1603.48 2245.33C1608.23 2243.76 1608.23 2243.76 1608.23 2243.76C1608.23 2243.76 1608.23 2243.76 1608.23 2243.76C1608.23 2243.76 1608.23 2243.76 1608.23 2243.76C1608.23 2243.76 1608.23 2243.76 1608.23 2243.77C1608.23 2243.78 1608.24 2243.79 1608.24 2243.81C1608.26 2243.85 1608.28 2243.9 1608.3 2243.98C1608.36 2244.14 1608.44 2244.38 1608.54 2244.68C1608.75 2245.3 1609.07 2246.19 1609.47 2247.31C1610.28 2249.54 1611.45 2252.65 1612.88 2256.12C1615.78 2263.16 1619.6 2271.33 1623.55 2276.89L1615.4 2282.69Z" fill="black"/>
<ellipse rx="18.4602" ry="38.1511" transform="matrix(-1 0 0 1 1272.74 1184.13)" fill="black"/>
<ellipse rx="18.4602" ry="38.1511" transform="matrix(-1 0 0 1 1166.91 1184.13)" fill="black"/>
<circle r="62.6874" transform="matrix(-1 0 0 1 1272.75 1184.13)" stroke="black" stroke-width="10"/>
<path d="M1337.97 1137.36L1323.2 1149.67L1312.13 1137.36L1323.2 1122.59L1337.97 1137.36Z" fill="black" stroke="black" stroke-width="10"/>
<path d="M1163.21 1351.34C1184.87 1370.05 1244.44 1379.64 1271.51 1382.11C1214.9 1441.18 1140.65 1400.57 1088.14 1388.26C1067.47 1413.86 946.615 1423.95 886.311 1382.11C908.463 1385.8 962.859 1386.54 1003.23 1359.95C1043.59 1333.37 1076.66 1348.88 1088.14 1359.95C1104.14 1349.29 1141.55 1332.63 1163.21 1351.34Z" fill="black" stroke="black" stroke-width="10"/>
<circle cx="581" cy="769" r="201" fill="#FFDFDF"/>
<path d="M581 702V836" stroke="#FF3636" stroke-width="25" stroke-linecap="round" stroke-linejoin="round"/>
<path d="M514.003 769H648.003" stroke="#FF3636" stroke-width="25" stroke-linecap="round" stroke-linejoin="round"/>
</g>
<rect x="5" y="5" width="2490" height="2490" rx="1245" stroke="black" stroke-width="10"/>
<defs>
<clipPath id="clip0">
</clipPath>
</defs>
</svg>
