<svg width="2972" height="892" viewBox="0 0 2972 892" fill="none" xmlns="http://www.w3.org/2000/svg">
<path d="M211.539 332.884C269.89 207.749 418.635 153.61 543.77 211.962L279.634 778.404C250.458 840.972 176.086 868.041 113.518 838.865C50.9507 809.69 23.8813 735.317 53.057 672.75L211.539 332.884Z" fill="#FF6767"/>
<path d="M656.231 558.808C597.88 683.943 449.135 738.082 324 679.731L588.136 113.288C617.312 50.721 691.685 23.6516 754.252 52.8273C816.82 82.003 843.889 156.376 814.713 218.943L656.231 558.808Z" fill="url(#paint0_linear)"/>
<path d="M986 736C958.667 736 933.833 731.5 911.5 722.5C889.5 713.833 871.333 701 857 684L920.5 609C929.833 620.667 939 629.333 948 635C957 640.667 966.333 643.5 976 643.5C988.333 643.5 997.667 639.833 1004 632.5C1010.67 625.167 1014 614.333 1014 600V417H895V328H1130.5V593C1130.5 640.667 1118.17 676.333 1093.5 700C1069.17 724 1033.33 736 986 736ZM1325.61 683C1295.28 683 1267.94 677 1243.61 665C1219.61 652.667 1200.78 635.833 1187.11 614.5C1173.44 592.833 1166.61 568.333 1166.61 541C1166.61 513.667 1173.44 489.333 1187.11 468C1200.78 446.333 1219.61 429.5 1243.61 417.5C1267.94 405.5 1295.28 399.5 1325.61 399.5C1356.28 399.5 1383.61 405.5 1407.61 417.5C1431.94 429.5 1450.78 446.333 1464.11 468C1477.78 489.333 1484.61 513.667 1484.61 541C1484.61 568.333 1477.78 592.833 1464.11 614.5C1450.78 635.833 1431.94 652.667 1407.61 665C1383.61 677 1356.28 683 1325.61 683ZM1325.61 595C1338.61 595 1349.28 590.333 1357.61 581C1365.94 571.333 1370.11 558 1370.11 541C1370.11 524 1365.94 510.833 1357.61 501.5C1349.28 492.167 1338.61 487.5 1325.61 487.5C1312.61 487.5 1301.94 492.167 1293.61 501.5C1285.28 510.833 1281.11 524 1281.11 541C1281.11 558 1285.28 571.333 1293.61 581C1301.94 590.333 1312.61 595 1325.61 595ZM1818.98 404.5V678H1711.48V652C1701.48 662.333 1689.81 670.167 1676.48 675.5C1663.14 680.5 1648.98 683 1633.98 683C1599.31 683 1571.48 672.5 1550.48 651.5C1529.48 630.167 1518.98 598.167 1518.98 555.5V404.5H1631.98V536C1631.98 554.667 1634.98 568 1640.98 576C1646.98 584 1655.81 588 1667.48 588C1678.48 588 1687.64 583.667 1694.98 575C1702.31 566 1705.98 552 1705.98 533V404.5H1818.98ZM1976.6 434C1996.6 411 2026.1 399.5 2065.1 399.5V499.5C2056.1 498.167 2047.76 497.5 2040.1 497.5C2001.43 497.5 1982.1 517.167 1982.1 556.5V678H1869.1V404.5H1976.6V434ZM2287.13 399.5C2320.79 399.5 2347.79 409.667 2368.13 430C2388.79 450.333 2399.13 481 2399.13 522V678H2286.13V541.5C2286.13 510.167 2274.96 494.5 2252.63 494.5C2239.96 494.5 2229.63 499 2221.63 508C2213.96 516.667 2210.13 530.5 2210.13 549.5V678H2097.13V404.5H2204.63V431.5C2215.29 420.833 2227.63 412.833 2241.63 407.5C2255.63 402.167 2270.79 399.5 2287.13 399.5ZM2753.08 404.5V678H2645.58V655.5C2629.25 673.833 2604.25 683 2570.58 683C2546.58 683 2524.42 677.333 2504.08 666C2484.08 654.333 2468.08 637.667 2456.08 616C2444.42 594.333 2438.58 569.333 2438.58 541C2438.58 512.667 2444.42 487.833 2456.08 466.5C2468.08 444.833 2484.08 428.333 2504.08 417C2524.42 405.333 2546.58 399.5 2570.58 399.5C2600.92 399.5 2624.08 407.333 2640.08 423V404.5H2753.08ZM2597.58 595C2610.58 595 2621.25 590.333 2629.58 581C2637.92 571.333 2642.08 558 2642.08 541C2642.08 524 2637.92 510.833 2629.58 501.5C2621.25 492.167 2610.58 487.5 2597.58 487.5C2584.58 487.5 2573.92 492.167 2565.58 501.5C2557.25 510.833 2553.08 524 2553.08 541C2553.08 558 2557.25 571.333 2565.58 581C2573.92 590.333 2584.58 595 2597.58 595ZM2917.68 683C2881.68 683 2853.51 674 2833.18 656C2813.18 637.667 2803.18 611.333 2803.18 577V307H2916.18V571C2916.18 579.667 2918.35 586.333 2922.68 591C2927.01 595.333 2933.18 597.5 2941.18 597.5C2944.85 597.5 2948.51 597 2952.18 596C2956.18 595 2959.35 593.833 2961.68 592.5L2966.18 676C2950.18 680.667 2934.01 683 2917.68 683Z" fill="black"/>
<defs>
<linearGradient id="paint0_linear" x1="511.5" y1="569.5" x2="754.252" y2="52.8273" gradientUnits="userSpaceOnUse">
<stop stop-color="#FF6767"/>
<stop offset="0.46875" stop-color="#FF3434"/>
</linearGradient>
</defs>
</svg>
