<svg width="202" height="250" viewBox="0 0 202 250" fill="none" xmlns="http://www.w3.org/2000/svg">
<path d="M122.264 165.57C122.453 166.555 122.452 166.555 122.452 166.555L122.451 166.555L122.447 166.556L122.432 166.559L122.375 166.569C122.324 166.579 122.249 166.592 122.151 166.61C121.955 166.645 121.667 166.697 121.293 166.761C120.547 166.89 119.464 167.072 118.111 167.284C115.405 167.708 111.621 168.252 107.301 168.734C98.6819 169.695 87.8571 170.417 79.2277 169.409C70.3742 168.374 64.249 163.342 60.3655 158.632C58.4225 156.276 57.0276 153.985 56.1176 152.283C55.6622 151.431 55.3269 150.724 55.1042 150.226C54.9928 149.978 54.9095 149.781 54.8532 149.645C54.8251 149.576 54.8038 149.523 54.7891 149.486L54.772 149.443L54.7671 149.43L54.7656 149.426L54.7651 149.425C54.7649 149.424 54.7648 149.424 55.6968 149.071L54.7648 149.424C54.6903 149.229 54.6783 149.015 54.7304 148.814L71.6381 83.4017L55.3006 76.2092C55.0042 76.0787 54.7881 75.8128 54.7206 75.4955C54.6531 75.1781 54.7425 74.8486 54.9606 74.611L87.4934 39.1684C87.5183 39.1245 87.551 39.0675 87.5912 38.9981C87.6927 38.8229 87.8424 38.5688 88.0382 38.2477C88.4296 37.6056 89.0057 36.6948 89.7494 35.6114C91.235 33.447 93.3973 30.5815 96.0995 27.7902C101.456 22.2566 109.17 16.7774 118.073 18.1064C138.18 21.1079 151.711 36.2863 153.494 56.7719C153.994 62.5161 152.156 69.5491 150.256 75.0497C149.299 77.8202 148.312 80.2403 147.565 81.9681C147.341 82.4856 147.138 82.9414 146.964 83.3263C147.575 83.3906 148.259 83.5058 148.97 83.6674C150.511 84.0178 152.305 84.6148 153.959 85.5119C155.606 86.4054 157.178 87.6316 158.186 89.2709C159.214 90.9429 159.613 92.9781 158.999 95.3513C157.633 100.636 153.942 103.16 149.854 104.344C146.234 105.394 142.199 105.423 139.075 105.446C138.995 105.447 138.916 105.447 138.837 105.448L123.231 165.827C123.134 166.201 122.831 166.485 122.453 166.555L122.264 165.57Z" fill="white" stroke="black" stroke-width="2" stroke-linecap="round" stroke-linejoin="round"/>
<path d="M139.714 87.6754L144.627 85.0716L148.925 84.8467C148.925 84.8467 173.694 52.3029 160.182 41.296C157.608 39.1985 155.552 38.9743 152.769 37.1713C142.823 30.7281 142.469 20.3292 131.905 14.9937C112.199 5.03997 71.7727 3.10671 74.7182 25.9782C77.1883 45.1578 100.636 45.0031 118.695 47.4631C129.134 48.8852 145.521 50.3012 145.521 50.3012L134.346 90.5491L139.714 87.6754Z" fill="black"/>
<path d="M150.09 93.762C150.09 93.762 147.371 92.2211 145.582 92.5621C143.75 92.9114 141.751 95.4538 141.751 95.4538" stroke="black" stroke-width="2" stroke-linecap="round" stroke-linejoin="round"/>
<path d="M135.079 139.288C132.766 139.296 131.166 140.19 129.859 142.126C128.255 144.503 129.859 148.18 129.859 148.18C129.859 148.18 103.761 164.498 80.0859 164.498C68.1846 164.498 54.9196 149.504 54.9196 149.504C54.9196 149.504 56.6452 144.873 54.9196 143.072C53.476 141.565 51.7599 141.913 49.6999 142.126C47.5884 142.344 46.2832 142.811 44.6667 144.207C40.7299 147.606 44.6667 157.638 44.6667 157.638C44.6667 157.638 48.7747 167.784 53.2418 172.962C61.0729 182.038 68.3657 185.509 80.0859 187.528C94.4658 190.006 103.26 185.173 116.437 178.826C126.507 173.975 135.489 172.745 139.926 162.368C142.885 155.447 145.865 148.649 140.858 143.072C139.049 141.057 137.765 139.279 135.079 139.288Z" fill="white" stroke="black" stroke-width="2"/>
<path d="M130.791 147.99C130.791 147.99 132.966 145.283 134.887 145.343C135.501 145.362 135.638 145.864 135.638 145.864" stroke="black" stroke-width="2" stroke-linecap="round" stroke-linejoin="round"/>
<path d="M54.7332 149.882C54.7332 149.882 52.8933 147.175 51.2674 147.235C50.7477 147.254 50.632 147.756 50.632 147.756" stroke="black" stroke-width="2" stroke-linecap="round" stroke-linejoin="round"/>
<path d="M142.535 158.206L142.831 157.251C142.366 157.107 141.865 157.319 141.644 157.752L141.644 157.752L142.535 158.206ZM142.535 158.206C142.831 157.251 142.831 157.251 142.832 157.251L142.833 157.251L142.838 157.253L142.856 157.259L142.927 157.281C142.99 157.3 143.081 157.329 143.201 157.368C143.44 157.445 143.791 157.559 144.241 157.71C145.142 158.011 146.442 158.459 148.043 159.045C151.243 160.217 155.65 161.944 160.481 164.167C170.106 168.595 181.555 175.054 188.409 183.096C194.466 190.203 197.845 199.699 199.543 209.853C201.242 220.016 201.271 230.918 200.563 240.917C199.855 250.919 198.407 260.048 197.137 266.675C196.501 269.989 195.91 272.679 195.477 274.543C195.26 275.475 195.083 276.201 194.96 276.694C194.899 276.941 194.851 277.13 194.818 277.258C194.801 277.321 194.789 277.37 194.78 277.403L194.77 277.44L194.768 277.45L194.767 277.453C194.767 277.454 194.767 277.454 193.8 277.198M142.535 158.206L193.8 277.198M193.8 277.198L194.767 277.454C194.651 277.893 194.254 278.198 193.8 278.198H7.43149C6.9702 278.198 6.56877 277.882 6.45979 277.434L6.71947 277.371C6.45972 277.434 6.45963 277.433 6.45952 277.433L6.45888 277.43L6.45656 277.421L6.44775 277.384L6.41402 277.242C6.38457 277.117 6.34145 276.933 6.2863 276.691C6.17601 276.208 6.01756 275.498 5.82393 274.585C5.43668 272.759 4.90857 270.12 4.34348 266.864C3.21358 260.354 1.93425 251.366 1.33862 241.458C0.74324 231.554 0.82933 220.706 2.4424 210.483C4.05408 200.27 7.20117 190.61 12.7824 183.146C19.1168 174.675 26.6071 167.016 32.5027 161.482C35.4528 158.713 38.0087 156.471 39.8283 154.921C40.7382 154.146 41.4643 153.543 41.9638 153.133C42.2136 152.928 42.4068 152.772 42.538 152.666C42.6036 152.613 42.6537 152.573 42.6877 152.546L42.7264 152.515L42.7365 152.507L42.7393 152.505L42.7401 152.504C42.7403 152.504 42.7404 152.504 43.3618 153.287M193.8 277.198L43.3618 153.287M43.3618 153.287L42.7404 152.504C42.9916 152.305 43.323 152.238 43.6316 152.324C43.9402 152.411 44.1887 152.64 44.2998 152.941L44.2999 152.941L44.3007 152.943L44.3042 152.953L44.3192 152.993C44.3327 153.029 44.3532 153.083 44.3806 153.155C44.4353 153.298 44.5174 153.51 44.6259 153.784C44.8428 154.332 45.1649 155.125 45.5835 156.1C46.4211 158.052 47.6429 160.728 49.1796 163.626C52.2757 169.466 56.5658 176.045 61.4641 179.524C66.3588 183.001 70.767 185.096 75.4101 186.202C80.0606 187.31 85.0052 187.44 90.9965 186.911C95.9835 186.47 99.4879 185.008 102.976 183.168C103.877 182.692 104.787 182.185 105.726 181.662C108.404 180.17 111.318 178.546 114.958 177.137C117.6 176.114 120.102 175.58 122.376 175.095C123.296 174.899 124.179 174.711 125.019 174.501C127.971 173.765 130.626 172.734 133.262 170.165C135.271 168.208 137.36 165.131 138.972 162.486C139.771 161.174 140.441 159.987 140.91 159.13C141.145 158.701 141.329 158.355 141.455 158.117C141.517 157.998 141.565 157.905 141.597 157.844L141.633 157.774L141.642 157.757L141.644 157.753L141.644 157.752L141.644 157.752L43.3618 153.287Z" fill="white" stroke="black" stroke-width="2" stroke-linecap="round" stroke-linejoin="round"/>
<path d="M146.077 277.387L145.891 227.066" stroke="black" stroke-width="2"/>
<path d="M10.7388 277.765L18.7548 228.201" stroke="black" stroke-width="2"/>
<path d="M18.5683 229.336L17.7421 229.9L17.718 229.864L17.697 229.827L18.5683 229.336ZM15.46 225.854C15.189 225.373 15.3594 224.763 15.8407 224.492C16.3219 224.221 16.9317 224.392 17.2027 224.873L15.46 225.854ZM18.534 227.965C18.8435 227.507 19.4652 227.387 19.9226 227.697C20.38 228.006 20.4999 228.628 20.1903 229.086L18.534 227.965ZM17.697 229.827L15.46 225.854L17.2027 224.873L19.4397 228.846L17.697 229.827ZM18.5683 229.336C19.3945 228.773 19.3931 228.771 19.3917 228.769C19.3912 228.768 19.3898 228.766 19.3889 228.765C19.3869 228.762 19.385 228.759 19.383 228.756C19.379 228.751 19.375 228.745 19.3708 228.74C19.3624 228.728 19.3536 228.717 19.3442 228.705C19.3255 228.682 19.3047 228.659 19.2817 228.636C19.2354 228.589 19.1799 228.542 19.1144 228.5C18.9773 228.412 18.8212 228.361 18.6619 228.351C18.3634 228.332 18.1743 228.46 18.1468 228.479C18.0957 228.514 18.2066 228.448 18.534 227.965L20.1903 229.086C19.8468 229.593 19.5608 229.933 19.2805 230.126C19.1384 230.224 18.8767 230.369 18.5341 230.347C18.3528 230.335 18.1819 230.278 18.0355 230.184C17.9653 230.139 17.9065 230.089 17.8581 230.04C17.834 230.016 17.8124 229.992 17.7932 229.968C17.7836 229.956 17.7746 229.945 17.7661 229.933C17.7618 229.927 17.7577 229.922 17.7537 229.916C17.7517 229.913 17.7498 229.911 17.7478 229.908C17.7469 229.906 17.7454 229.904 17.745 229.904C17.7435 229.902 17.7421 229.9 18.5683 229.336Z" fill="black"/>
<path d="M145.891 227.634L146.871 227.833L146.552 229.396L145.285 228.429L145.891 227.634ZM146.03 221.948C146.14 221.407 146.668 221.057 147.209 221.168C147.75 221.278 148.1 221.806 147.989 222.347L146.03 221.948ZM141.603 223.472L142.422 222.898L141.603 223.472ZM138.229 218.485C138.058 217.96 138.345 217.395 138.87 217.224C139.395 217.053 139.96 217.34 140.131 217.865L138.229 218.485ZM144.911 227.434L146.03 221.948L147.989 222.347L146.871 227.833L144.911 227.434ZM145.891 227.634C145.285 228.429 145.284 228.429 145.284 228.429C145.284 228.429 145.284 228.429 145.284 228.428C145.284 228.428 145.284 228.428 145.283 228.428C145.283 228.427 145.282 228.427 145.281 228.426C145.279 228.425 145.277 228.423 145.274 228.42C145.267 228.415 145.258 228.408 145.246 228.399C145.223 228.381 145.188 228.355 145.145 228.32C145.058 228.252 144.934 228.154 144.781 228.03C144.475 227.783 144.053 227.432 143.588 227.02C142.673 226.21 141.527 225.105 140.785 224.046L142.422 222.898C143.023 223.755 144.02 224.731 144.914 225.523C145.352 225.911 145.751 226.242 146.039 226.476C146.183 226.592 146.299 226.684 146.379 226.746C146.418 226.777 146.449 226.801 146.469 226.817C146.479 226.824 146.487 226.83 146.491 226.834C146.494 226.836 146.495 226.837 146.496 226.838C146.497 226.838 146.497 226.838 146.497 226.839C146.498 226.839 146.498 226.839 146.498 226.839C146.498 226.839 146.498 226.839 146.498 226.839C146.497 226.839 146.497 226.838 145.891 227.634ZM140.785 224.046C140.065 223.019 139.424 221.606 138.977 220.502C138.749 219.94 138.563 219.439 138.434 219.077C138.369 218.896 138.319 218.75 138.284 218.648C138.267 218.597 138.253 218.557 138.244 218.529C138.239 218.516 138.236 218.505 138.233 218.497C138.232 218.494 138.231 218.491 138.23 218.489C138.23 218.488 138.23 218.487 138.23 218.486C138.23 218.486 138.229 218.485 138.229 218.485C138.229 218.485 138.229 218.485 138.229 218.485C138.229 218.485 138.229 218.485 139.18 218.175C140.131 217.865 140.131 217.865 140.131 217.865C140.131 217.865 140.131 217.865 140.131 217.865C140.131 217.865 140.131 217.865 140.131 217.865C140.131 217.865 140.131 217.865 140.131 217.866C140.132 217.867 140.132 217.869 140.133 217.872C140.135 217.878 140.138 217.886 140.142 217.898C140.15 217.922 140.162 217.958 140.177 218.004C140.209 218.098 140.256 218.234 140.317 218.405C140.439 218.746 140.615 219.22 140.83 219.75C141.268 220.83 141.839 222.066 142.422 222.898L140.785 224.046Z" fill="black"/>
<path d="M66.3249 100.1C68.2317 92.1344 70.6979 98.4 75.2 99.5099C79.702 100.62 84.5351 96.1536 82.6283 104.119C80.7215 112.084 75.5261 117.642 71.024 116.532C66.522 115.422 64.4181 108.065 66.3249 100.1Z" fill="black"/>
<path d="M98.5893 47.5998C98.5893 47.5998 93.4963 46.8653 90.5377 47.7685C88.2377 48.4706 85.2439 50.7678 85.2439 50.7678" stroke="black" stroke-width="2" stroke-linecap="round" stroke-linejoin="round"/>
<path d="M109.961 52.2127C109.961 52.2127 113.571 54.6457 114.983 57.1916C116.081 59.1706 116.796 62.9247 116.796 62.9247" stroke="black" stroke-width="2" stroke-linecap="round" stroke-linejoin="round"/>
<ellipse rx="2.99116" ry="6.22551" transform="matrix(-0.896755 -0.442528 -0.432133 0.90181 107.757 62.9341)" fill="black"/>
<ellipse rx="2.99116" ry="6.22551" transform="matrix(-0.896755 -0.442528 -0.432133 0.90181 91.7253 56.8805)" fill="black"/>
</svg>
