<svg width="1784" height="2108" viewBox="0 0 1784 2108" fill="none" xmlns="http://www.w3.org/2000/svg">
<path d="M856.915 1400.29C856.915 1402.24 858.039 1404 859.797 1404.82L861.915 1400.29C859.797 1404.82 859.798 1404.82 859.8 1404.82L859.806 1404.83L859.831 1404.84L859.925 1404.88C860.009 1404.92 860.132 1404.98 860.295 1405.06L860.752 1405.27C861.024 1405.39 861.352 1405.54 861.735 1405.72C863.001 1406.3 864.868 1407.16 867.28 1408.25C872.105 1410.44 879.115 1413.58 887.868 1417.39C905.372 1425.02 929.858 1435.35 957.793 1446.17C1013.55 1467.78 1083.45 1491.52 1139.01 1499.46C1195.84 1507.57 1244.88 1483.18 1279.36 1457.29C1296.64 1444.3 1310.41 1430.84 1319.87 1420.62C1324.6 1415.5 1328.25 1411.19 1330.74 1408.15C1331.98 1406.62 1332.93 1405.42 1333.58 1404.58C1333.9 1404.17 1334.15 1403.84 1334.31 1403.62C1334.4 1403.51 1334.46 1403.42 1334.51 1403.36L1334.56 1403.29L1334.58 1403.27L1334.58 1403.26C1334.58 1403.26 1334.58 1403.26 1334.12 1402.92C1333.62 1402.55 1332.62 1401.81 1330.56 1400.29L1334.58 1403.26C1335.22 1402.4 1335.56 1401.36 1335.56 1400.29V968.056H1453.76C1455.55 968.056 1457.2 967.099 1458.09 965.547C1458.98 963.996 1458.98 962.085 1458.08 960.539L1296.56 683.311C1296.48 682.995 1296.36 682.572 1296.21 682.047C1295.86 680.808 1295.34 679.002 1294.63 676.707C1293.23 672.118 1291.1 665.569 1288.2 657.682C1282.42 641.919 1273.54 620.742 1261.17 599.146C1236.6 556.238 1197.45 510.281 1140.27 503.938C1010.16 489.505 901.371 560.529 857.209 683.563C844.873 717.933 844.972 764.147 847.968 801.216C849.474 819.858 851.733 836.392 853.615 848.267C854.323 852.732 854.978 856.542 855.52 859.561C851.236 858.784 846.085 858.247 840.544 858.047C830.421 857.68 818.356 858.412 806.703 861.195C795.089 863.968 783.526 868.865 774.803 877.096C765.937 885.461 760.288 897.016 760.288 912.327C760.288 929.08 763.932 942.556 770.29 953.475C776.642 964.382 785.53 972.442 795.578 978.636C812.346 988.972 832.941 994.389 851.033 999.148C853.027 999.672 854.991 1000.19 856.915 1000.7V1400.29ZM1453.76 958.056H1450.84L1335.56 963.056H1447.97L1449.44 965.573L1453.76 963.056V958.056Z" fill="white" stroke="black" stroke-width="10" stroke-linecap="round" stroke-linejoin="round"/>
<path d="M892.111 896.625L865.539 872.468L838.966 864.013C838.966 864.013 736.455 622.311 838.966 576.547C858.501 567.826 871.748 569.821 892.111 563.261C964.879 539.818 983.948 476.18 1058.79 460.594C1198.42 431.518 1454.92 486.037 1399.4 622.445C1352.85 736.833 1206.15 697.331 1088.99 682.837C1021.26 674.458 916.268 656.264 916.268 656.264L921.099 923.197L892.111 896.625Z" fill="black"/>
<ellipse cx="1119.19" cy="804.829" rx="18.1176" ry="37.4431" fill="black"/>
<ellipse cx="1215.81" cy="804.829" rx="18.1176" ry="37.4431" fill="black"/>
<path d="M1220.71 1049.19C1217.76 1064.92 1191.43 1073.19 1161.9 1067.66C1132.37 1062.13 1110.82 1044.89 1113.77 1029.15C1116.72 1013.42 1136.76 1048.11 1166.29 1053.64C1195.82 1059.18 1223.65 1033.45 1220.71 1049.19Z" fill="black"/>
<path d="M817.225 917.158C817.225 917.158 836.763 912.111 847.421 917.158C858.34 922.328 866.747 941.315 866.747 941.315" stroke="black" stroke-width="10" stroke-linecap="round" stroke-linejoin="round"/>
<path d="M819.641 1342.32C834.624 1342.37 844.992 1348.07 853.46 1360.44C863.857 1375.61 853.46 1399.09 853.46 1399.09C853.46 1399.09 1022.56 1503.28 1175.95 1503.28C1253.06 1503.28 1339.01 1407.54 1339.01 1407.54C1339.01 1407.54 1327.83 1377.97 1339.01 1366.47C1348.37 1356.86 1359.48 1359.08 1372.83 1360.44C1386.51 1361.83 1394.97 1364.81 1405.44 1373.72C1430.95 1395.42 1405.44 1459.48 1405.44 1459.48C1405.44 1459.48 1378.83 1524.26 1349.88 1557.31C1299.14 1615.26 1251.89 1637.42 1175.95 1650.32C1082.78 1666.14 1025.8 1635.28 940.425 1594.76C875.178 1563.79 816.985 1555.93 788.237 1489.67C769.063 1445.48 749.757 1402.08 782.198 1366.47C793.917 1353.61 802.239 1342.26 819.641 1342.32Z" fill="white" stroke="black" stroke-width="10"/>
<path d="M850.708 1396.78C850.708 1396.78 836.619 1379.5 824.17 1379.88C820.191 1380 819.304 1383.21 819.304 1383.21" stroke="black" stroke-width="10" stroke-linecap="round" stroke-linejoin="round"/>
<path d="M1339.12 1407.77C1339.12 1407.77 1351.05 1390.48 1361.58 1390.86C1364.95 1390.98 1365.7 1394.19 1365.7 1394.19" stroke="black" stroke-width="10" stroke-linecap="round" stroke-linejoin="round"/>
<path d="M775.769 1460.81C774.661 1458.66 772.179 1457.62 769.87 1458.32L771.327 1463.1M775.769 1460.81L771.327 1463.1M775.769 1460.81L775.769 1460.81C775.769 1460.81 775.769 1460.81 771.327 1463.1M775.769 1460.81L775.769 1460.81L775.772 1460.81L775.786 1460.84L775.844 1460.95C775.883 1461.03 775.939 1461.13 776.01 1461.27L776.078 1461.4C776.287 1461.8 776.599 1462.39 777.006 1463.15C777.822 1464.68 779.021 1466.89 780.545 1469.64C783.596 1475.13 787.945 1482.72 793.137 1491.12C803.586 1508.02 817.202 1527.8 830.351 1540.42C847.685 1557.07 865.167 1563.74 884.443 1568.48C889.977 1569.84 895.753 1571.06 901.75 1572.32C916.441 1575.4 932.454 1578.77 949.454 1585.25C972.931 1594.21 991.679 1604.5 1009.01 1614.02C1015.11 1617.37 1021.03 1620.62 1026.93 1623.69C1049.63 1635.49 1072.54 1644.92 1105.12 1647.75C1144.04 1651.14 1176.26 1650.32 1206.61 1643.19C1236.92 1636.08 1265.66 1622.61 1297.49 1600.32C1329.53 1577.9 1357.45 1535.64 1377.53 1498.33C1387.5 1479.78 1395.44 1462.66 1400.87 1450.18C1403.59 1443.94 1405.68 1438.87 1407.09 1435.36C1407.8 1433.6 1408.33 1432.24 1408.69 1431.32C1408.87 1430.86 1409 1430.51 1409.09 1430.28L1409.14 1430.15L1409.19 1430.02L1409.21 1429.96L1409.22 1429.95L1409.22 1429.94M771.327 1463.1C771.327 1463.1 799.624 1517.85 826.888 1544.03C850.46 1566.66 874.385 1571.69 901.125 1577.3C915.675 1580.36 931.059 1583.59 947.672 1589.93C970.799 1598.75 989.112 1608.8 1006.37 1618.28C1035.95 1634.52 1062.41 1649.05 1104.69 1652.73C1183.1 1659.56 1235.88 1649.56 1300.36 1604.42C1358.92 1563.43 1402.8 1459.59 1412.08 1436.36C1412.08 1436.36 1412.07 1436.36 1412.07 1436.35L1411.96 1436.31L1411.94 1436.3L1411.93 1436.3C1411.93 1436.3 1411.93 1436.3 1413.9 1431.7M771.327 1463.1C769.87 1458.32 769.868 1458.32 769.866 1458.32L769.857 1458.32L769.826 1458.33L769.708 1458.37C769.605 1458.4 769.452 1458.45 769.252 1458.51C768.853 1458.63 768.262 1458.82 767.49 1459.06C765.946 1459.55 763.678 1460.28 760.765 1461.24C754.94 1463.16 746.532 1466.01 736.176 1469.75C715.469 1477.22 686.95 1488.23 655.694 1502.41C593.373 1530.66 519.441 1571.79 475.248 1622.89C436.235 1668 414.405 1728.36 403.424 1793.07C392.436 1857.82 392.243 1927.32 396.826 1991.1C401.41 2054.89 410.784 2113.13 419.008 2155.4C423.121 2176.54 426.949 2193.7 429.751 2205.59C431.152 2211.53 432.297 2216.16 433.093 2219.3C433.491 2220.87 433.802 2222.08 434.014 2222.89C434.12 2223.29 434.201 2223.6 434.256 2223.81L434.319 2224.05L434.336 2224.11L434.34 2224.13C434.341 2224.13 434.342 2224.13 439.171 2222.83M771.327 1463.1L439.171 2222.83M1409.22 1429.94L1413.9 1431.7M1409.22 1429.94C1409.7 1428.66 1410.68 1427.64 1411.93 1427.1C1413.19 1426.56 1414.61 1426.56 1415.87 1427.1L1413.9 1431.7M1409.22 1429.94L1409.22 1429.94C1409.22 1429.94 1409.22 1429.94 1413.9 1431.7M1413.9 1431.7C1415.87 1427.1 1415.87 1427.1 1415.87 1427.1L1415.88 1427.11L1415.91 1427.12L1416.02 1427.17C1416.13 1427.21 1416.28 1427.28 1416.47 1427.36C1416.87 1427.54 1417.45 1427.79 1418.22 1428.13C1419.74 1428.8 1421.99 1429.79 1424.87 1431.1C1430.63 1433.7 1438.94 1437.54 1449.16 1442.49C1469.6 1452.37 1497.7 1466.67 1528.37 1484.34C1589.54 1519.59 1661.56 1568.62 1702.93 1623.14C1738.91 1670.55 1759.25 1731.98 1769.67 1797.08C1780.1 1862.23 1780.66 1931.39 1776.81 1994.57C1772.95 2057.76 1764.67 2115.1 1757.36 2156.63C1753.7 2177.4 1750.28 2194.23 1747.77 2205.88C1746.52 2211.7 1745.5 2216.23 1744.78 2219.31C1744.43 2220.84 1744.15 2222.02 1743.96 2222.81C1743.91 2223.02 1743.86 2223.2 1743.83 2223.36L1743.74 2223.72L1743.68 2223.95L1743.67 2224.01L1743.66 2224.03C1743.66 2224.03 1743.66 2224.03 1738.81 2222.83M1413.9 1431.7C1418.58 1433.45 1418.58 1433.46 1418.58 1433.46L1418.58 1433.46L1418.57 1433.48L1418.54 1433.56C1418.53 1433.6 1418.51 1433.65 1418.48 1433.71C1449.08 1447.32 1624.72 1528.34 1698.95 1626.16C1840.12 1812.2 1738.81 2222.83 1738.81 2222.83M1738.81 2222.83L1743.66 2224.03C1743.11 2226.27 1741.11 2227.83 1738.81 2227.83H439.171C436.909 2227.83 434.929 2226.32 434.342 2224.13L439.171 2222.83M1738.81 2222.83H439.171" fill="white" stroke="black" stroke-width="10" stroke-linecap="round" stroke-linejoin="round"/>
<path d="M748.378 2224.04L749.586 1902.76" stroke="black" stroke-width="10"/>
<path d="M1625.27 2226.46L1573.33 1910" stroke="black" stroke-width="10"/>
<path d="M1574.54 1917.25L1571.17 1920.94L1575.78 1925.16L1578.88 1919.73L1574.54 1917.25ZM1593.38 1894.37C1594.75 1891.97 1593.91 1888.91 1591.52 1887.54C1589.12 1886.17 1586.06 1887.01 1584.69 1889.41L1593.38 1894.37ZM1561.26 1902.76L1557.13 1905.59L1557.13 1905.59L1561.26 1902.76ZM1556.31 1880.57C1555.39 1877.96 1552.54 1876.59 1549.94 1877.51C1547.33 1878.42 1545.96 1881.27 1546.87 1883.88L1556.31 1880.57ZM1578.88 1919.73L1593.38 1894.37L1584.69 1889.41L1570.2 1914.77L1578.88 1919.73ZM1574.54 1917.25C1577.91 1913.56 1577.91 1913.56 1577.91 1913.56C1577.91 1913.56 1577.91 1913.56 1577.91 1913.56C1577.91 1913.56 1577.91 1913.56 1577.91 1913.56C1577.91 1913.56 1577.91 1913.56 1577.91 1913.56C1577.91 1913.55 1577.9 1913.55 1577.9 1913.54C1577.88 1913.53 1577.86 1913.51 1577.83 1913.48C1577.77 1913.43 1577.68 1913.34 1577.56 1913.23C1577.32 1913.01 1576.97 1912.68 1576.53 1912.26C1575.65 1911.42 1574.44 1910.24 1573.1 1908.88C1570.36 1906.08 1567.29 1902.71 1565.38 1899.93L1557.13 1905.59C1559.57 1909.13 1563.14 1913.01 1565.96 1915.88C1567.4 1917.34 1568.69 1918.6 1569.63 1919.49C1570.09 1919.94 1570.47 1920.3 1570.74 1920.55C1570.87 1920.67 1570.98 1920.77 1571.05 1920.83C1571.09 1920.87 1571.12 1920.89 1571.14 1920.91C1571.15 1920.92 1571.15 1920.93 1571.16 1920.93C1571.16 1920.94 1571.16 1920.94 1571.17 1920.94C1571.17 1920.94 1571.17 1920.94 1571.17 1920.94C1571.17 1920.94 1571.17 1920.94 1571.17 1920.94C1571.17 1920.94 1571.17 1920.94 1574.54 1917.25ZM1565.38 1899.93C1563.17 1896.71 1560.91 1891.96 1559.15 1887.8C1558.28 1885.76 1557.57 1883.94 1557.07 1882.63C1556.82 1881.98 1556.63 1881.45 1556.5 1881.1C1556.44 1880.92 1556.39 1880.78 1556.35 1880.69C1556.34 1880.65 1556.33 1880.61 1556.32 1880.59C1556.32 1880.58 1556.31 1880.57 1556.31 1880.57C1556.31 1880.57 1556.31 1880.57 1556.31 1880.57C1556.31 1880.57 1556.31 1880.57 1556.31 1880.57C1556.31 1880.57 1556.31 1880.57 1556.31 1880.57C1556.31 1880.57 1556.31 1880.57 1551.59 1882.22C1546.87 1883.88 1546.87 1883.88 1546.88 1883.88C1546.88 1883.88 1546.88 1883.88 1546.88 1883.88C1546.88 1883.88 1546.88 1883.88 1546.88 1883.89C1546.88 1883.89 1546.88 1883.89 1546.88 1883.9C1546.88 1883.9 1546.89 1883.92 1546.89 1883.93C1546.9 1883.96 1546.92 1884 1546.94 1884.06C1546.98 1884.16 1547.03 1884.32 1547.1 1884.52C1547.25 1884.91 1547.46 1885.48 1547.72 1886.18C1548.25 1887.58 1549.01 1889.52 1549.94 1891.7C1551.75 1895.98 1554.33 1901.5 1557.13 1905.59L1565.38 1899.93Z" fill="black"/>
<path d="M749.586 1906.38L744.69 1907.39L746.287 1915.11L752.59 1910.38L749.586 1906.38ZM747.235 1870.34C746.676 1867.64 744.03 1865.9 741.326 1866.46C738.622 1867.02 736.883 1869.66 737.443 1872.37L747.235 1870.34ZM777.367 1879.81L773.292 1876.91L773.292 1876.91L777.367 1879.81ZM797.815 1847.56C798.683 1844.94 797.26 1842.11 794.639 1841.24C792.017 1840.37 789.189 1841.8 788.321 1844.42L797.815 1847.56ZM754.482 1905.37L747.235 1870.34L737.443 1872.37L744.69 1907.39L754.482 1905.37ZM749.586 1906.38C752.59 1910.38 752.591 1910.38 752.591 1910.38C752.591 1910.38 752.592 1910.38 752.593 1910.37C752.594 1910.37 752.595 1910.37 752.597 1910.37C752.6 1910.37 752.604 1910.37 752.61 1910.36C752.621 1910.35 752.637 1910.34 752.657 1910.33C752.698 1910.3 752.756 1910.25 752.831 1910.19C752.982 1910.08 753.2 1909.91 753.479 1909.7C754.036 1909.27 754.836 1908.64 755.821 1907.86C757.789 1906.29 760.505 1904.06 763.502 1901.45C769.41 1896.29 776.731 1889.33 781.441 1882.71L773.292 1876.91C769.3 1882.52 762.731 1888.85 756.925 1893.91C754.064 1896.41 751.466 1898.54 749.585 1900.04C748.645 1900.79 747.887 1901.38 747.367 1901.78C747.107 1901.98 746.907 1902.14 746.774 1902.24C746.707 1902.29 746.657 1902.33 746.625 1902.35C746.609 1902.36 746.597 1902.37 746.59 1902.38C746.586 1902.38 746.584 1902.38 746.583 1902.38C746.582 1902.38 746.582 1902.38 746.582 1902.38C746.581 1902.38 746.582 1902.38 746.582 1902.38C746.582 1902.38 746.582 1902.38 749.586 1906.38ZM781.441 1882.71C786.009 1876.28 790.11 1867.38 793.006 1860.35C794.475 1856.78 795.672 1853.6 796.503 1851.31C796.919 1850.16 797.244 1849.23 797.467 1848.58C797.578 1848.26 797.664 1848.01 797.722 1847.84C797.752 1847.75 797.774 1847.68 797.79 1847.64C797.798 1847.61 797.804 1847.59 797.808 1847.58C797.81 1847.57 797.812 1847.57 797.813 1847.57C797.814 1847.56 797.814 1847.56 797.815 1847.56C797.815 1847.56 797.815 1847.56 797.815 1847.56C797.815 1847.56 797.815 1847.56 793.068 1845.99C788.321 1844.42 788.322 1844.42 788.322 1844.42C788.322 1844.42 788.322 1844.42 788.322 1844.42C788.322 1844.42 788.321 1844.42 788.321 1844.42C788.321 1844.42 788.32 1844.42 788.318 1844.43C788.316 1844.43 788.311 1844.45 788.305 1844.47C788.293 1844.5 788.273 1844.56 788.247 1844.64C788.196 1844.79 788.117 1845.02 788.013 1845.32C787.806 1845.93 787.498 1846.81 787.101 1847.9C786.307 1850.09 785.161 1853.14 783.759 1856.54C780.914 1863.45 777.164 1871.47 773.292 1876.91L781.441 1882.71Z" fill="black"/>
<path d="M1154.41 1120.68C1089.97 1133.64 1105.09 1071.17 1118.79 1036.96L1146.19 1053.17L1167.02 1058.57H1188.94C1167.9 1066.13 1176.88 1101.03 1185.65 1114.38L1154.41 1120.68Z" fill="black" stroke="black" stroke-width="10"/>
<path d="M601.115 498.331C605.487 594.063 706.766 623.46 756.859 626.192C609.968 650.671 504.755 551.151 470.509 498.331H0V0H882L868.338 492.32L601.115 498.331Z" fill="black"/>
<path d="M103.3 214.2C97.7667 214.2 92.4 213.467 87.2 212C82.0667 210.467 77.9333 208.5 74.8 206.1L80.3 193.9C83.3 196.1 86.8667 197.867 91 199.2C95.1333 200.533 99.2667 201.2 103.4 201.2C108 201.2 111.4 200.533 113.6 199.2C115.8 197.8 116.9 195.967 116.9 193.7C116.9 192.033 116.233 190.667 114.9 189.6C113.633 188.467 111.967 187.567 109.9 186.9C107.9 186.233 105.167 185.5 101.7 184.7C96.3667 183.433 92 182.167 88.6 180.9C85.2 179.633 82.2667 177.6 79.8 174.8C77.4 172 76.2 168.267 76.2 163.6C76.2 159.533 77.3 155.867 79.5 152.6C81.7 149.267 85 146.633 89.4 144.7C93.8667 142.767 99.3 141.8 105.7 141.8C110.167 141.8 114.533 142.333 118.8 143.4C123.067 144.467 126.8 146 130 148L125 160.3C118.533 156.633 112.067 154.8 105.6 154.8C101.067 154.8 97.7 155.533 95.5 157C93.3667 158.467 92.3 160.4 92.3 162.8C92.3 165.2 93.5333 167 96 168.2C98.5333 169.333 102.367 170.467 107.5 171.6C112.833 172.867 117.2 174.133 120.6 175.4C124 176.667 126.9 178.667 129.3 181.4C131.767 184.133 133 187.833 133 192.5C133 196.5 131.867 200.167 129.6 203.5C127.4 206.767 124.067 209.367 119.6 211.3C115.133 213.233 109.7 214.2 103.3 214.2ZM195.67 186.3C195.67 186.5 195.57 187.9 195.37 190.5H154.67C155.403 193.833 157.136 196.467 159.87 198.4C162.603 200.333 166.003 201.3 170.07 201.3C172.87 201.3 175.336 200.9 177.47 200.1C179.67 199.233 181.703 197.9 183.57 196.1L191.87 205.1C186.803 210.9 179.403 213.8 169.67 213.8C163.603 213.8 158.236 212.633 153.57 210.3C148.903 207.9 145.303 204.6 142.77 200.4C140.236 196.2 138.97 191.433 138.97 186.1C138.97 180.833 140.203 176.1 142.67 171.9C145.203 167.633 148.636 164.333 152.97 162C157.37 159.6 162.27 158.4 167.67 158.4C172.936 158.4 177.703 159.533 181.97 161.8C186.236 164.067 189.57 167.333 191.97 171.6C194.436 175.8 195.67 180.7 195.67 186.3ZM167.77 170.2C164.236 170.2 161.27 171.2 158.87 173.2C156.47 175.2 155.003 177.933 154.47 181.4H180.97C180.436 178 178.97 175.3 176.57 173.3C174.17 171.233 171.236 170.2 167.77 170.2ZM206.055 138.8H221.655V213H206.055V138.8ZM288.834 186.3C288.834 186.5 288.734 187.9 288.534 190.5H247.834C248.567 193.833 250.3 196.467 253.034 198.4C255.767 200.333 259.167 201.3 263.234 201.3C266.034 201.3 268.5 200.9 270.634 200.1C272.834 199.233 274.867 197.9 276.734 196.1L285.034 205.1C279.967 210.9 272.567 213.8 262.834 213.8C256.767 213.8 251.4 212.633 246.734 210.3C242.067 207.9 238.467 204.6 235.934 200.4C233.4 196.2 232.134 191.433 232.134 186.1C232.134 180.833 233.367 176.1 235.834 171.9C238.367 167.633 241.8 164.333 246.134 162C250.534 159.6 255.434 158.4 260.834 158.4C266.1 158.4 270.867 159.533 275.134 161.8C279.4 164.067 282.734 167.333 285.134 171.6C287.6 175.8 288.834 180.7 288.834 186.3ZM260.934 170.2C257.4 170.2 254.434 171.2 252.034 173.2C249.634 175.2 248.167 177.933 247.634 181.4H274.134C273.6 178 272.134 175.3 269.734 173.3C267.334 171.233 264.4 170.2 260.934 170.2ZM325.22 213.8C319.486 213.8 314.32 212.633 309.72 210.3C305.186 207.9 301.62 204.6 299.02 200.4C296.486 196.2 295.22 191.433 295.22 186.1C295.22 180.767 296.486 176 299.02 171.8C301.62 167.6 305.186 164.333 309.72 162C314.32 159.6 319.486 158.4 325.22 158.4C330.886 158.4 335.82 159.6 340.02 162C344.286 164.333 347.386 167.7 349.32 172.1L337.22 178.6C334.42 173.667 330.386 171.2 325.12 171.2C321.053 171.2 317.686 172.533 315.02 175.2C312.353 177.867 311.02 181.5 311.02 186.1C311.02 190.7 312.353 194.333 315.02 197C317.686 199.667 321.053 201 325.12 201C330.453 201 334.486 198.533 337.22 193.6L349.32 200.2C347.386 204.467 344.286 207.8 340.02 210.2C335.82 212.6 330.886 213.8 325.22 213.8ZM393.783 210.4C392.249 211.533 390.349 212.4 388.083 213C385.883 213.533 383.549 213.8 381.083 213.8C374.683 213.8 369.716 212.167 366.183 208.9C362.716 205.633 360.983 200.833 360.983 194.5V172.4H352.683V160.4H360.983V147.3H376.583V160.4H389.983V172.4H376.583V194.3C376.583 196.567 377.149 198.333 378.283 199.6C379.483 200.8 381.149 201.4 383.283 201.4C385.749 201.4 387.849 200.733 389.583 199.4L393.783 210.4ZM452.56 158.4C460.893 158.4 467.293 160.4 471.76 164.4C476.227 168.333 478.46 174.3 478.46 182.3V213H463.86V206.3C460.927 211.3 455.46 213.8 447.46 213.8C443.327 213.8 439.727 213.1 436.66 211.7C433.66 210.3 431.36 208.367 429.76 205.9C428.16 203.433 427.36 200.633 427.36 197.5C427.36 192.5 429.227 188.567 432.96 185.7C436.76 182.833 442.593 181.4 450.46 181.4H462.86C462.86 178 461.827 175.4 459.76 173.6C457.693 171.733 454.593 170.8 450.46 170.8C447.593 170.8 444.76 171.267 441.96 172.2C439.227 173.067 436.893 174.267 434.96 175.8L429.36 164.9C432.293 162.833 435.793 161.233 439.86 160.1C443.993 158.967 448.227 158.4 452.56 158.4ZM451.36 203.3C454.027 203.3 456.393 202.7 458.46 201.5C460.527 200.233 461.993 198.4 462.86 196V190.5H452.16C445.76 190.5 442.56 192.6 442.56 196.8C442.56 198.8 443.327 200.4 444.86 201.6C446.46 202.733 448.627 203.3 451.36 203.3ZM552.699 158.4C557.699 158.4 562.233 159.567 566.299 161.9C570.433 164.167 573.666 167.4 575.999 171.6C578.333 175.733 579.499 180.567 579.499 186.1C579.499 191.633 578.333 196.5 575.999 200.7C573.666 204.833 570.433 208.067 566.299 210.4C562.233 212.667 557.699 213.8 552.699 213.8C545.833 213.8 540.433 211.633 536.499 207.3V232.4H520.899V159.2H535.799V165.4C539.666 160.733 545.299 158.4 552.699 158.4ZM549.999 201C553.999 201 557.266 199.667 559.799 197C562.399 194.267 563.699 190.633 563.699 186.1C563.699 181.567 562.399 177.967 559.799 175.3C557.266 172.567 553.999 171.2 549.999 171.2C545.999 171.2 542.699 172.567 540.099 175.3C537.566 177.967 536.299 181.567 536.299 186.1C536.299 190.633 537.566 194.267 540.099 197C542.699 199.667 545.999 201 549.999 201ZM615.542 213.8C609.876 213.8 604.776 212.633 600.242 210.3C595.776 207.9 592.276 204.6 589.742 200.4C587.209 196.2 585.942 191.433 585.942 186.1C585.942 180.767 587.209 176 589.742 171.8C592.276 167.6 595.776 164.333 600.242 162C604.776 159.6 609.876 158.4 615.542 158.4C621.209 158.4 626.276 159.6 630.742 162C635.209 164.333 638.709 167.6 641.242 171.8C643.776 176 645.042 180.767 645.042 186.1C645.042 191.433 643.776 196.2 641.242 200.4C638.709 204.6 635.209 207.9 630.742 210.3C626.276 212.633 621.209 213.8 615.542 213.8ZM615.542 201C619.542 201 622.809 199.667 625.342 197C627.942 194.267 629.242 190.633 629.242 186.1C629.242 181.567 627.942 177.967 625.342 175.3C622.809 172.567 619.542 171.2 615.542 171.2C611.542 171.2 608.242 172.567 605.642 175.3C603.042 177.967 601.742 181.567 601.742 186.1C601.742 190.633 603.042 194.267 605.642 197C608.242 199.667 611.542 201 615.542 201ZM673.57 213.8C669.103 213.8 664.736 213.267 660.47 212.2C656.203 211.067 652.803 209.667 650.27 208L655.47 196.8C657.87 198.333 660.77 199.6 664.17 200.6C667.57 201.533 670.903 202 674.17 202C680.77 202 684.07 200.367 684.07 197.1C684.07 195.567 683.17 194.467 681.37 193.8C679.57 193.133 676.803 192.567 673.07 192.1C668.67 191.433 665.036 190.667 662.17 189.8C659.303 188.933 656.803 187.4 654.67 185.2C652.603 183 651.57 179.867 651.57 175.8C651.57 172.4 652.536 169.4 654.47 166.8C656.47 164.133 659.336 162.067 663.07 160.6C666.87 159.133 671.336 158.4 676.47 158.4C680.27 158.4 684.036 158.833 687.77 159.7C691.57 160.5 694.703 161.633 697.17 163.1L691.97 174.2C687.236 171.533 682.07 170.2 676.47 170.2C673.136 170.2 670.636 170.667 668.97 171.6C667.303 172.533 666.47 173.733 666.47 175.2C666.47 176.867 667.37 178.033 669.17 178.7C670.97 179.367 673.836 180 677.77 180.6C682.17 181.333 685.77 182.133 688.57 183C691.37 183.8 693.803 185.3 695.87 187.5C697.936 189.7 698.97 192.767 698.97 196.7C698.97 200.033 697.97 203 695.97 205.6C693.97 208.2 691.036 210.233 687.17 211.7C683.37 213.1 678.836 213.8 673.57 213.8ZM743.295 210.4C741.761 211.533 739.861 212.4 737.595 213C735.395 213.533 733.061 213.8 730.595 213.8C724.195 213.8 719.228 212.167 715.695 208.9C712.228 205.633 710.495 200.833 710.495 194.5V172.4H702.195V160.4H710.495V147.3H726.095V160.4H739.495V172.4H726.095V194.3C726.095 196.567 726.661 198.333 727.795 199.6C728.995 200.8 730.661 201.4 732.795 201.4C735.261 201.4 737.361 200.733 739.095 199.4L743.295 210.4ZM759.028 194.4C761.828 194.4 764.128 195.3 765.928 197.1C767.728 198.833 768.628 201.133 768.628 204C768.628 205.333 768.461 206.667 768.128 208C767.795 209.333 767.061 211.333 765.928 214L760.228 228.4H750.328L754.728 212.5C753.061 211.833 751.728 210.767 750.728 209.3C749.795 207.767 749.328 206 749.328 204C749.328 201.133 750.228 198.833 752.028 197.1C753.895 195.3 756.228 194.4 759.028 194.4ZM111 280.4C116 280.4 120.533 281.567 124.6 283.9C128.733 286.167 131.967 289.4 134.3 293.6C136.633 297.733 137.8 302.567 137.8 308.1C137.8 313.633 136.633 318.5 134.3 322.7C131.967 326.833 128.733 330.067 124.6 332.4C120.533 334.667 116 335.8 111 335.8C104.133 335.8 98.7333 333.633 94.8 329.3V354.4H79.2V281.2H94.1V287.4C97.9667 282.733 103.6 280.4 111 280.4ZM108.3 323C112.3 323 115.567 321.667 118.1 319C120.7 316.267 122 312.633 122 308.1C122 303.567 120.7 299.967 118.1 297.3C115.567 294.567 112.3 293.2 108.3 293.2C104.3 293.2 101 294.567 98.4 297.3C95.8667 299.967 94.6 303.567 94.6 308.1C94.6 312.633 95.8667 316.267 98.4 319C101 321.667 104.3 323 108.3 323ZM148.243 260.8H163.843V335H148.243V260.8ZM231.021 308.3C231.021 308.5 230.921 309.9 230.721 312.5H190.021C190.754 315.833 192.488 318.467 195.221 320.4C197.954 322.333 201.354 323.3 205.421 323.3C208.221 323.3 210.688 322.9 212.821 322.1C215.021 321.233 217.054 319.9 218.921 318.1L227.221 327.1C222.154 332.9 214.754 335.8 205.021 335.8C198.954 335.8 193.588 334.633 188.921 332.3C184.254 329.9 180.654 326.6 178.121 322.4C175.588 318.2 174.321 313.433 174.321 308.1C174.321 302.833 175.554 298.1 178.021 293.9C180.554 289.633 183.988 286.333 188.321 284C192.721 281.6 197.621 280.4 203.021 280.4C208.288 280.4 213.054 281.533 217.321 283.8C221.588 286.067 224.921 289.333 227.321 293.6C229.788 297.8 231.021 302.7 231.021 308.3ZM203.121 292.2C199.588 292.2 196.621 293.2 194.221 295.2C191.821 297.2 190.354 299.933 189.821 303.4H216.321C215.788 300 214.321 297.3 211.921 295.3C209.521 293.233 206.588 292.2 203.121 292.2ZM261.642 280.4C269.976 280.4 276.376 282.4 280.842 286.4C285.309 290.333 287.542 296.3 287.542 304.3V335H272.942V328.3C270.009 333.3 264.542 335.8 256.542 335.8C252.409 335.8 248.809 335.1 245.742 333.7C242.742 332.3 240.442 330.367 238.842 327.9C237.242 325.433 236.442 322.633 236.442 319.5C236.442 314.5 238.309 310.567 242.042 307.7C245.842 304.833 251.676 303.4 259.542 303.4H271.942C271.942 300 270.909 297.4 268.842 295.6C266.776 293.733 263.676 292.8 259.542 292.8C256.676 292.8 253.842 293.267 251.042 294.2C248.309 295.067 245.976 296.267 244.042 297.8L238.442 286.9C241.376 284.833 244.876 283.233 248.942 282.1C253.076 280.967 257.309 280.4 261.642 280.4ZM260.442 325.3C263.109 325.3 265.476 324.7 267.542 323.5C269.609 322.233 271.076 320.4 271.942 318V312.5H261.242C254.842 312.5 251.642 314.6 251.642 318.8C251.642 320.8 252.409 322.4 253.942 323.6C255.542 324.733 257.709 325.3 260.442 325.3ZM319.761 335.8C315.294 335.8 310.928 335.267 306.661 334.2C302.394 333.067 298.994 331.667 296.461 330L301.661 318.8C304.061 320.333 306.961 321.6 310.361 322.6C313.761 323.533 317.094 324 320.361 324C326.961 324 330.261 322.367 330.261 319.1C330.261 317.567 329.361 316.467 327.561 315.8C325.761 315.133 322.994 314.567 319.261 314.1C314.861 313.433 311.228 312.667 308.361 311.8C305.494 310.933 302.994 309.4 300.861 307.2C298.794 305 297.761 301.867 297.761 297.8C297.761 294.4 298.728 291.4 300.661 288.8C302.661 286.133 305.528 284.067 309.261 282.6C313.061 281.133 317.528 280.4 322.661 280.4C326.461 280.4 330.228 280.833 333.961 281.7C337.761 282.5 340.894 283.633 343.361 285.1L338.161 296.2C333.428 293.533 328.261 292.2 322.661 292.2C319.328 292.2 316.828 292.667 315.161 293.6C313.494 294.533 312.661 295.733 312.661 297.2C312.661 298.867 313.561 300.033 315.361 300.7C317.161 301.367 320.028 302 323.961 302.6C328.361 303.333 331.961 304.133 334.761 305C337.561 305.8 339.994 307.3 342.061 309.5C344.128 311.7 345.161 314.767 345.161 318.7C345.161 322.033 344.161 325 342.161 327.6C340.161 330.2 337.228 332.233 333.361 333.7C329.561 335.1 325.028 335.8 319.761 335.8ZM407.486 308.3C407.486 308.5 407.386 309.9 407.186 312.5H366.486C367.219 315.833 368.953 318.467 371.686 320.4C374.419 322.333 377.819 323.3 381.886 323.3C384.686 323.3 387.153 322.9 389.286 322.1C391.486 321.233 393.519 319.9 395.386 318.1L403.686 327.1C398.619 332.9 391.219 335.8 381.486 335.8C375.419 335.8 370.053 334.633 365.386 332.3C360.719 329.9 357.119 326.6 354.586 322.4C352.053 318.2 350.786 313.433 350.786 308.1C350.786 302.833 352.019 298.1 354.486 293.9C357.019 289.633 360.453 286.333 364.786 284C369.186 281.6 374.086 280.4 379.486 280.4C384.753 280.4 389.519 281.533 393.786 283.8C398.053 286.067 401.386 289.333 403.786 293.6C406.253 297.8 407.486 302.7 407.486 308.3ZM379.586 292.2C376.053 292.2 373.086 293.2 370.686 295.2C368.286 297.2 366.819 299.933 366.286 303.4H392.786C392.253 300 390.786 297.3 388.386 295.3C385.986 293.233 383.053 292.2 379.586 292.2ZM423.772 335.8C421.039 335.8 418.739 334.867 416.872 333C415.005 331.133 414.072 328.8 414.072 326C414.072 323.133 415.005 320.833 416.872 319.1C418.739 317.3 421.039 316.4 423.772 316.4C426.505 316.4 428.805 317.3 430.672 319.1C432.539 320.833 433.472 323.133 433.472 326C433.472 328.8 432.539 331.133 430.672 333C428.805 334.867 426.505 335.8 423.772 335.8Z" fill="white"/>
</svg>
