<svg width="2586" height="2456" viewBox="0 0 2586 2456" fill="none" xmlns="http://www.w3.org/2000/svg">
<path d="M601.115 639.331C605.487 735.063 706.766 764.46 756.859 767.192C609.968 791.671 504.755 692.151 470.509 639.331H0V141H882L868.338 633.32L601.115 639.331Z" fill="black"/>
<path d="M103.3 355.2C97.7667 355.2 92.4 354.467 87.2 353C82.0667 351.467 77.9333 349.5 74.8 347.1L80.3 334.9C83.3 337.1 86.8667 338.867 91 340.2C95.1333 341.533 99.2667 342.2 103.4 342.2C108 342.2 111.4 341.533 113.6 340.2C115.8 338.8 116.9 336.967 116.9 334.7C116.9 333.033 116.233 331.667 114.9 330.6C113.633 329.467 111.967 328.567 109.9 327.9C107.9 327.233 105.167 326.5 101.7 325.7C96.3667 324.433 92 323.167 88.6 321.9C85.2 320.633 82.2667 318.6 79.8 315.8C77.4 313 76.2 309.267 76.2 304.6C76.2 300.533 77.3 296.867 79.5 293.6C81.7 290.267 85 287.633 89.4 285.7C93.8667 283.767 99.3 282.8 105.7 282.8C110.167 282.8 114.533 283.333 118.8 284.4C123.067 285.467 126.8 287 130 289L125 301.3C118.533 297.633 112.067 295.8 105.6 295.8C101.067 295.8 97.7 296.533 95.5 298C93.3667 299.467 92.3 301.4 92.3 303.8C92.3 306.2 93.5333 308 96 309.2C98.5333 310.333 102.367 311.467 107.5 312.6C112.833 313.867 117.2 315.133 120.6 316.4C124 317.667 126.9 319.667 129.3 322.4C131.767 325.133 133 328.833 133 333.5C133 337.5 131.867 341.167 129.6 344.5C127.4 347.767 124.067 350.367 119.6 352.3C115.133 354.233 109.7 355.2 103.3 355.2ZM195.67 327.3C195.67 327.5 195.57 328.9 195.37 331.5H154.67C155.403 334.833 157.136 337.467 159.87 339.4C162.603 341.333 166.003 342.3 170.07 342.3C172.87 342.3 175.336 341.9 177.47 341.1C179.67 340.233 181.703 338.9 183.57 337.1L191.87 346.1C186.803 351.9 179.403 354.8 169.67 354.8C163.603 354.8 158.236 353.633 153.57 351.3C148.903 348.9 145.303 345.6 142.77 341.4C140.236 337.2 138.97 332.433 138.97 327.1C138.97 321.833 140.203 317.1 142.67 312.9C145.203 308.633 148.636 305.333 152.97 303C157.37 300.6 162.27 299.4 167.67 299.4C172.936 299.4 177.703 300.533 181.97 302.8C186.236 305.067 189.57 308.333 191.97 312.6C194.436 316.8 195.67 321.7 195.67 327.3ZM167.77 311.2C164.236 311.2 161.27 312.2 158.87 314.2C156.47 316.2 155.003 318.933 154.47 322.4H180.97C180.436 319 178.97 316.3 176.57 314.3C174.17 312.233 171.236 311.2 167.77 311.2ZM206.055 279.8H221.655V354H206.055V279.8ZM288.834 327.3C288.834 327.5 288.734 328.9 288.534 331.5H247.834C248.567 334.833 250.3 337.467 253.034 339.4C255.767 341.333 259.167 342.3 263.234 342.3C266.034 342.3 268.5 341.9 270.634 341.1C272.834 340.233 274.867 338.9 276.734 337.1L285.034 346.1C279.967 351.9 272.567 354.8 262.834 354.8C256.767 354.8 251.4 353.633 246.734 351.3C242.067 348.9 238.467 345.6 235.934 341.4C233.4 337.2 232.134 332.433 232.134 327.1C232.134 321.833 233.367 317.1 235.834 312.9C238.367 308.633 241.8 305.333 246.134 303C250.534 300.6 255.434 299.4 260.834 299.4C266.1 299.4 270.867 300.533 275.134 302.8C279.4 305.067 282.734 308.333 285.134 312.6C287.6 316.8 288.834 321.7 288.834 327.3ZM260.934 311.2C257.4 311.2 254.434 312.2 252.034 314.2C249.634 316.2 248.167 318.933 247.634 322.4H274.134C273.6 319 272.134 316.3 269.734 314.3C267.334 312.233 264.4 311.2 260.934 311.2ZM325.22 354.8C319.486 354.8 314.32 353.633 309.72 351.3C305.186 348.9 301.62 345.6 299.02 341.4C296.486 337.2 295.22 332.433 295.22 327.1C295.22 321.767 296.486 317 299.02 312.8C301.62 308.6 305.186 305.333 309.72 303C314.32 300.6 319.486 299.4 325.22 299.4C330.886 299.4 335.82 300.6 340.02 303C344.286 305.333 347.386 308.7 349.32 313.1L337.22 319.6C334.42 314.667 330.386 312.2 325.12 312.2C321.053 312.2 317.686 313.533 315.02 316.2C312.353 318.867 311.02 322.5 311.02 327.1C311.02 331.7 312.353 335.333 315.02 338C317.686 340.667 321.053 342 325.12 342C330.453 342 334.486 339.533 337.22 334.6L349.32 341.2C347.386 345.467 344.286 348.8 340.02 351.2C335.82 353.6 330.886 354.8 325.22 354.8ZM393.783 351.4C392.249 352.533 390.349 353.4 388.083 354C385.883 354.533 383.549 354.8 381.083 354.8C374.683 354.8 369.716 353.167 366.183 349.9C362.716 346.633 360.983 341.833 360.983 335.5V313.4H352.683V301.4H360.983V288.3H376.583V301.4H389.983V313.4H376.583V335.3C376.583 337.567 377.149 339.333 378.283 340.6C379.483 341.8 381.149 342.4 383.283 342.4C385.749 342.4 387.849 341.733 389.583 340.4L393.783 351.4ZM452.56 299.4C460.893 299.4 467.293 301.4 471.76 305.4C476.227 309.333 478.46 315.3 478.46 323.3V354H463.86V347.3C460.927 352.3 455.46 354.8 447.46 354.8C443.327 354.8 439.727 354.1 436.66 352.7C433.66 351.3 431.36 349.367 429.76 346.9C428.16 344.433 427.36 341.633 427.36 338.5C427.36 333.5 429.227 329.567 432.96 326.7C436.76 323.833 442.593 322.4 450.46 322.4H462.86C462.86 319 461.827 316.4 459.76 314.6C457.693 312.733 454.593 311.8 450.46 311.8C447.593 311.8 444.76 312.267 441.96 313.2C439.227 314.067 436.893 315.267 434.96 316.8L429.36 305.9C432.293 303.833 435.793 302.233 439.86 301.1C443.993 299.967 448.227 299.4 452.56 299.4ZM451.36 344.3C454.027 344.3 456.393 343.7 458.46 342.5C460.527 341.233 461.993 339.4 462.86 337V331.5H452.16C445.76 331.5 442.56 333.6 442.56 337.8C442.56 339.8 443.327 341.4 444.86 342.6C446.46 343.733 448.627 344.3 451.36 344.3ZM552.699 299.4C557.699 299.4 562.233 300.567 566.299 302.9C570.433 305.167 573.666 308.4 575.999 312.6C578.333 316.733 579.499 321.567 579.499 327.1C579.499 332.633 578.333 337.5 575.999 341.7C573.666 345.833 570.433 349.067 566.299 351.4C562.233 353.667 557.699 354.8 552.699 354.8C545.833 354.8 540.433 352.633 536.499 348.3V373.4H520.899V300.2H535.799V306.4C539.666 301.733 545.299 299.4 552.699 299.4ZM549.999 342C553.999 342 557.266 340.667 559.799 338C562.399 335.267 563.699 331.633 563.699 327.1C563.699 322.567 562.399 318.967 559.799 316.3C557.266 313.567 553.999 312.2 549.999 312.2C545.999 312.2 542.699 313.567 540.099 316.3C537.566 318.967 536.299 322.567 536.299 327.1C536.299 331.633 537.566 335.267 540.099 338C542.699 340.667 545.999 342 549.999 342ZM615.542 354.8C609.876 354.8 604.776 353.633 600.242 351.3C595.776 348.9 592.276 345.6 589.742 341.4C587.209 337.2 585.942 332.433 585.942 327.1C585.942 321.767 587.209 317 589.742 312.8C592.276 308.6 595.776 305.333 600.242 303C604.776 300.6 609.876 299.4 615.542 299.4C621.209 299.4 626.276 300.6 630.742 303C635.209 305.333 638.709 308.6 641.242 312.8C643.776 317 645.042 321.767 645.042 327.1C645.042 332.433 643.776 337.2 641.242 341.4C638.709 345.6 635.209 348.9 630.742 351.3C626.276 353.633 621.209 354.8 615.542 354.8ZM615.542 342C619.542 342 622.809 340.667 625.342 338C627.942 335.267 629.242 331.633 629.242 327.1C629.242 322.567 627.942 318.967 625.342 316.3C622.809 313.567 619.542 312.2 615.542 312.2C611.542 312.2 608.242 313.567 605.642 316.3C603.042 318.967 601.742 322.567 601.742 327.1C601.742 331.633 603.042 335.267 605.642 338C608.242 340.667 611.542 342 615.542 342ZM673.57 354.8C669.103 354.8 664.736 354.267 660.47 353.2C656.203 352.067 652.803 350.667 650.27 349L655.47 337.8C657.87 339.333 660.77 340.6 664.17 341.6C667.57 342.533 670.903 343 674.17 343C680.77 343 684.07 341.367 684.07 338.1C684.07 336.567 683.17 335.467 681.37 334.8C679.57 334.133 676.803 333.567 673.07 333.1C668.67 332.433 665.036 331.667 662.17 330.8C659.303 329.933 656.803 328.4 654.67 326.2C652.603 324 651.57 320.867 651.57 316.8C651.57 313.4 652.536 310.4 654.47 307.8C656.47 305.133 659.336 303.067 663.07 301.6C666.87 300.133 671.336 299.4 676.47 299.4C680.27 299.4 684.036 299.833 687.77 300.7C691.57 301.5 694.703 302.633 697.17 304.1L691.97 315.2C687.236 312.533 682.07 311.2 676.47 311.2C673.136 311.2 670.636 311.667 668.97 312.6C667.303 313.533 666.47 314.733 666.47 316.2C666.47 317.867 667.37 319.033 669.17 319.7C670.97 320.367 673.836 321 677.77 321.6C682.17 322.333 685.77 323.133 688.57 324C691.37 324.8 693.803 326.3 695.87 328.5C697.936 330.7 698.97 333.767 698.97 337.7C698.97 341.033 697.97 344 695.97 346.6C693.97 349.2 691.036 351.233 687.17 352.7C683.37 354.1 678.836 354.8 673.57 354.8ZM743.295 351.4C741.761 352.533 739.861 353.4 737.595 354C735.395 354.533 733.061 354.8 730.595 354.8C724.195 354.8 719.228 353.167 715.695 349.9C712.228 346.633 710.495 341.833 710.495 335.5V313.4H702.195V301.4H710.495V288.3H726.095V301.4H739.495V313.4H726.095V335.3C726.095 337.567 726.661 339.333 727.795 340.6C728.995 341.8 730.661 342.4 732.795 342.4C735.261 342.4 737.361 341.733 739.095 340.4L743.295 351.4ZM759.028 335.4C761.828 335.4 764.128 336.3 765.928 338.1C767.728 339.833 768.628 342.133 768.628 345C768.628 346.333 768.461 347.667 768.128 349C767.795 350.333 767.061 352.333 765.928 355L760.228 369.4H750.328L754.728 353.5C753.061 352.833 751.728 351.767 750.728 350.3C749.795 348.767 749.328 347 749.328 345C749.328 342.133 750.228 339.833 752.028 338.1C753.895 336.3 756.228 335.4 759.028 335.4ZM111 421.4C116 421.4 120.533 422.567 124.6 424.9C128.733 427.167 131.967 430.4 134.3 434.6C136.633 438.733 137.8 443.567 137.8 449.1C137.8 454.633 136.633 459.5 134.3 463.7C131.967 467.833 128.733 471.067 124.6 473.4C120.533 475.667 116 476.8 111 476.8C104.133 476.8 98.7333 474.633 94.8 470.3V495.4H79.2V422.2H94.1V428.4C97.9667 423.733 103.6 421.4 111 421.4ZM108.3 464C112.3 464 115.567 462.667 118.1 460C120.7 457.267 122 453.633 122 449.1C122 444.567 120.7 440.967 118.1 438.3C115.567 435.567 112.3 434.2 108.3 434.2C104.3 434.2 101 435.567 98.4 438.3C95.8667 440.967 94.6 444.567 94.6 449.1C94.6 453.633 95.8667 457.267 98.4 460C101 462.667 104.3 464 108.3 464ZM148.243 401.8H163.843V476H148.243V401.8ZM231.021 449.3C231.021 449.5 230.921 450.9 230.721 453.5H190.021C190.754 456.833 192.488 459.467 195.221 461.4C197.954 463.333 201.354 464.3 205.421 464.3C208.221 464.3 210.688 463.9 212.821 463.1C215.021 462.233 217.054 460.9 218.921 459.1L227.221 468.1C222.154 473.9 214.754 476.8 205.021 476.8C198.954 476.8 193.588 475.633 188.921 473.3C184.254 470.9 180.654 467.6 178.121 463.4C175.588 459.2 174.321 454.433 174.321 449.1C174.321 443.833 175.554 439.1 178.021 434.9C180.554 430.633 183.988 427.333 188.321 425C192.721 422.6 197.621 421.4 203.021 421.4C208.288 421.4 213.054 422.533 217.321 424.8C221.588 427.067 224.921 430.333 227.321 434.6C229.788 438.8 231.021 443.7 231.021 449.3ZM203.121 433.2C199.588 433.2 196.621 434.2 194.221 436.2C191.821 438.2 190.354 440.933 189.821 444.4H216.321C215.788 441 214.321 438.3 211.921 436.3C209.521 434.233 206.588 433.2 203.121 433.2ZM261.642 421.4C269.976 421.4 276.376 423.4 280.842 427.4C285.309 431.333 287.542 437.3 287.542 445.3V476H272.942V469.3C270.009 474.3 264.542 476.8 256.542 476.8C252.409 476.8 248.809 476.1 245.742 474.7C242.742 473.3 240.442 471.367 238.842 468.9C237.242 466.433 236.442 463.633 236.442 460.5C236.442 455.5 238.309 451.567 242.042 448.7C245.842 445.833 251.676 444.4 259.542 444.4H271.942C271.942 441 270.909 438.4 268.842 436.6C266.776 434.733 263.676 433.8 259.542 433.8C256.676 433.8 253.842 434.267 251.042 435.2C248.309 436.067 245.976 437.267 244.042 438.8L238.442 427.9C241.376 425.833 244.876 424.233 248.942 423.1C253.076 421.967 257.309 421.4 261.642 421.4ZM260.442 466.3C263.109 466.3 265.476 465.7 267.542 464.5C269.609 463.233 271.076 461.4 271.942 459V453.5H261.242C254.842 453.5 251.642 455.6 251.642 459.8C251.642 461.8 252.409 463.4 253.942 464.6C255.542 465.733 257.709 466.3 260.442 466.3ZM319.761 476.8C315.294 476.8 310.928 476.267 306.661 475.2C302.394 474.067 298.994 472.667 296.461 471L301.661 459.8C304.061 461.333 306.961 462.6 310.361 463.6C313.761 464.533 317.094 465 320.361 465C326.961 465 330.261 463.367 330.261 460.1C330.261 458.567 329.361 457.467 327.561 456.8C325.761 456.133 322.994 455.567 319.261 455.1C314.861 454.433 311.228 453.667 308.361 452.8C305.494 451.933 302.994 450.4 300.861 448.2C298.794 446 297.761 442.867 297.761 438.8C297.761 435.4 298.728 432.4 300.661 429.8C302.661 427.133 305.528 425.067 309.261 423.6C313.061 422.133 317.528 421.4 322.661 421.4C326.461 421.4 330.228 421.833 333.961 422.7C337.761 423.5 340.894 424.633 343.361 426.1L338.161 437.2C333.428 434.533 328.261 433.2 322.661 433.2C319.328 433.2 316.828 433.667 315.161 434.6C313.494 435.533 312.661 436.733 312.661 438.2C312.661 439.867 313.561 441.033 315.361 441.7C317.161 442.367 320.028 443 323.961 443.6C328.361 444.333 331.961 445.133 334.761 446C337.561 446.8 339.994 448.3 342.061 450.5C344.128 452.7 345.161 455.767 345.161 459.7C345.161 463.033 344.161 466 342.161 468.6C340.161 471.2 337.228 473.233 333.361 474.7C329.561 476.1 325.028 476.8 319.761 476.8ZM407.486 449.3C407.486 449.5 407.386 450.9 407.186 453.5H366.486C367.219 456.833 368.953 459.467 371.686 461.4C374.419 463.333 377.819 464.3 381.886 464.3C384.686 464.3 387.153 463.9 389.286 463.1C391.486 462.233 393.519 460.9 395.386 459.1L403.686 468.1C398.619 473.9 391.219 476.8 381.486 476.8C375.419 476.8 370.053 475.633 365.386 473.3C360.719 470.9 357.119 467.6 354.586 463.4C352.053 459.2 350.786 454.433 350.786 449.1C350.786 443.833 352.019 439.1 354.486 434.9C357.019 430.633 360.453 427.333 364.786 425C369.186 422.6 374.086 421.4 379.486 421.4C384.753 421.4 389.519 422.533 393.786 424.8C398.053 427.067 401.386 430.333 403.786 434.6C406.253 438.8 407.486 443.7 407.486 449.3ZM379.586 433.2C376.053 433.2 373.086 434.2 370.686 436.2C368.286 438.2 366.819 440.933 366.286 444.4H392.786C392.253 441 390.786 438.3 388.386 436.3C385.986 434.233 383.053 433.2 379.586 433.2ZM423.772 476.8C421.039 476.8 418.739 475.867 416.872 474C415.005 472.133 414.072 469.8 414.072 467C414.072 464.133 415.005 461.833 416.872 460.1C418.739 458.3 421.039 457.4 423.772 457.4C426.505 457.4 428.805 458.3 430.672 460.1C432.539 461.833 433.472 464.133 433.472 467C433.472 469.8 432.539 472.133 430.672 474C428.805 475.867 426.505 476.8 423.772 476.8Z" fill="white"/>
<rect x="1119" width="1467" height="594" rx="100" fill="#FFDFDF"/>
<rect x="1186" y="66" width="462" height="462" rx="50" fill="#FF5858"/>
<path d="M810.668 1195.16V1606.21C810.668 1606.21 981.733 1686.2 1093.72 1702.2C1205.72 1718.2 1288.17 1606.21 1288.17 1606.21V1160.7H1410.92L1248.79 877.644C1248.79 877.644 1205.18 710.328 1093.72 697.965C963.592 683.529 854.902 754.411 810.668 877.644C786.313 945.497 810.668 1062.25 810.668 1062.25C795.08 1055.68 712.214 1052.21 712.214 1109.01C712.214 1174.24 768.825 1183.67 810.668 1195.16Z" fill="white"/>
<path fill-rule="evenodd" clip-rule="evenodd" d="M806.433 1615.27C802.916 1613.62 800.669 1610.09 800.669 1606.21V1202.84C799.951 1202.65 799.228 1202.46 798.499 1202.27C780.099 1197.44 758.272 1191.7 740.503 1180.75C729.739 1174.12 720.035 1165.36 713.072 1153.41C706.095 1141.43 702.214 1126.82 702.214 1109.01C702.214 1092.06 708.525 1079 718.543 1069.55C728.275 1060.37 740.957 1055.08 753.273 1052.14C765.667 1049.18 778.416 1048.42 789.07 1048.8C792.201 1048.92 795.265 1049.13 798.17 1049.45C797.912 1047.9 797.644 1046.26 797.367 1044.51C795.435 1032.32 793.115 1015.34 791.568 996.196C788.507 958.328 788.309 910.337 801.256 874.266C846.989 746.856 959.906 673.059 1094.83 688.026C1155.54 694.76 1196.51 743.42 1221.73 787.472C1234.51 809.782 1243.66 831.627 1249.62 847.861C1252.61 855.992 1254.8 862.75 1256.26 867.499C1256.99 869.875 1257.53 871.75 1257.9 873.047C1257.97 873.319 1258.04 873.565 1258.1 873.785L1419.6 1155.73C1421.37 1158.83 1421.36 1162.63 1419.57 1165.72C1417.79 1168.8 1414.49 1170.7 1410.92 1170.7H1298.17V1606.21C1298.17 1608.34 1297.49 1610.42 1296.23 1612.14L1288.17 1606.21V1160.7H1410.92L1248.79 877.644C1248.79 877.644 1205.18 710.328 1093.72 697.965C963.592 683.529 854.902 754.411 810.669 877.644C790.849 932.86 803.286 1020.45 808.606 1051.17C809.824 1058.2 810.669 1062.25 810.669 1062.25C808.39 1061.29 804.675 1060.39 799.991 1059.75C772.628 1055.96 712.214 1060.52 712.214 1109.01C712.214 1169.18 760.388 1181.88 800.703 1192.5C804.092 1193.39 807.425 1194.27 810.669 1195.16V1606.21L806.433 1615.27ZM810.669 1606.21C810.669 1606.21 981.733 1686.2 1093.72 1702.2C1205.72 1718.2 1288.17 1606.21 1288.17 1606.21C1296.23 1612.14 1296.22 1612.14 1296.22 1612.14L1296.21 1612.15L1296.19 1612.18L1296.13 1612.26C1296.08 1612.33 1296.01 1612.43 1295.92 1612.55C1295.77 1612.74 1295.57 1613 1295.32 1613.33C1295.26 1613.41 1295.2 1613.49 1295.13 1613.58C1294.45 1614.46 1293.45 1615.72 1292.16 1617.31C1289.57 1620.48 1285.78 1624.95 1280.88 1630.25C1271.1 1640.82 1256.85 1654.75 1238.95 1668.2C1203.32 1694.96 1152.04 1720.63 1092.31 1712.1C1035.11 1703.93 963.442 1679.56 906.586 1657.53C878.047 1646.47 853.034 1635.91 835.153 1628.12C826.211 1624.23 819.046 1621.02 814.11 1618.78C811.642 1617.67 809.731 1616.79 808.433 1616.19C807.784 1615.89 807.288 1615.66 806.952 1615.51L806.569 1615.33L806.443 1615.27L806.436 1615.27C806.434 1615.27 806.433 1615.27 810.669 1606.21Z" fill="black"/>
<path d="M841.436 1093.01L814.361 1068.4L787.286 1059.79C787.286 1059.79 682.836 813.512 787.286 766.883C807.19 757.997 820.688 760.029 841.436 753.346C915.579 729.46 935.009 664.618 1011.27 648.738C1153.54 619.111 1414.88 674.662 1358.32 813.649C1310.89 930.2 1161.41 889.951 1042.04 875.183C973.027 866.646 866.049 848.108 866.049 848.108L870.972 1120.09L841.436 1093.01Z" fill="black"/>
<path fill-rule="evenodd" clip-rule="evenodd" d="M763.883 1109.09C761.209 1109.78 759.602 1112.51 760.292 1115.19C760.983 1117.86 763.709 1119.47 766.382 1118.78L766.384 1118.78" fill="black"/>
<path d="M767.594 1547.13C782.86 1547.19 793.425 1553 802.053 1565.59C812.646 1581.06 802.053 1604.98 802.053 1604.98C802.053 1604.98 974.348 1711.14 1130.64 1711.14C1209.21 1711.14 1296.79 1613.59 1296.79 1613.59C1296.79 1613.59 1285.39 1583.46 1296.79 1571.75C1306.32 1561.95 1317.65 1564.21 1331.25 1565.59C1345.19 1567.01 1353.8 1570.05 1364.47 1579.13C1390.46 1601.24 1364.47 1666.51 1364.47 1666.51C1364.47 1666.51 1337.35 1732.51 1307.86 1766.2C1256.16 1825.24 1208.02 1847.82 1130.64 1860.96C1035.71 1877.08 977.651 1845.64 890.662 1804.35C824.181 1772.79 764.888 1764.79 735.596 1697.28C716.06 1652.25 696.389 1608.03 729.443 1571.75C741.383 1558.64 749.863 1547.07 767.594 1547.13Z" fill="white"/>
<path fill-rule="evenodd" clip-rule="evenodd" d="M729.105 1564.64C739.215 1553.29 749.215 1542.07 767.611 1542.13C775.895 1542.16 783.197 1543.76 789.686 1547.26C796.168 1550.75 801.523 1555.97 806.178 1562.77C812.578 1572.11 812.354 1583.57 810.957 1591.91C810.242 1596.19 809.173 1599.92 808.287 1602.58C808.258 1602.66 808.229 1602.75 808.201 1602.83C809.308 1603.49 810.667 1604.29 812.266 1605.21C817.239 1608.09 824.532 1612.21 833.776 1617.16C852.268 1627.05 878.551 1640.25 909.689 1653.45C972.073 1679.9 1053.49 1706.14 1130.65 1706.14C1168.15 1706.14 1208.54 1682.69 1240.13 1658.4C1255.8 1646.35 1269.06 1634.29 1278.4 1625.24C1283.06 1620.72 1286.75 1616.96 1289.26 1614.33C1289.96 1613.59 1290.58 1612.94 1291.09 1612.39C1290.88 1611.73 1290.64 1610.96 1290.39 1610.12C1289.46 1606.97 1288.33 1602.62 1287.58 1597.84C1286.83 1593.1 1286.41 1587.74 1287.02 1582.64C1287.62 1577.57 1289.3 1572.27 1293.2 1568.26C1303.7 1557.47 1316.45 1558.91 1328.18 1560.23C1329.38 1560.37 1330.57 1560.5 1331.75 1560.62C1338.97 1561.36 1345.11 1562.54 1350.93 1564.84C1356.78 1567.16 1362.06 1570.52 1367.71 1575.32C1375.51 1581.95 1379.09 1591.55 1380.4 1601.46C1381.71 1611.38 1380.82 1622.16 1379.15 1631.95C1377.48 1641.78 1374.97 1650.86 1372.9 1657.47C1371.86 1660.77 1370.92 1663.48 1370.24 1665.36C1369.9 1666.3 1369.63 1667.04 1369.43 1667.55C1369.34 1667.81 1369.26 1668 1369.21 1668.14C1369.18 1668.21 1369.16 1668.26 1369.14 1668.3L1369.13 1668.34L1369.12 1668.35L1369.12 1668.36C1369.12 1668.36 1369.12 1668.36 1364.47 1666.51C1369.1 1668.41 1369.1 1668.41 1369.1 1668.41L1369.1 1668.42L1369.09 1668.43L1369.08 1668.47L1369.01 1668.62C1368.96 1668.75 1368.88 1668.94 1368.77 1669.19C1368.56 1669.69 1368.25 1670.43 1367.85 1671.38C1367.04 1673.27 1365.85 1676.01 1364.34 1679.39C1361.31 1686.16 1356.97 1695.54 1351.69 1705.98C1341.19 1726.75 1326.81 1752.15 1311.62 1769.49C1285.46 1799.37 1260.02 1820.21 1231.19 1835.23C1202.39 1850.22 1170.45 1859.27 1131.48 1865.89C1040.39 1881.35 982.324 1853.63 903.411 1815.96C898.531 1813.63 893.571 1811.26 888.518 1808.86C873.793 1801.87 859.424 1796.05 845.519 1790.42C843.881 1789.75 842.249 1789.09 840.624 1788.43C825.269 1782.19 810.48 1776.03 796.819 1768.7C769.3 1753.93 746.211 1734.3 731.01 1699.27C730.774 1698.72 730.538 1698.18 730.302 1697.64C720.833 1675.82 711.12 1653.45 707.856 1631.99C704.457 1609.64 707.978 1587.89 725.747 1568.38C726.875 1567.14 727.991 1565.89 729.105 1564.64ZM1364.47 1666.51L1369.1 1668.41L1369.11 1668.39L1369.12 1668.36L1364.47 1666.51ZM1359.83 1664.66L1359.83 1664.66L1359.83 1664.65L1359.84 1664.63L1359.85 1664.62L1359.85 1664.61L1359.89 1664.51C1359.93 1664.39 1360 1664.22 1360.09 1663.99C1360.26 1663.54 1360.52 1662.85 1360.84 1661.97C1361.48 1660.19 1362.37 1657.63 1363.36 1654.47C1365.35 1648.14 1367.72 1639.52 1369.29 1630.27C1370.87 1620.98 1371.61 1611.3 1370.48 1602.77C1369.35 1594.22 1366.44 1587.37 1361.23 1582.94C1356.21 1578.67 1351.85 1575.97 1347.24 1574.14C1342.6 1572.3 1337.47 1571.25 1330.74 1570.57C1329.67 1570.46 1328.64 1570.35 1327.63 1570.24C1314.98 1568.91 1307.31 1568.1 1300.37 1575.23C1298.57 1577.08 1297.41 1579.95 1296.95 1583.82C1296.49 1587.67 1296.78 1592.03 1297.45 1596.28C1298.12 1600.5 1299.13 1604.41 1299.98 1607.28C1300.4 1608.71 1300.78 1609.87 1301.05 1610.66C1301.19 1611.05 1301.29 1611.35 1301.36 1611.55C1301.4 1611.65 1301.43 1611.73 1301.44 1611.77L1301.46 1611.82L1301.46 1611.82L1301.46 1611.82L1301.46 1611.83L1302.54 1614.67L1300.51 1616.93L1296.79 1613.59C1300.51 1616.93 1300.51 1616.93 1300.51 1616.93L1300.5 1616.94L1300.43 1617.02C1300.39 1617.07 1300.32 1617.14 1300.23 1617.24C1300.05 1617.43 1299.79 1617.71 1299.46 1618.08C1298.78 1618.81 1297.78 1619.88 1296.49 1621.24C1293.9 1623.94 1290.13 1627.8 1285.36 1632.42C1275.82 1641.66 1262.27 1653.99 1246.23 1666.33C1214.39 1690.81 1171.71 1716.14 1130.65 1716.14C1051.5 1716.14 968.625 1689.3 905.787 1662.66C874.314 1649.32 847.755 1635.98 829.057 1625.97C819.707 1620.97 812.317 1616.79 807.258 1613.87C804.728 1612.4 802.78 1611.25 801.46 1610.46C800.8 1610.07 800.297 1609.76 799.957 1609.55C799.787 1609.45 799.658 1609.37 799.57 1609.32L799.469 1609.26L799.434 1609.24C799.432 1609.23 799.431 1609.23 802.053 1604.98L799.431 1609.23L795.714 1606.94L797.479 1602.96L797.48 1602.96L797.482 1602.95L797.492 1602.93C797.505 1602.9 797.528 1602.84 797.558 1602.77C797.62 1602.62 797.714 1602.39 797.835 1602.09C798.075 1601.48 798.417 1600.57 798.799 1599.42C799.568 1597.11 800.486 1593.9 801.094 1590.26C802.346 1582.78 802.123 1574.54 797.929 1568.42C793.955 1562.62 789.715 1558.64 784.94 1556.06C780.174 1553.49 774.56 1552.16 767.577 1552.13C753.886 1552.09 746.954 1559.79 736.376 1571.54C735.336 1572.69 734.26 1573.89 733.139 1575.12C717.854 1591.89 714.685 1610.39 717.742 1630.48C720.808 1650.64 730.07 1671.98 739.768 1694.33L740.184 1695.29C754.274 1727.76 775.477 1745.89 801.548 1759.89C814.682 1766.94 829.012 1772.92 844.388 1779.17C846.007 1779.82 847.638 1780.48 849.28 1781.15C863.158 1786.77 877.801 1792.71 892.806 1799.83C897.708 1802.16 902.512 1804.45 907.232 1806.7C986.514 1844.53 1041.9 1870.95 1129.81 1856.03C1168.21 1849.51 1199.03 1840.7 1226.57 1826.36C1254.08 1812.04 1278.57 1792.06 1304.1 1762.9C1318.41 1746.56 1332.33 1722.11 1342.77 1701.47C1347.96 1691.2 1352.23 1681.97 1355.21 1675.31C1356.7 1671.98 1357.86 1669.3 1358.65 1667.45C1359.05 1666.52 1359.35 1665.81 1359.55 1665.33C1359.61 1665.19 1359.66 1665.08 1359.7 1664.98C1359.73 1664.9 1359.76 1664.84 1359.78 1664.79" fill="black"/>
<path fill-rule="evenodd" clip-rule="evenodd" d="M799.775 1600.58C799.775 1600.59 799.776 1600.59 796.087 1603.59L799.776 1600.59C801.521 1602.73 801.2 1605.88 799.06 1607.62C796.92 1609.36 793.773 1609.05 792.027 1606.91C792.027 1606.91 792.026 1606.91 792.025 1606.9L792.006 1606.88C791.986 1606.86 791.953 1606.82 791.907 1606.76C791.816 1606.65 791.673 1606.49 791.483 1606.27C791.103 1605.83 790.536 1605.19 789.814 1604.42C788.363 1602.88 786.315 1600.83 783.918 1598.81C781.505 1596.78 778.843 1594.87 776.165 1593.5C773.453 1592.12 771.036 1591.46 769.013 1591.52C768.799 1591.53 768.679 1591.55 768.618 1591.58C767.754 1594.03 765.12 1595.44 762.571 1594.73C759.909 1594 758.348 1591.24 759.084 1588.58L763.903 1589.91C759.084 1588.58 759.084 1588.58 759.085 1588.57L759.087 1588.57L759.09 1588.56L759.097 1588.53L759.112 1588.48C759.122 1588.45 759.135 1588.41 759.148 1588.36C759.176 1588.28 759.21 1588.17 759.251 1588.06C759.334 1587.83 759.448 1587.55 759.6 1587.24C759.902 1586.61 760.379 1585.79 761.108 1584.96C762.66 1583.2 765.161 1581.63 768.708 1581.52C773.027 1581.39 777.161 1582.79 780.709 1584.6C784.29 1586.42 787.595 1588.84 790.357 1591.16C793.134 1593.5 795.468 1595.83 797.105 1597.58C797.927 1598.45 798.58 1599.19 799.035 1599.71C799.262 1599.97 799.44 1600.18 799.565 1600.33C799.628 1600.41 799.677 1600.47 799.712 1600.51L799.754 1600.56L799.768 1600.58L799.773 1600.58L799.775 1600.58ZM768.566 1591.6C768.564 1591.6 768.573 1591.59 768.6 1591.58C768.581 1591.6 768.568 1591.61 768.566 1591.6Z" fill="black"/>
<path fill-rule="evenodd" clip-rule="evenodd" d="M1293.9 1613.21C1293.9 1613.21 1293.9 1613.21 1298.02 1616.05L1293.9 1613.21C1292.33 1615.49 1292.91 1618.6 1295.18 1620.17C1297.45 1621.74 1300.56 1621.16 1302.13 1618.89C1302.13 1618.89 1302.13 1618.89 1302.13 1618.89C1302.13 1618.89 1302.13 1618.89 1302.13 1618.89C1302.13 1618.89 1302.13 1618.89 1302.13 1618.89L1302.13 1618.89L1302.15 1618.87C1302.17 1618.84 1302.19 1618.81 1302.23 1618.75C1302.31 1618.64 1302.43 1618.47 1302.59 1618.26C1302.91 1617.82 1303.39 1617.18 1304 1616.42C1305.22 1614.87 1306.95 1612.84 1308.96 1610.84C1310.99 1608.82 1313.2 1606.95 1315.38 1605.64C1317.41 1604.41 1319.08 1603.88 1320.36 1603.83C1321.17 1606.24 1323.7 1607.68 1326.23 1607.09C1328.92 1606.46 1330.59 1603.77 1329.96 1601.08L1325.15 1602.21C1329.96 1601.08 1329.96 1601.08 1329.96 1601.08L1329.96 1601.07L1329.96 1601.06L1329.95 1601.04L1329.94 1600.99C1329.93 1600.96 1329.92 1600.92 1329.91 1600.89C1329.89 1600.81 1329.86 1600.71 1329.83 1600.61C1329.77 1600.39 1329.67 1600.13 1329.55 1599.82C1329.31 1599.23 1328.91 1598.42 1328.29 1597.58C1326.97 1595.82 1324.63 1593.96 1321.08 1593.83C1317.03 1593.69 1313.28 1595.23 1310.21 1597.08C1307.1 1598.95 1304.25 1601.42 1301.91 1603.75C1299.54 1606.1 1297.56 1608.45 1296.17 1610.2C1295.47 1611.07 1294.92 1611.81 1294.53 1612.34C1294.34 1612.6 1294.19 1612.81 1294.08 1612.96C1294.03 1613.03 1293.99 1613.09 1293.96 1613.13L1293.92 1613.19L1293.91 1613.2L1293.9 1613.21Z" fill="black"/>
<path d="M420.543 1836.34C509.067 1733.99 718.367 1670.2 718.367 1670.2C718.367 1670.2 747.199 1725.98 774.978 1752.66C812.065 1788.27 850.009 1781.1 898.047 1799.42C962.01 1823.82 989.833 1857.48 1058.03 1863.42C1137.93 1870.37 1191.71 1860.18 1257.41 1814.19C1324.78 1767.03 1373.09 1638.2 1373.09 1638.2C1373.09 1638.2 1580.53 1726.97 1663.53 1836.34C1807.37 2025.9 1704.14 2444.3 1704.14 2444.3H379.93C379.93 2444.3 264.888 2016.32 420.543 1836.34Z" fill="white"/>
<path fill-rule="evenodd" clip-rule="evenodd" d="M715.452 1660.64L718.367 1670.2ZM727.251 1665.61L727.253 1665.61L727.265 1665.64L727.32 1665.74C727.37 1665.84 727.448 1665.99 727.552 1666.19C727.759 1666.58 728.071 1667.17 728.481 1667.94C729.3 1669.47 730.509 1671.71 732.048 1674.48C735.129 1680.02 739.522 1687.69 744.762 1696.17C755.376 1713.34 768.982 1733.04 781.905 1745.44C798.719 1761.59 815.621 1768.1 834.794 1772.81C840.147 1774.13 845.861 1775.33 851.868 1776.59C866.962 1779.76 883.906 1783.33 901.611 1790.08C925.877 1799.34 945.41 1810.06 963.131 1819.8C969.287 1823.18 975.224 1826.44 981.065 1829.47C1003.86 1841.33 1026.56 1850.64 1058.9 1853.46C1098.26 1856.88 1130.52 1856.02 1160.76 1848.92C1190.92 1841.85 1219.63 1828.43 1251.67 1806C1283.3 1783.86 1311.31 1741.7 1331.71 1703.77C1341.8 1685.02 1349.82 1667.71 1355.32 1655.08C1358.07 1648.77 1360.18 1643.64 1361.6 1640.1C1362.31 1638.34 1362.85 1636.97 1363.21 1636.05C1363.38 1635.59 1363.52 1635.24 1363.6 1635.01L1363.7 1634.76L1363.73 1634.69C1363.73 1634.69 1363.73 1634.69 1363.73 1634.69C1364.69 1632.14 1366.65 1630.08 1369.16 1629.01C1371.67 1627.94 1374.51 1627.94 1377.02 1629.01L1373.09 1638.2C1373.09 1638.2 1371.81 1641.6 1369.39 1647.5C1356.89 1677.9 1313.84 1774.69 1257.41 1814.19C1191.71 1860.18 1137.93 1870.37 1058.04 1863.42C1014.96 1859.67 987.99 1844.86 957.85 1828.31C940.27 1818.66 921.611 1808.41 898.047 1799.42C881.119 1792.97 865.445 1789.67 850.62 1786.56C823.374 1780.84 798.996 1775.72 774.979 1752.66C747.199 1725.98 718.367 1670.2 718.367 1670.2C718.367 1670.2 509.067 1733.99 420.543 1836.34C264.888 2016.32 379.93 2444.3 379.93 2444.3C370.273 2446.9 370.272 2446.89 370.271 2446.89L370.248 2446.8L370.181 2446.55C370.124 2446.33 370.039 2446.01 369.93 2445.59C369.711 2444.76 369.391 2443.52 368.982 2441.9C368.165 2438.68 366.992 2433.94 365.558 2427.85C362.69 2415.69 358.776 2398.14 354.571 2376.53C346.166 2333.32 336.58 2273.79 331.892 2208.53C327.207 2143.32 327.387 2072.09 338.671 2005.59C349.942 1939.18 372.423 1876.7 412.979 1829.8C458.746 1776.88 534.918 1734.62 598.523 1705.78C630.515 1691.28 659.699 1680.01 680.887 1672.36C691.486 1668.54 700.096 1665.62 706.07 1663.65C709.057 1662.66 711.387 1661.91 712.977 1661.41C713.772 1661.16 714.383 1660.97 714.799 1660.84C715.007 1660.77 715.166 1660.72 715.275 1660.69L715.402 1660.65L715.447 1660.64C715.45 1660.64 715.452 1660.64 718.367 1670.2M1704.14 2444.3C1704.14 2444.3 1807.37 2025.9 1663.53 1836.34C1590.95 1740.7 1423.22 1660.82 1382.24 1642.27C1376.36 1639.6 1373.09 1638.2 1373.09 1638.2C1377.02 1629.01 1377.03 1629.01 1377.03 1629.01L1377.04 1629.02L1377.2 1629.09C1377.3 1629.13 1377.46 1629.2 1377.67 1629.29C1378.08 1629.47 1378.68 1629.73 1379.46 1630.07C1381.03 1630.76 1383.34 1631.79 1386.29 1633.12C1392.19 1635.79 1400.7 1639.72 1411.15 1644.78C1432.06 1654.89 1460.8 1669.51 1492.18 1687.59C1554.58 1723.55 1628.71 1773.91 1671.5 1830.3C1708.82 1879.49 1729.74 1942.96 1740.43 2009.72C1751.14 2076.57 1751.7 2147.43 1747.76 2212.01C1743.82 2276.64 1735.35 2335.25 1727.87 2377.7C1724.13 2398.93 1720.64 2416.14 1718.07 2428.06C1716.79 2434.02 1715.74 2438.65 1715.01 2441.81C1714.64 2443.39 1714.36 2444.6 1714.16 2445.42C1714.06 2445.83 1713.99 2446.15 1713.93 2446.36L1713.87 2446.6L1713.85 2446.69C1713.85 2446.69 1713.85 2446.7 1704.14 2444.3ZM1704.14 2444.3H379.93L370.273 2446.9C371.447 2451.26 375.407 2454.3 379.93 2454.3H1704.14C1708.74 2454.3 1712.75 2451.16 1713.85 2446.7L1704.14 2444.3Z" fill="black"/>
<path fill-rule="evenodd" clip-rule="evenodd" d="M701.215 2118.19L699.985 2445.55L689.985 2445.51L691.215 2118.15L701.215 2118.19Z" fill="black"/>
<path fill-rule="evenodd" clip-rule="evenodd" d="M1540.47 2124.74L1593.39 2447.18L1583.52 2448.8L1530.6 2126.36L1540.47 2124.74Z" fill="black"/>
<path fill-rule="evenodd" clip-rule="evenodd" d="M1518.1 2095.59C1518.1 2095.59 1518.1 2095.59 1518.1 2095.59L1518.11 2095.62L1518.15 2095.72C1518.18 2095.81 1518.23 2095.95 1518.3 2096.13C1518.43 2096.5 1518.63 2097.03 1518.88 2097.7C1519.39 2099.03 1520.12 2100.89 1521 2102.97C1522.8 2107.21 1525.1 2112.05 1527.35 2115.34C1529.31 2118.19 1532.44 2121.62 1535.23 2124.47C1535.36 2124.61 1535.49 2124.74 1535.62 2124.87L1547.2 2104.61C1548.57 2102.22 1551.62 2101.38 1554.02 2102.75C1556.42 2104.12 1557.25 2107.18 1555.88 2109.57L1538.01 2140.84L1533.4 2136.63L1536.77 2132.94C1533.4 2136.63 1533.4 2136.63 1533.4 2136.63L1533.4 2136.63L1533.39 2136.63L1533.36 2136.6L1533.28 2136.52C1533.2 2136.45 1533.1 2136.35 1532.96 2136.23C1532.69 2135.97 1532.3 2135.61 1531.83 2135.16C1530.87 2134.25 1529.56 2132.96 1528.09 2131.47C1525.23 2128.55 1521.58 2124.6 1519.11 2121C1516.26 2116.84 1513.63 2111.22 1511.79 2106.87C1510.85 2104.65 1510.07 2102.67 1509.53 2101.24C1509.26 2100.53 1509.05 2099.95 1508.9 2099.55C1508.83 2099.35 1508.77 2099.19 1508.73 2099.08L1508.69 2098.96L1508.68 2098.92L1508.67 2098.91C1508.67 2098.91 1508.67 2098.91 1513.39 2097.25L1508.67 2098.91C1507.76 2096.3 1509.13 2093.45 1511.73 2092.53C1514.34 2091.62 1517.19 2092.99 1518.1 2095.59Z" fill="black"/>
<path fill-rule="evenodd" clip-rule="evenodd" d="M742.09 2055.58C744.711 2056.45 746.134 2059.28 745.266 2061.9L740.519 2060.33C745.266 2061.9 745.266 2061.9 745.266 2061.9L745.259 2061.92L745.24 2061.98C745.224 2062.02 745.201 2062.09 745.172 2062.18C745.112 2062.36 745.025 2062.61 744.911 2062.94C744.685 2063.6 744.354 2064.55 743.93 2065.71C743.084 2068.05 741.864 2071.29 740.368 2074.93C737.418 2082.09 733.243 2091.15 728.595 2097.69C723.803 2104.42 716.35 2111.51 710.331 2116.77C707.279 2119.43 704.513 2121.69 702.509 2123.29C701.506 2124.09 700.691 2124.73 700.123 2125.17C699.84 2125.39 699.617 2125.56 699.464 2125.67C699.388 2125.73 699.328 2125.78 699.287 2125.81L699.22 2125.86C699.219 2125.86 699.219 2125.86 696.215 2121.86L699.219 2125.86L692.916 2130.6L683.935 2087.19C683.375 2084.48 685.114 2081.84 687.818 2081.28C690.522 2080.72 693.168 2082.46 693.727 2085.16L699.463 2112.88C700.776 2111.79 702.228 2110.56 703.754 2109.23C709.672 2104.07 716.372 2097.62 720.446 2091.89C724.398 2086.33 728.222 2078.16 731.121 2071.12C732.55 2067.65 733.718 2064.54 734.528 2062.31C734.932 2061.19 735.246 2060.3 735.458 2059.68C735.564 2059.38 735.644 2059.14 735.697 2058.98C735.723 2058.9 735.743 2058.85 735.756 2058.81L735.769 2058.77L735.772 2058.76C735.772 2058.76 735.773 2058.76 735.773 2058.76M742.09 2055.58C739.468 2054.71 736.64 2056.14 735.773 2058.76Z" fill="black"/>
<path fill-rule="evenodd" clip-rule="evenodd" d="M1704.14 2455.45H379.93V2445.45H1704.14V2455.45Z" fill="white"/>
<path d="M1089.72 999.128C1089.72 1020.2 1081.45 1037.28 1071.25 1037.28C1061.06 1037.28 1052.79 1020.2 1052.79 999.128C1052.79 978.058 1061.06 960.977 1071.25 960.977C1081.45 960.977 1089.72 978.058 1089.72 999.128Z" fill="black"/>
<path d="M1195.55 999.128C1195.55 1020.2 1187.29 1037.28 1177.09 1037.28C1166.9 1037.28 1158.63 1020.2 1158.63 999.128C1158.63 978.058 1166.9 960.977 1177.09 960.977C1187.29 960.977 1195.55 978.058 1195.55 999.128Z" fill="black"/>
<path fill-rule="evenodd" clip-rule="evenodd" d="M1071.25 1056.82C1103.11 1056.82 1128.94 1030.99 1128.94 999.128C1128.94 967.268 1103.11 941.441 1071.25 941.441C1039.39 941.441 1013.57 967.268 1013.57 999.128C1013.57 1030.99 1039.39 1056.82 1071.25 1056.82ZM1071.25 1066.82C1108.64 1066.82 1138.94 1036.51 1138.94 999.128C1138.94 961.745 1108.64 931.441 1071.25 931.441C1033.87 931.441 1003.57 961.745 1003.57 999.128C1003.57 1036.51 1033.87 1066.82 1071.25 1066.82Z" fill="black"/>
<path d="M1006.03 952.362L1020.8 964.669L1031.87 952.362L1020.8 937.594L1006.03 952.362Z" fill="black"/>
<path fill-rule="evenodd" clip-rule="evenodd" d="M1021.34 929.982L1038.34 952.651L1021.29 971.591L998.621 952.698L1021.34 929.982ZM1013.44 952.026L1020.3 957.747L1025.41 952.073L1020.26 945.206L1013.44 952.026Z" fill="black"/>
<path d="M1180.79 1166.34C1159.13 1185.05 1099.56 1194.64 1072.49 1197.11C1129.1 1256.18 1203.35 1215.57 1255.86 1203.26C1276.53 1228.86 1397.39 1238.95 1457.69 1197.11C1435.54 1200.8 1381.14 1201.54 1340.77 1174.95C1300.41 1148.37 1267.34 1163.88 1255.86 1174.95C1239.86 1164.29 1202.45 1147.63 1180.79 1166.34Z" fill="black"/>
<path fill-rule="evenodd" clip-rule="evenodd" d="M1219.35 1164.51C1205.91 1161.49 1193.12 1162.3 1184.05 1170.12C1178.02 1175.33 1169.64 1179.69 1160.37 1183.34C1151.03 1187.03 1140.47 1190.12 1129.84 1192.68C1113.53 1196.6 1096.84 1199.31 1083.75 1200.92C1108.76 1222.44 1136.79 1225.77 1165.05 1221.99C1180.73 1219.9 1196.39 1215.61 1211.56 1211.01C1215.36 1209.86 1219.15 1208.69 1222.89 1207.52C1233.97 1204.08 1244.75 1200.73 1254.72 1198.39L1257.77 1197.68L1259.75 1200.12C1261.69 1202.52 1265.12 1205.09 1270.19 1207.57C1275.2 1210.02 1281.51 1212.25 1288.88 1214.14C1303.6 1217.91 1322.12 1220.23 1341.97 1220.47C1373.58 1220.86 1407.81 1215.98 1435.05 1203.95C1426.15 1204.09 1416.06 1203.67 1405.44 1202.34C1383.56 1199.61 1359.05 1192.98 1338.02 1179.13C1299.88 1154.01 1269.37 1168.87 1259.33 1178.55L1256.43 1181.35L1253.08 1179.11C1245.46 1174.03 1232.67 1167.5 1219.35 1164.51ZM1255.39 1168.73C1246.91 1163.55 1234.56 1157.68 1221.54 1154.75C1206.85 1151.45 1190.12 1151.67 1177.52 1162.56C1172.72 1166.7 1165.53 1170.56 1156.7 1174.04C1147.93 1177.5 1137.85 1180.46 1127.5 1182.95C1106.79 1187.93 1085.37 1190.91 1072.03 1192.13L1061.69 1193.07L1068.88 1200.57C1098.62 1231.6 1133.14 1236.35 1166.37 1231.91C1182.89 1229.7 1199.18 1225.21 1214.46 1220.58C1218.45 1219.38 1222.34 1218.16 1226.16 1216.98C1236.07 1213.9 1245.41 1211 1254.18 1208.81C1257.25 1211.76 1261.25 1214.33 1265.79 1216.55C1271.58 1219.39 1278.58 1221.82 1286.39 1223.82C1302.03 1227.83 1321.37 1230.22 1341.85 1230.47C1382.64 1230.97 1429.15 1222.99 1460.54 1201.21L1456.87 1192.17C1446.27 1193.94 1427.62 1195.04 1406.68 1192.42C1385.74 1189.8 1362.86 1183.51 1343.52 1170.78C1303.88 1144.67 1270.28 1156.86 1255.39 1168.73Z" fill="black"/>
</svg>
