<svg width="14" height="17" viewBox="0 0 14 17" fill="none" xmlns="http://www.w3.org/2000/svg">
<path d="M0 16V1C0 0.447715 0.447715 0 0.999999 0H10.1589C10.4519 0 10.7301 0.128481 10.9201 0.3515L13.7612 3.68638C13.9153 3.8673 14 4.0972 14 4.33488V16C14 16.5523 13.5523 17 13 17H1C0.447715 17 0 16.5523 0 16Z" fill="#FF3636"/>
<path d="M2.5 12.7071V14.5C2.5 14.7761 2.72386 15 3 15H11.5C11.7761 15 12 14.7761 12 14.5V10.6667C12 10.5585 11.9649 10.4532 11.9 10.3667L10.8459 8.9612C10.6633 8.71778 10.3075 8.6925 10.0924 8.90765L6.85355 12.1464C6.65829 12.3417 6.34171 12.3417 6.14645 12.1464L4.85355 10.8536C4.65829 10.6583 4.34171 10.6583 4.14645 10.8536L2.64645 12.3536C2.55268 12.4473 2.5 12.5745 2.5 12.7071Z" fill="#FFDFDF"/>
<circle cx="5" cy="8" r="1" fill="#FFDFDF"/>
<path d="M10.5 0V3.5C10.5 3.77614 10.7239 4 11 4H14" stroke="white" stroke-width="0.5"/>
</svg>
