<svg width="14" height="17" viewBox="0 0 14 17" fill="none" xmlns="http://www.w3.org/2000/svg">
<path d="M0 16V1C0 0.447715 0.447715 0 0.999999 0H10.1589C10.4519 0 10.7301 0.128481 10.9201 0.3515L13.7612 3.68638C13.9153 3.8673 14 4.0972 14 4.33488V16C14 16.5523 13.5523 17 13 17H1C0.447715 17 0 16.5523 0 16Z" fill="#FF3636"/>
<circle cx="7" cy="12.5" r="2.5" fill="#FFDFDF"/>
<path d="M9.25 2H2.5C2.22386 2 2 2.22386 2 2.5V6C2 6.27614 2.22386 6.5 2.5 6.5H10.5C10.7761 6.5 11 6.27614 11 6V4.16667C11 4.05848 10.9649 3.95321 10.9 3.86667L9.65 2.2C9.55557 2.0741 9.40738 2 9.25 2Z" fill="#FFDFDF"/>
</svg>
